%TF.GenerationSoftware,KiCad,Pcbnew,10.0.3*%
%TF.CreationDate,2026-10-04T21:07:16-04:00*%
%TF.ProjectId,LORA,4c4f5241-2e6b-4696-9361-645f70636258,rev?*%
%TF.SameCoordinates,Original*%
%TF.FileFunction,Copper,L2,Bot*%
%TF.FilePolarity,Positive*%
%FSLAX46Y46*%
G04 Gerber Fmt 4.6, Leading zero omitted, Abs format (unit mm)*
G04 Created by KiCad (PCBNEW 10.0.3) date 2026-10-04 21:07:16*
%MOMM*%
%LPD*%
G01*
G04 APERTURE LIST*
%TA.AperFunction,ComponentPad*%
%ADD10R,1.700000X1.700000*%
%TD*%
%TA.AperFunction,ComponentPad*%
%ADD11C,1.700000*%
%TD*%
%TA.AperFunction,HeatsinkPad*%
%ADD12C,0.600000*%
%TD*%
%TA.AperFunction,ComponentPad*%
%ADD13C,1.000000*%
%TD*%
%TA.AperFunction,ComponentPad*%
%ADD14C,0.700000*%
%TD*%
%TA.AperFunction,ComponentPad*%
%ADD15O,0.900000X2.400000*%
%TD*%
%TA.AperFunction,ComponentPad*%
%ADD16O,0.900000X1.700000*%
%TD*%
%TA.AperFunction,ComponentPad*%
%ADD17R,1.050000X1.500000*%
%TD*%
%TA.AperFunction,ComponentPad*%
%ADD18O,1.050000X1.500000*%
%TD*%
%TA.AperFunction,ComponentPad*%
%ADD19C,2.000000*%
%TD*%
%TA.AperFunction,ComponentPad*%
%ADD20C,1.600000*%
%TD*%
%TA.AperFunction,ComponentPad*%
%ADD21R,2.000000X2.000000*%
%TD*%
%TA.AperFunction,ViaPad*%
%ADD22C,0.600000*%
%TD*%
%TA.AperFunction,Conductor*%
%ADD23C,0.200000*%
%TD*%
G04 APERTURE END LIST*
D10*
%TO.P,J5,1,Pin_1_1*%
%TO.N,/SDA*%
X109600000Y-147460000D03*
D11*
%TO.P,J5,2,Pin_2_2*%
%TO.N,/SCL*%
X109600000Y-150000000D03*
%TO.P,J5,3,Pin_3_3*%
%TO.N,GND*%
X109600000Y-152540000D03*
%TO.P,J5,4,Pin_4_4*%
%TO.N,/VOUT*%
X109600000Y-155080000D03*
%TO.P,J5,5,Pin_5_5*%
%TO.N,/battery*%
X109600000Y-157620000D03*
%TD*%
D12*
%TO.P,U1,41,GND_41*%
%TO.N,GND*%
X82100000Y-110510000D03*
X82100000Y-111910000D03*
X82800000Y-109810000D03*
X82800000Y-111210000D03*
X82800000Y-112610000D03*
X83500000Y-110510000D03*
X83500000Y-111910000D03*
X84200000Y-109810000D03*
X84200000Y-111210000D03*
X84200000Y-112610000D03*
X84900000Y-110510000D03*
X84900000Y-111910000D03*
%TD*%
D10*
%TO.P,J8,1,Pin_1_1*%
%TO.N,GND*%
X104200000Y-154850000D03*
D11*
%TO.P,J8,2,Pin_2_2*%
%TO.N,+3V3*%
X104200000Y-157390000D03*
%TO.P,J8,3,Pin_3_3*%
%TO.N,/SCL*%
X104200000Y-159930000D03*
%TO.P,J8,4,Pin_4_4*%
%TO.N,/SDA*%
X104200000Y-162470000D03*
%TD*%
D10*
%TO.P,J2,1,Pin_1_1*%
%TO.N,/INT*%
X116200000Y-142720000D03*
D11*
%TO.P,J2,2,Pin_2_2*%
%TO.N,/CS*%
X116200000Y-145260000D03*
%TO.P,J2,3,Pin_3_3*%
%TO.N,/ADD*%
X116200000Y-147800000D03*
%TO.P,J2,4,Pin_4_4*%
%TO.N,/SDA*%
X116200000Y-150340000D03*
%TO.P,J2,5,Pin_5_5*%
%TO.N,/SCL*%
X116200000Y-152880000D03*
%TO.P,J2,6,Pin_6_6*%
%TO.N,GND*%
X116200000Y-155420000D03*
%TO.P,J2,7,Pin_7_7*%
%TO.N,+3V3*%
X116200000Y-157960000D03*
%TO.P,J2,8,Pin_8_8*%
%TO.N,/battery*%
X116200000Y-160500000D03*
%TD*%
D13*
%TO.P,Y1,1,1_1*%
%TO.N,/XTA*%
X113100000Y-132000000D03*
%TO.P,Y1,2,G_2*%
%TO.N,GND*%
X114600000Y-132000000D03*
%TD*%
D14*
%TO.P,J1,A1,GND_A1*%
%TO.N,GND*%
X112100000Y-169640000D03*
%TO.P,J1,A4,VBUS_A4*%
%TO.N,+5V*%
X112950000Y-169640000D03*
%TO.P,J1,A5,CC1_A5*%
%TO.N,Net-(J1-CC1)*%
X113800000Y-169640000D03*
%TO.P,J1,A6,D+_A6*%
%TO.N,/D+*%
X114650000Y-169640000D03*
%TO.P,J1,A7,D-_A7*%
%TO.N,/D-*%
X115500000Y-169640000D03*
%TO.P,J1,A8*%
%TO.N,N/C*%
X116350000Y-169640000D03*
%TO.P,J1,A9,VBUS_A9*%
%TO.N,+5V*%
X117200000Y-169640000D03*
%TO.P,J1,A12,GND_A12*%
%TO.N,GND*%
X118050000Y-169640000D03*
%TO.P,J1,B1,GND_B1*%
X118050000Y-170990000D03*
%TO.P,J1,B4,VBUS_B4*%
%TO.N,+5V*%
X117200000Y-170990000D03*
%TO.P,J1,B5,CC2_B5*%
%TO.N,Net-(J1-CC2)*%
X116350000Y-170990000D03*
%TO.P,J1,B6,D+_B6*%
%TO.N,/D+*%
X115500000Y-170990000D03*
%TO.P,J1,B7,D-_B7*%
%TO.N,/D-*%
X114650000Y-170990000D03*
%TO.P,J1,B8*%
%TO.N,N/C*%
X113800000Y-170990000D03*
%TO.P,J1,B9,VBUS_B9*%
%TO.N,+5V*%
X112950000Y-170990000D03*
%TO.P,J1,B12,GND_B12*%
%TO.N,GND*%
X112100000Y-170990000D03*
D15*
%TO.P,J1,SH,SHIELD_SH*%
%TO.N,Net-(J1-SHIELD)*%
X110750000Y-170620000D03*
D16*
X110750000Y-174000000D03*
D15*
X119400000Y-170620000D03*
D16*
X119400000Y-174000000D03*
%TD*%
D10*
%TO.P,J3,1,Pin_1_1*%
%TO.N,/SIG*%
X63940000Y-168600000D03*
D11*
%TO.P,J3,2,Pin_2_2*%
%TO.N,+3V3*%
X61400000Y-168600000D03*
%TO.P,J3,3,Pin_3_3*%
%TO.N,GND*%
X58860000Y-168600000D03*
%TD*%
D17*
%TO.P,U5,1,GND_1*%
%TO.N,GND*%
X97060000Y-148400000D03*
D18*
%TO.P,U5,2,VI_2*%
%TO.N,/battery*%
X98330000Y-148400000D03*
%TO.P,U5,3,VO_3*%
%TO.N,+3V3*%
X99600000Y-148400000D03*
%TD*%
D19*
%TO.P,FB1,1*%
%TO.N,Net-(J1-SHIELD)*%
X62460000Y-126800000D03*
%TO.P,FB1,2*%
%TO.N,GND*%
X67540000Y-126800000D03*
%TD*%
D20*
%TO.P,C12,1*%
%TO.N,+3V3*%
X97200000Y-139600000D03*
%TO.P,C12,2*%
%TO.N,GND*%
X99700000Y-139600000D03*
%TD*%
D10*
%TO.P,J4,1,Pin_1_1*%
%TO.N,VCC*%
X105620000Y-169400000D03*
D11*
%TO.P,J4,2,Pin_2_2*%
%TO.N,/SDA*%
X103080000Y-169400000D03*
%TO.P,J4,3,Pin_3_3*%
%TO.N,GND*%
X100540000Y-169400000D03*
%TO.P,J4,4,Pin_4_4*%
%TO.N,/SCL*%
X98000000Y-169400000D03*
%TD*%
D10*
%TO.P,J6,1,Pin_1_1*%
%TO.N,+3V3*%
X83280000Y-167600000D03*
D11*
%TO.P,J6,2,Pin_2_2*%
%TO.N,/RX*%
X80740000Y-167600000D03*
%TO.P,J6,3,Pin_3_3*%
%TO.N,/TX*%
X78200000Y-167600000D03*
%TO.P,J6,4,Pin_4_4*%
%TO.N,GND*%
X75660000Y-167600000D03*
%TD*%
D21*
%TO.P,BT1,1,+_1*%
%TO.N,/battery*%
X90200000Y-161800000D03*
D19*
%TO.P,BT1,2,-_2*%
%TO.N,GND*%
X75210000Y-161800000D03*
%TD*%
D22*
%TO.N,*%
X60600000Y-146000000D03*
X76600000Y-166200000D03*
X96400000Y-145400000D03*
X62000000Y-128600000D03*
X64600000Y-135000000D03*
X96400000Y-142200000D03*
X89800000Y-103800000D03*
X65400000Y-145400000D03*
X74000000Y-103400000D03*
X68175026Y-121975026D03*
X72200000Y-122200000D03*
X77000000Y-175000000D03*
X63400000Y-151600000D03*
X64400000Y-147400000D03*
X53600000Y-149000000D03*
X89600000Y-107370000D03*
X96000000Y-102600000D03*
X63400000Y-148400000D03*
X91675735Y-107100000D03*
X61000000Y-151600000D03*
X58400000Y-151600000D03*
X74000000Y-106000000D03*
X65224265Y-140424265D03*
X63160000Y-134600000D03*
X60600000Y-147400000D03*
%TO.N,/SDA*%
X93750000Y-111110000D03*
X91400000Y-104600000D03*
X90475735Y-107275735D03*
%TO.N,/SCL*%
X95000000Y-132600000D03*
X94875735Y-139275735D03*
X105800000Y-158000000D03*
X92400000Y-120000000D03*
X93683527Y-122200000D03*
X111350000Y-150375985D03*
X96596306Y-129994269D03*
%TO.N,GND*%
X64360000Y-140575000D03*
X63775735Y-121575735D03*
X98400000Y-126200000D03*
X100720332Y-128780000D03*
X93600000Y-145200000D03*
X109400000Y-145400000D03*
X92555000Y-104000000D03*
X66600000Y-144600000D03*
X75000000Y-131800000D03*
X107800000Y-141110000D03*
X94200000Y-143200000D03*
X102292893Y-137507107D03*
X103750000Y-124400000D03*
X95400000Y-104000000D03*
X73600000Y-130200000D03*
X59000000Y-113000000D03*
X84000000Y-104600000D03*
X110800000Y-142600000D03*
X65800000Y-124800000D03*
X83800000Y-107970000D03*
X103048528Y-136000000D03*
X104050000Y-127200000D03*
X63100000Y-140575000D03*
X104200000Y-130400000D03*
X79475735Y-103475735D03*
X107000000Y-139735000D03*
X61360000Y-140600000D03*
X96404673Y-126227614D03*
X57000000Y-111800000D03*
X68800000Y-144475000D03*
X95600000Y-125000000D03*
X69400000Y-128400000D03*
%TO.N,+3V3*%
X95985000Y-130690000D03*
X106600000Y-130600000D03*
X109200000Y-128000000D03*
X107625000Y-127137500D03*
X77000000Y-131000000D03*
X79050000Y-131000000D03*
X69771471Y-120971471D03*
X105800000Y-135400000D03*
X94483530Y-122200000D03*
X99670332Y-120600000D03*
X106681459Y-129400000D03*
X94885529Y-128514471D03*
X94600000Y-131200000D03*
%TO.N,/BUSY*%
X109671426Y-123247967D03*
X103600000Y-117200000D03*
X76250000Y-107300000D03*
X110578229Y-126173242D03*
%TO.N,/SCK*%
X92400000Y-106200000D03*
X108875000Y-123323528D03*
%TO.N,/MOSI*%
X106000000Y-117200000D03*
X79600000Y-109600000D03*
%TO.N,/MISO*%
X107800000Y-117200000D03*
X76250000Y-111110000D03*
%TO.N,/DAT0*%
X72750000Y-116800000D03*
X63100000Y-139475000D03*
%TO.N,/DAT1*%
X71740735Y-120699265D03*
X76250000Y-116190000D03*
%TO.N,/NSS*%
X99670332Y-119400000D03*
X76250000Y-117460000D03*
%TO.N,/D-*%
X83800000Y-127000000D03*
X86000000Y-148000000D03*
X82800000Y-130000000D03*
X82400000Y-131800000D03*
X76250000Y-118730000D03*
X81350735Y-136449265D03*
X83800000Y-133235000D03*
%TO.N,/D+*%
X76800000Y-121400000D03*
X88600000Y-125200000D03*
X113800000Y-146400000D03*
X89200000Y-127280000D03*
X86800000Y-124000000D03*
X115600000Y-167800000D03*
X93675735Y-140475735D03*
X113324852Y-149775985D03*
X92600000Y-130400000D03*
X113600000Y-159900000D03*
X94200000Y-142000000D03*
X93200000Y-132035000D03*
%TO.N,/RESET*%
X95600000Y-115200000D03*
X114600000Y-121200000D03*
X112200000Y-122600000D03*
X96129923Y-114070077D03*
X91200000Y-115200000D03*
X102325000Y-115875000D03*
%TO.N,/DAT2*%
X72750000Y-118400000D03*
X71275026Y-118875026D03*
X68000000Y-118200000D03*
X63100000Y-146075000D03*
%TO.N,/DIO1*%
X85550735Y-117449265D03*
X112400000Y-123400000D03*
X89800000Y-106200000D03*
X115400000Y-119800000D03*
X86299265Y-116500735D03*
X115551473Y-121000000D03*
X81200000Y-118200000D03*
X92000000Y-103400000D03*
%TO.N,/ANT*%
X92000000Y-122800000D03*
X108797500Y-133200000D03*
%TO.N,/CLK*%
X88175000Y-121250000D03*
X88000000Y-122900000D03*
%TO.N,/DAT3*%
X63100000Y-144975000D03*
X88800000Y-118800000D03*
%TO.N,/CMD*%
X90715000Y-121250000D03*
X77000000Y-143200000D03*
%TO.N,/SIG*%
X83021968Y-123621968D03*
X90600000Y-123000000D03*
X81000000Y-123600000D03*
X91985000Y-121250000D03*
%TO.N,Net-(U1-IO0)*%
X75000000Y-122400000D03*
X92600000Y-124600000D03*
%TO.N,/INT*%
X99670332Y-116600000D03*
X96022694Y-116374165D03*
%TO.N,/CS*%
X93750000Y-113650000D03*
X96474265Y-112525735D03*
%TO.N,/ADD*%
X100400000Y-107800000D03*
X93750000Y-112380000D03*
X95400000Y-111400000D03*
%TO.N,/RX*%
X91800000Y-118400000D03*
%TO.N,/TX*%
X92000000Y-126000000D03*
X96000000Y-117200000D03*
X93750000Y-107300000D03*
X95400000Y-123400000D03*
%TO.N,/XTB*%
X104425000Y-134800000D03*
X113850000Y-136150000D03*
%TO.N,Net-(U2-VREG)*%
X105800000Y-128000000D03*
X107881458Y-129281458D03*
%TO.N,Net-(U2-DCC_SW)*%
X106600000Y-128000000D03*
X109800000Y-129600000D03*
%TO.N,/RFI P*%
X105707193Y-121292807D03*
X102000000Y-125200000D03*
%TO.N,/RFI*%
X102575735Y-118800000D03*
X104400000Y-120000000D03*
X98000000Y-123000000D03*
X102400000Y-117200000D03*
X97941182Y-117200000D03*
X100400000Y-125400000D03*
%TO.N,/RFO*%
X101400000Y-121524265D03*
X103675735Y-121524265D03*
%TO.N,Net-(J1-CC2)*%
X98037500Y-132800000D03*
X97180000Y-128700000D03*
%TO.N,Net-(J1-CC1)*%
X97400000Y-113525735D03*
X97800000Y-111800000D03*
%TO.N,+5V*%
X79050000Y-133300000D03*
X99135534Y-131596110D03*
%TD*%
%TO.N,*%
D23*
X62000000Y-128600000D02*
X63160000Y-129760000D01*
X65400000Y-145400000D02*
X64000000Y-146800000D01*
X64600000Y-139800000D02*
X65224265Y-140424265D01*
X64400000Y-147400000D02*
X60600000Y-147400000D01*
X89600000Y-107370000D02*
X89600000Y-107302941D01*
X96000000Y-102600000D02*
X91000000Y-102600000D01*
X63400000Y-148400000D02*
X54200000Y-148400000D01*
X96400000Y-142200000D02*
X96400000Y-145400000D01*
X68175026Y-121692182D02*
X68175026Y-121975026D01*
X91251470Y-106675735D02*
X91675735Y-107100000D01*
X69495737Y-120371471D02*
X68175026Y-121692182D01*
X58400000Y-151600000D02*
X58400000Y-151800000D01*
X70371471Y-120371471D02*
X69495737Y-120371471D01*
X76600000Y-166200000D02*
X77000000Y-166600000D01*
X63160000Y-129760000D02*
X63160000Y-134600000D01*
X63400000Y-151600000D02*
X61000000Y-151600000D01*
X90227206Y-106675735D02*
X91251470Y-106675735D01*
X61400000Y-146800000D02*
X60600000Y-146000000D01*
X91000000Y-102600000D02*
X89800000Y-103800000D01*
X54200000Y-148400000D02*
X53600000Y-149000000D01*
X77000000Y-166600000D02*
X77000000Y-175000000D01*
X64000000Y-146800000D02*
X61400000Y-146800000D01*
X89600000Y-107302941D02*
X90227206Y-106675735D01*
X64600000Y-135000000D02*
X64600000Y-139800000D01*
X74000000Y-103400000D02*
X74000000Y-106000000D01*
X72200000Y-122200000D02*
X70371471Y-120371471D01*
%TO.N,/SDA*%
X104200000Y-168280000D02*
X104200000Y-162470000D01*
X107470000Y-159200000D02*
X116586346Y-159200000D01*
X114450000Y-135901471D02*
X111600000Y-133051471D01*
X117350000Y-158436346D02*
X117350000Y-151490000D01*
X116586346Y-159200000D02*
X117350000Y-158436346D01*
X114450000Y-142610000D02*
X114450000Y-135901471D01*
X104200000Y-162470000D02*
X107470000Y-159200000D01*
X111600000Y-120151471D02*
X96048529Y-104600000D01*
X111600000Y-133051471D02*
X111600000Y-120151471D01*
X109600000Y-147460000D02*
X114450000Y-142610000D01*
X96048529Y-104600000D02*
X91400000Y-104600000D01*
X103080000Y-169400000D02*
X104200000Y-168280000D01*
X90475735Y-107835735D02*
X93750000Y-111110000D01*
X90475735Y-107275735D02*
X90475735Y-107835735D01*
X117350000Y-151490000D02*
X116200000Y-150340000D01*
%TO.N,/SCL*%
X116200000Y-152880000D02*
X113695985Y-150375985D01*
X94875735Y-139275735D02*
X94875735Y-148090735D01*
X104200000Y-159930000D02*
X98000000Y-166130000D01*
X93683527Y-121283527D02*
X93683527Y-122200000D01*
X107570000Y-156230000D02*
X105800000Y-158000000D01*
X98000000Y-166130000D02*
X98000000Y-169400000D01*
X113695985Y-150375985D02*
X111350000Y-150375985D01*
X112850000Y-156230000D02*
X107570000Y-156230000D01*
X116200000Y-152880000D02*
X112850000Y-156230000D01*
X96596306Y-129994269D02*
X96596306Y-131003694D01*
X92400000Y-120000000D02*
X93683527Y-121283527D01*
X96785000Y-150000000D02*
X109600000Y-150000000D01*
X94875735Y-148090735D02*
X96785000Y-150000000D01*
X96596306Y-131003694D02*
X95000000Y-132600000D01*
%TO.N,GND*%
X68260000Y-144475000D02*
X64360000Y-140575000D01*
X79475735Y-103475735D02*
X80600000Y-104600000D01*
X80600000Y-104600000D02*
X84000000Y-104600000D01*
X63075000Y-140600000D02*
X63100000Y-140575000D01*
X102340332Y-130400000D02*
X100720332Y-128780000D01*
X94200000Y-143200000D02*
X94200000Y-144600000D01*
X107000000Y-140310000D02*
X107800000Y-141110000D01*
X66000000Y-125000000D02*
X66000000Y-125260000D01*
X75000000Y-131800000D02*
X73600000Y-130400000D01*
X103750000Y-126900000D02*
X104050000Y-127200000D01*
X69140000Y-128400000D02*
X69400000Y-128400000D01*
X95600000Y-125000000D02*
X95600000Y-125422941D01*
X94200000Y-144600000D02*
X93600000Y-145200000D01*
X95600000Y-125422941D02*
X96404673Y-126227614D01*
X66000000Y-125260000D02*
X67540000Y-126800000D01*
X57800000Y-111800000D02*
X57000000Y-111800000D01*
X95400000Y-104000000D02*
X92555000Y-104000000D01*
X59000000Y-113000000D02*
X63775735Y-117775735D01*
X71800000Y-128400000D02*
X69400000Y-128400000D01*
X83800000Y-107970000D02*
X83800000Y-109410000D01*
X107000000Y-139735000D02*
X107000000Y-140310000D01*
X104200000Y-130400000D02*
X102340332Y-130400000D01*
X73600000Y-130200000D02*
X71800000Y-128400000D01*
X65800000Y-124800000D02*
X66000000Y-125000000D01*
X102292893Y-136755635D02*
X103048528Y-136000000D01*
X98400000Y-126200000D02*
X98400000Y-126459668D01*
X67540000Y-126800000D02*
X69140000Y-128400000D01*
X109400000Y-145400000D02*
X110800000Y-144000000D01*
X83800000Y-109410000D02*
X84200000Y-109810000D01*
X103750000Y-124400000D02*
X103750000Y-126900000D01*
X110800000Y-144000000D02*
X110800000Y-142600000D01*
X59000000Y-113000000D02*
X57800000Y-111800000D01*
X73600000Y-130400000D02*
X73600000Y-130200000D01*
X63775735Y-117775735D02*
X63775735Y-121575735D01*
X61360000Y-140600000D02*
X63075000Y-140600000D01*
X68800000Y-144475000D02*
X68260000Y-144475000D01*
X98400000Y-126459668D02*
X100720332Y-128780000D01*
X102292893Y-137507107D02*
X102292893Y-136755635D01*
%TO.N,+3V3*%
X94885529Y-128514471D02*
X94600000Y-128800000D01*
X110750000Y-150476346D02*
X110750000Y-149523654D01*
X109123654Y-151150000D02*
X110076346Y-151150000D01*
X99670332Y-120600000D02*
X99670332Y-121200000D01*
X77000000Y-131000000D02*
X79050000Y-131000000D01*
X99810000Y-148610000D02*
X99600000Y-148400000D01*
X99600000Y-142000000D02*
X97200000Y-139600000D01*
X94600000Y-128800000D02*
X94600000Y-131200000D01*
X99670332Y-121200000D02*
X98470332Y-122400000D01*
X101400000Y-135400000D02*
X97200000Y-139600000D01*
X115360000Y-158800000D02*
X116200000Y-157960000D01*
X99600000Y-148400000D02*
X99600000Y-142000000D01*
X106600000Y-129481459D02*
X106600000Y-130600000D01*
X110076346Y-151150000D02*
X110750000Y-150476346D01*
X105610000Y-158800000D02*
X115360000Y-158800000D01*
X104200000Y-157390000D02*
X108450000Y-153140000D01*
X79050000Y-130250000D02*
X79050000Y-131000000D01*
X98470332Y-122400000D02*
X94683530Y-122400000D01*
X104200000Y-157390000D02*
X105610000Y-158800000D01*
X107625000Y-127137500D02*
X108487500Y-128000000D01*
X106681459Y-129400000D02*
X106600000Y-129481459D01*
X94683530Y-122400000D02*
X94483530Y-122200000D01*
X108450000Y-151823654D02*
X109123654Y-151150000D01*
X95475000Y-131200000D02*
X95985000Y-130690000D01*
X108450000Y-153140000D02*
X108450000Y-151823654D01*
X108487500Y-128000000D02*
X109200000Y-128000000D01*
X109836346Y-148610000D02*
X99810000Y-148610000D01*
X94600000Y-131200000D02*
X95475000Y-131200000D01*
X110750000Y-149523654D02*
X109836346Y-148610000D01*
X69771471Y-120971471D02*
X79050000Y-130250000D01*
X105800000Y-135400000D02*
X101400000Y-135400000D01*
%TO.N,/BUSY*%
X86750000Y-117800000D02*
X76250000Y-107300000D01*
X109800000Y-125395013D02*
X109800000Y-123376541D01*
X103600000Y-117200000D02*
X103000000Y-117800000D01*
X103000000Y-117800000D02*
X86750000Y-117800000D01*
X110578229Y-126173242D02*
X109800000Y-125395013D01*
X109800000Y-123376541D02*
X109671426Y-123247967D01*
%TO.N,/SCK*%
X93498529Y-106200000D02*
X108875000Y-121576471D01*
X108875000Y-121576471D02*
X108875000Y-123323528D01*
X92400000Y-106200000D02*
X93498529Y-106200000D01*
%TO.N,/MOSI*%
X106000000Y-117200000D02*
X94400000Y-105600000D01*
X94400000Y-105600000D02*
X83600000Y-105600000D01*
X83600000Y-105600000D02*
X79600000Y-109600000D01*
%TO.N,/MISO*%
X107800000Y-117200000D02*
X95800000Y-105200000D01*
X95800000Y-105200000D02*
X77501471Y-105200000D01*
X75650000Y-107051471D02*
X75650000Y-110510000D01*
X77501471Y-105200000D02*
X75650000Y-107051471D01*
X75650000Y-110510000D02*
X76250000Y-111110000D01*
%TO.N,/DAT0*%
X72750000Y-116800000D02*
X70621522Y-116800000D01*
X61160000Y-126261522D02*
X61160000Y-137535000D01*
X61160000Y-137535000D02*
X63100000Y-139475000D01*
X70621522Y-116800000D02*
X61160000Y-126261522D01*
%TO.N,/DAT1*%
X71740735Y-120699265D02*
X76250000Y-116190000D01*
%TO.N,/NSS*%
X78190000Y-119400000D02*
X76250000Y-117460000D01*
X99670332Y-119400000D02*
X78190000Y-119400000D01*
%TO.N,/D-*%
X74000000Y-122248529D02*
X74000000Y-120980000D01*
X83800000Y-127000000D02*
X78751471Y-127000000D01*
X109070000Y-168250000D02*
X106770000Y-170550000D01*
X83800000Y-134000000D02*
X83800000Y-133235000D01*
X115500000Y-169145026D02*
X114604974Y-168250000D01*
X78751471Y-127000000D02*
X74000000Y-122248529D01*
X81350735Y-136449265D02*
X83800000Y-134000000D01*
X86000000Y-160200000D02*
X86000000Y-148000000D01*
X114650000Y-170559239D02*
X115500000Y-169709239D01*
X82400000Y-131800000D02*
X82400000Y-130400000D01*
X115500000Y-169640000D02*
X115500000Y-169145026D01*
X114604974Y-168250000D02*
X109070000Y-168250000D01*
X82400000Y-130400000D02*
X82800000Y-130000000D01*
X115500000Y-169709239D02*
X115500000Y-169640000D01*
X106770000Y-170550000D02*
X96350000Y-170550000D01*
X74000000Y-120980000D02*
X76250000Y-118730000D01*
X114650000Y-170990000D02*
X114650000Y-170559239D01*
X96350000Y-170550000D02*
X86000000Y-160200000D01*
%TO.N,/D+*%
X93675735Y-141475735D02*
X94200000Y-142000000D01*
X113324852Y-146875148D02*
X113324852Y-149775985D01*
X88600000Y-125200000D02*
X88600000Y-126680000D01*
X113800000Y-146400000D02*
X113324852Y-146875148D01*
X93675735Y-140475735D02*
X93675735Y-141475735D01*
X84200000Y-121400000D02*
X86800000Y-124000000D01*
X113600000Y-165800000D02*
X115600000Y-167800000D01*
X76800000Y-121400000D02*
X84200000Y-121400000D01*
X92600000Y-130400000D02*
X92600000Y-131435000D01*
X92600000Y-131435000D02*
X93200000Y-132035000D01*
X113600000Y-159900000D02*
X113600000Y-165800000D01*
X88600000Y-126680000D02*
X89200000Y-127280000D01*
%TO.N,/RESET*%
X100677206Y-114227206D02*
X102325000Y-115875000D01*
X91200000Y-115200000D02*
X95600000Y-115200000D01*
X114600000Y-121200000D02*
X113600000Y-121200000D01*
X113600000Y-121200000D02*
X112200000Y-122600000D01*
X96129923Y-114070077D02*
X96287052Y-114227206D01*
X96287052Y-114227206D02*
X100677206Y-114227206D01*
%TO.N,/DAT2*%
X68000000Y-118200000D02*
X60760000Y-125440000D01*
X60760000Y-143735000D02*
X63100000Y-146075000D01*
X71750052Y-118400000D02*
X71275026Y-118875026D01*
X60760000Y-125440000D02*
X60760000Y-143735000D01*
X72750000Y-118400000D02*
X71750052Y-118400000D01*
%TO.N,/DIO1*%
X115000000Y-121800000D02*
X114400000Y-121800000D01*
X81200000Y-118200000D02*
X85000000Y-118200000D01*
X86299265Y-116500735D02*
X86299265Y-109700735D01*
X86299265Y-109700735D02*
X89800000Y-106200000D01*
X115551473Y-121000000D02*
X115551473Y-121248527D01*
X92000000Y-103400000D02*
X99000000Y-103400000D01*
X99000000Y-103400000D02*
X115400000Y-119800000D01*
X115551473Y-121248527D02*
X115000000Y-121800000D01*
X114400000Y-121800000D02*
X112800000Y-123400000D01*
X85550735Y-117649265D02*
X85550735Y-117449265D01*
X112800000Y-123400000D02*
X112400000Y-123400000D01*
X85000000Y-118200000D02*
X85550735Y-117649265D01*
%TO.N,/ANT*%
X98600000Y-125000000D02*
X98718861Y-125000000D01*
X104524265Y-130924265D02*
X106800000Y-133200000D01*
X104448529Y-129800000D02*
X104800000Y-130151471D01*
X103951471Y-129800000D02*
X104448529Y-129800000D01*
X104800000Y-130648529D02*
X104524265Y-130924265D01*
X96400000Y-122800000D02*
X98600000Y-125000000D01*
X106800000Y-133200000D02*
X108797500Y-133200000D01*
X98718861Y-125000000D02*
X98918861Y-125200000D01*
X103751471Y-130000000D02*
X103951471Y-129800000D01*
X100200000Y-126600000D02*
X103600000Y-130000000D01*
X104800000Y-130151471D02*
X104800000Y-130648529D01*
X92000000Y-122800000D02*
X96400000Y-122800000D01*
X98918861Y-125270332D02*
X100200000Y-126551471D01*
X100200000Y-126551471D02*
X100200000Y-126600000D01*
X103600000Y-130000000D02*
X103751471Y-130000000D01*
X98918861Y-125200000D02*
X98918861Y-125270332D01*
%TO.N,/CLK*%
X88000000Y-121425000D02*
X88175000Y-121250000D01*
X88000000Y-122900000D02*
X88000000Y-121425000D01*
%TO.N,/DAT3*%
X76498529Y-115590000D02*
X74808529Y-115590000D01*
X74808529Y-115590000D02*
X72998529Y-117400000D01*
X71901522Y-117400000D02*
X63760000Y-125541522D01*
X88800000Y-118800000D02*
X79708529Y-118800000D01*
X79708529Y-118800000D02*
X76498529Y-115590000D01*
X72998529Y-117400000D02*
X71901522Y-117400000D01*
X63760000Y-125541522D02*
X63760000Y-144315000D01*
X63760000Y-144315000D02*
X63100000Y-144975000D01*
%TO.N,/CMD*%
X77009594Y-143209594D02*
X89042121Y-143209594D01*
X90000000Y-121965000D02*
X90715000Y-121250000D01*
X90200000Y-125600000D02*
X90600000Y-125200000D01*
X95928529Y-126600000D02*
X91200000Y-126600000D01*
X93200000Y-124848529D02*
X93200000Y-124351471D01*
X93200000Y-124351471D02*
X92448529Y-123600000D01*
X92848529Y-125200000D02*
X93200000Y-124848529D01*
X99735534Y-130407005D02*
X95928529Y-126600000D01*
X99735534Y-132516181D02*
X99735534Y-130407005D01*
X90351471Y-123600000D02*
X90000000Y-123248529D01*
X90000000Y-123248529D02*
X90000000Y-121965000D01*
X89042121Y-143209594D02*
X99735534Y-132516181D01*
X92448529Y-123600000D02*
X90351471Y-123600000D01*
X90600000Y-125200000D02*
X92848529Y-125200000D01*
X77000000Y-143200000D02*
X77009594Y-143209594D01*
X91200000Y-126600000D02*
X90200000Y-125600000D01*
%TO.N,/SIG*%
X90600000Y-123000000D02*
X90600000Y-122635000D01*
X83000000Y-123600000D02*
X83021968Y-123621968D01*
X81000000Y-123600000D02*
X83000000Y-123600000D01*
X90600000Y-122635000D02*
X91985000Y-121250000D01*
%TO.N,Net-(U1-IO0)*%
X77200000Y-124600000D02*
X92600000Y-124600000D01*
X75000000Y-122400000D02*
X77200000Y-124600000D01*
%TO.N,/INT*%
X96248529Y-116600000D02*
X96022694Y-116374165D01*
X99670332Y-116600000D02*
X96248529Y-116600000D01*
%TO.N,/CS*%
X94874265Y-112525735D02*
X93750000Y-113650000D01*
X96474265Y-112525735D02*
X94874265Y-112525735D01*
%TO.N,/ADD*%
X115400000Y-132331371D02*
X115400000Y-122000000D01*
X115050000Y-146650000D02*
X115050000Y-132681371D01*
X116200000Y-147800000D02*
X115050000Y-146650000D01*
X113000000Y-120400000D02*
X100400000Y-107800000D01*
X117000000Y-120400000D02*
X113000000Y-120400000D01*
X115050000Y-132681371D02*
X115400000Y-132331371D01*
X95400000Y-111400000D02*
X94730000Y-111400000D01*
X94730000Y-111400000D02*
X93750000Y-112380000D01*
X115400000Y-122000000D02*
X117000000Y-120400000D01*
%TO.N,/RX*%
X108475000Y-121742157D02*
X104932843Y-118200000D01*
X109400000Y-124513970D02*
X109400000Y-123825070D01*
X98800000Y-118400000D02*
X91800000Y-118400000D01*
X108751471Y-127600000D02*
X108653186Y-127600000D01*
X107376471Y-126537500D02*
X109400000Y-124513970D01*
X108951471Y-127400000D02*
X108751471Y-127600000D01*
X109046029Y-133800000D02*
X110400000Y-132446029D01*
X109765686Y-129000000D02*
X109365686Y-128600000D01*
X109123529Y-123923528D02*
X108626471Y-123923528D01*
X109800000Y-127751471D02*
X109448529Y-127400000D01*
X107873529Y-126537500D02*
X107376471Y-126537500D01*
X108225000Y-126888971D02*
X107873529Y-126537500D01*
X110400000Y-129848529D02*
X110400000Y-129351471D01*
X110400000Y-129351471D02*
X110048529Y-129000000D01*
X99017401Y-133800000D02*
X109046029Y-133800000D01*
X108626471Y-123923528D02*
X108275000Y-123572057D01*
X110048529Y-129000000D02*
X109765686Y-129000000D01*
X99000000Y-118200000D02*
X98800000Y-118400000D01*
X110400000Y-130000000D02*
X110324264Y-129924264D01*
X109400000Y-123825070D02*
X109310993Y-123736063D01*
X108225000Y-127171814D02*
X108225000Y-126888971D01*
X104932843Y-118200000D02*
X99000000Y-118200000D01*
X110324264Y-129924264D02*
X110400000Y-129848529D01*
X109448529Y-127400000D02*
X108951471Y-127400000D01*
X110400000Y-132446029D02*
X110400000Y-130000000D01*
X108475000Y-122874999D02*
X108475000Y-121742157D01*
X108653186Y-127600000D02*
X108225000Y-127171814D01*
X109310993Y-123736063D02*
X109123529Y-123923528D01*
X108275000Y-123074999D02*
X108475000Y-122874999D01*
X109800000Y-128248529D02*
X109800000Y-127751471D01*
X80740000Y-152077401D02*
X99017401Y-133800000D01*
X80740000Y-167600000D02*
X80740000Y-152077401D01*
X109365686Y-128600000D02*
X109448529Y-128600000D01*
X108275000Y-123572057D02*
X108275000Y-123074999D01*
X109448529Y-128600000D02*
X109800000Y-128248529D01*
%TO.N,/TX*%
X95400000Y-114600000D02*
X95000000Y-114200000D01*
X96225736Y-111925735D02*
X96200000Y-111951471D01*
X96722794Y-113125735D02*
X97074265Y-112774264D01*
X96200000Y-111951471D02*
X96200000Y-109750000D01*
X95200000Y-116400000D02*
X95200000Y-115648529D01*
X96200000Y-109750000D02*
X93750000Y-107300000D01*
X95200000Y-115648529D02*
X95351471Y-115800000D01*
X92000000Y-126000000D02*
X92800000Y-126000000D01*
X95151471Y-114200000D02*
X96225736Y-113125735D01*
X96722794Y-111925735D02*
X96225736Y-111925735D01*
X96225736Y-113125735D02*
X96722794Y-113125735D01*
X97074265Y-112774264D02*
X97074265Y-112277206D01*
X95351471Y-115800000D02*
X95848529Y-115800000D01*
X92800000Y-126000000D02*
X95400000Y-123400000D01*
X96200000Y-115448529D02*
X96200000Y-114951471D01*
X97074265Y-112277206D02*
X96722794Y-111925735D01*
X95000000Y-114200000D02*
X95151471Y-114200000D01*
X96000000Y-117200000D02*
X95200000Y-116400000D01*
X95848529Y-114600000D02*
X95400000Y-114600000D01*
X96200000Y-114951471D02*
X95848529Y-114600000D01*
X95848529Y-115800000D02*
X96200000Y-115448529D01*
%TO.N,/XTB*%
X112500000Y-134800000D02*
X113850000Y-136150000D01*
X104425000Y-134800000D02*
X112500000Y-134800000D01*
%TO.N,Net-(U2-VREG)*%
X107881458Y-129281458D02*
X107400000Y-128800000D01*
X106081459Y-129518541D02*
X106000000Y-129600000D01*
X107400000Y-128800000D02*
X106432930Y-128800000D01*
X105000000Y-128800000D02*
X105800000Y-128000000D01*
X105200000Y-128800000D02*
X105000000Y-128800000D01*
X106000000Y-129600000D02*
X105200000Y-128800000D01*
X106432930Y-128800000D02*
X106081459Y-129151471D01*
X106081459Y-129151471D02*
X106081459Y-129518541D01*
%TO.N,Net-(U2-DCC_SW)*%
X108600000Y-128400000D02*
X107000000Y-128400000D01*
X107000000Y-128400000D02*
X106600000Y-128000000D01*
X109800000Y-129600000D02*
X108600000Y-128400000D01*
%TO.N,/RFI P*%
X105507193Y-121292807D02*
X105707193Y-121292807D01*
X102000000Y-125200000D02*
X102000000Y-124800000D01*
X102000000Y-124800000D02*
X105507193Y-121292807D01*
%TO.N,/RFI*%
X103200000Y-118800000D02*
X102575735Y-118800000D01*
X100400000Y-125400000D02*
X98000000Y-123000000D01*
X102400000Y-117200000D02*
X97941182Y-117200000D01*
X104400000Y-120000000D02*
X103200000Y-118800000D01*
%TO.N,/RFO*%
X101353516Y-121524265D02*
X101400000Y-121524265D01*
X101400000Y-121524265D02*
X103675735Y-121524265D01*
%TO.N,Net-(J1-CC2)*%
X83621471Y-127880000D02*
X96360000Y-127880000D01*
X96360000Y-127880000D02*
X97180000Y-128700000D01*
X78450000Y-140901471D02*
X78450000Y-133051471D01*
X116350000Y-171059239D02*
X115289239Y-172120000D01*
X76400000Y-142951471D02*
X78450000Y-140901471D01*
X98037500Y-132800000D02*
X98037500Y-129557500D01*
X79590000Y-146638529D02*
X76400000Y-143448529D01*
X98037500Y-129557500D02*
X97180000Y-128700000D01*
X76400000Y-143448529D02*
X76400000Y-142951471D01*
X116350000Y-170990000D02*
X116350000Y-171059239D01*
X115289239Y-172120000D02*
X83633654Y-172120000D01*
X78450000Y-133051471D02*
X83621471Y-127880000D01*
X79590000Y-168076346D02*
X79590000Y-146638529D01*
X83633654Y-172120000D02*
X79590000Y-168076346D01*
%TO.N,Net-(J1-CC1)*%
X97400000Y-113525735D02*
X97800000Y-113125735D01*
X97800000Y-113125735D02*
X97800000Y-111800000D01*
%TO.N,+5V*%
X93835000Y-132635000D02*
X79715000Y-132635000D01*
X79715000Y-132635000D02*
X79050000Y-133300000D01*
X99135534Y-132550495D02*
X98286029Y-133400000D01*
X99135534Y-131596110D02*
X99135534Y-132550495D01*
X94600000Y-133400000D02*
X93835000Y-132635000D01*
X98286029Y-133400000D02*
X94600000Y-133400000D01*
%TD*%
M02*
