%TF.GenerationSoftware,KiCad,Pcbnew,10.0.3*%
%TF.CreationDate,2026-10-04T21:07:16-04:00*%
%TF.ProjectId,LORA,4c4f5241-2e6b-4696-9361-645f70636258,rev?*%
%TF.SameCoordinates,Original*%
%TF.FileFunction,Legend,Top*%
%TF.FilePolarity,Positive*%
%FSLAX46Y46*%
G04 Gerber Fmt 4.6, Leading zero omitted, Abs format (unit mm)*
G04 Created by KiCad (PCBNEW 10.0.3) date 2026-10-04 21:07:16*
%MOMM*%
%LPD*%
G01*
G04 APERTURE LIST*
%ADD10C,0.100000*%
%ADD11C,0.150000*%
%ADD12C,0.120000*%
G04 APERTURE END LIST*
D10*
X57765000Y-153390000D02*
X105435000Y-153390000D01*
X105435000Y-164600000D01*
X57765000Y-164600000D01*
X57765000Y-153390000D01*
D11*
X109266666Y-144534819D02*
X109266666Y-145249104D01*
X109266666Y-145249104D02*
X109219047Y-145391961D01*
X109219047Y-145391961D02*
X109123809Y-145487200D01*
X109123809Y-145487200D02*
X108980952Y-145534819D01*
X108980952Y-145534819D02*
X108885714Y-145534819D01*
X110219047Y-144534819D02*
X109742857Y-144534819D01*
X109742857Y-144534819D02*
X109695238Y-145011009D01*
X109695238Y-145011009D02*
X109742857Y-144963390D01*
X109742857Y-144963390D02*
X109838095Y-144915771D01*
X109838095Y-144915771D02*
X110076190Y-144915771D01*
X110076190Y-144915771D02*
X110171428Y-144963390D01*
X110171428Y-144963390D02*
X110219047Y-145011009D01*
X110219047Y-145011009D02*
X110266666Y-145106247D01*
X110266666Y-145106247D02*
X110266666Y-145344342D01*
X110266666Y-145344342D02*
X110219047Y-145439580D01*
X110219047Y-145439580D02*
X110171428Y-145487200D01*
X110171428Y-145487200D02*
X110076190Y-145534819D01*
X110076190Y-145534819D02*
X109838095Y-145534819D01*
X109838095Y-145534819D02*
X109742857Y-145487200D01*
X109742857Y-145487200D02*
X109695238Y-145439580D01*
X112054819Y-163814286D02*
X112054819Y-163147620D01*
X112054819Y-163147620D02*
X113054819Y-163576191D01*
X112054819Y-162861905D02*
X112054819Y-162195239D01*
X112054819Y-162195239D02*
X113054819Y-162623810D01*
X112054819Y-161623810D02*
X112054819Y-161528572D01*
X112054819Y-161528572D02*
X112102438Y-161433334D01*
X112102438Y-161433334D02*
X112150057Y-161385715D01*
X112150057Y-161385715D02*
X112245295Y-161338096D01*
X112245295Y-161338096D02*
X112435771Y-161290477D01*
X112435771Y-161290477D02*
X112673866Y-161290477D01*
X112673866Y-161290477D02*
X112864342Y-161338096D01*
X112864342Y-161338096D02*
X112959580Y-161385715D01*
X112959580Y-161385715D02*
X113007200Y-161433334D01*
X113007200Y-161433334D02*
X113054819Y-161528572D01*
X113054819Y-161528572D02*
X113054819Y-161623810D01*
X113054819Y-161623810D02*
X113007200Y-161719048D01*
X113007200Y-161719048D02*
X112959580Y-161766667D01*
X112959580Y-161766667D02*
X112864342Y-161814286D01*
X112864342Y-161814286D02*
X112673866Y-161861905D01*
X112673866Y-161861905D02*
X112435771Y-161861905D01*
X112435771Y-161861905D02*
X112245295Y-161814286D01*
X112245295Y-161814286D02*
X112150057Y-161766667D01*
X112150057Y-161766667D02*
X112102438Y-161719048D01*
X112102438Y-161719048D02*
X112054819Y-161623810D01*
X112054819Y-160671429D02*
X112054819Y-160576191D01*
X112054819Y-160576191D02*
X112102438Y-160480953D01*
X112102438Y-160480953D02*
X112150057Y-160433334D01*
X112150057Y-160433334D02*
X112245295Y-160385715D01*
X112245295Y-160385715D02*
X112435771Y-160338096D01*
X112435771Y-160338096D02*
X112673866Y-160338096D01*
X112673866Y-160338096D02*
X112864342Y-160385715D01*
X112864342Y-160385715D02*
X112959580Y-160433334D01*
X112959580Y-160433334D02*
X113007200Y-160480953D01*
X113007200Y-160480953D02*
X113054819Y-160576191D01*
X113054819Y-160576191D02*
X113054819Y-160671429D01*
X113054819Y-160671429D02*
X113007200Y-160766667D01*
X113007200Y-160766667D02*
X112959580Y-160814286D01*
X112959580Y-160814286D02*
X112864342Y-160861905D01*
X112864342Y-160861905D02*
X112673866Y-160909524D01*
X112673866Y-160909524D02*
X112435771Y-160909524D01*
X112435771Y-160909524D02*
X112245295Y-160861905D01*
X112245295Y-160861905D02*
X112150057Y-160814286D01*
X112150057Y-160814286D02*
X112102438Y-160766667D01*
X112102438Y-160766667D02*
X112054819Y-160671429D01*
X112769104Y-159195238D02*
X112769104Y-158719048D01*
X113054819Y-159290476D02*
X112054819Y-158957143D01*
X112054819Y-158957143D02*
X113054819Y-158623810D01*
X113054819Y-158290476D02*
X112388152Y-158290476D01*
X112483390Y-158290476D02*
X112435771Y-158242857D01*
X112435771Y-158242857D02*
X112388152Y-158147619D01*
X112388152Y-158147619D02*
X112388152Y-158004762D01*
X112388152Y-158004762D02*
X112435771Y-157909524D01*
X112435771Y-157909524D02*
X112531009Y-157861905D01*
X112531009Y-157861905D02*
X113054819Y-157861905D01*
X112531009Y-157861905D02*
X112435771Y-157814286D01*
X112435771Y-157814286D02*
X112388152Y-157719048D01*
X112388152Y-157719048D02*
X112388152Y-157576191D01*
X112388152Y-157576191D02*
X112435771Y-157480952D01*
X112435771Y-157480952D02*
X112531009Y-157433333D01*
X112531009Y-157433333D02*
X113054819Y-157433333D01*
X113054819Y-156957143D02*
X112054819Y-156957143D01*
X112435771Y-156957143D02*
X112388152Y-156861905D01*
X112388152Y-156861905D02*
X112388152Y-156671429D01*
X112388152Y-156671429D02*
X112435771Y-156576191D01*
X112435771Y-156576191D02*
X112483390Y-156528572D01*
X112483390Y-156528572D02*
X112578628Y-156480953D01*
X112578628Y-156480953D02*
X112864342Y-156480953D01*
X112864342Y-156480953D02*
X112959580Y-156528572D01*
X112959580Y-156528572D02*
X113007200Y-156576191D01*
X113007200Y-156576191D02*
X113054819Y-156671429D01*
X113054819Y-156671429D02*
X113054819Y-156861905D01*
X113054819Y-156861905D02*
X113007200Y-156957143D01*
X113054819Y-156052381D02*
X112388152Y-156052381D01*
X112054819Y-156052381D02*
X112102438Y-156100000D01*
X112102438Y-156100000D02*
X112150057Y-156052381D01*
X112150057Y-156052381D02*
X112102438Y-156004762D01*
X112102438Y-156004762D02*
X112054819Y-156052381D01*
X112054819Y-156052381D02*
X112150057Y-156052381D01*
X113007200Y-155195239D02*
X113054819Y-155290477D01*
X113054819Y-155290477D02*
X113054819Y-155480953D01*
X113054819Y-155480953D02*
X113007200Y-155576191D01*
X113007200Y-155576191D02*
X112911961Y-155623810D01*
X112911961Y-155623810D02*
X112531009Y-155623810D01*
X112531009Y-155623810D02*
X112435771Y-155576191D01*
X112435771Y-155576191D02*
X112388152Y-155480953D01*
X112388152Y-155480953D02*
X112388152Y-155290477D01*
X112388152Y-155290477D02*
X112435771Y-155195239D01*
X112435771Y-155195239D02*
X112531009Y-155147620D01*
X112531009Y-155147620D02*
X112626247Y-155147620D01*
X112626247Y-155147620D02*
X112721485Y-155623810D01*
X112388152Y-154719048D02*
X113054819Y-154719048D01*
X112483390Y-154719048D02*
X112435771Y-154671429D01*
X112435771Y-154671429D02*
X112388152Y-154576191D01*
X112388152Y-154576191D02*
X112388152Y-154433334D01*
X112388152Y-154433334D02*
X112435771Y-154338096D01*
X112435771Y-154338096D02*
X112531009Y-154290477D01*
X112531009Y-154290477D02*
X113054819Y-154290477D01*
X112388152Y-153957143D02*
X112388152Y-153576191D01*
X112054819Y-153814286D02*
X112911961Y-153814286D01*
X112911961Y-153814286D02*
X113007200Y-153766667D01*
X113007200Y-153766667D02*
X113054819Y-153671429D01*
X113054819Y-153671429D02*
X113054819Y-153576191D01*
X113054819Y-152004762D02*
X113054819Y-152480952D01*
X113054819Y-152480952D02*
X112054819Y-152480952D01*
X113054819Y-151671428D02*
X112388152Y-151671428D01*
X112054819Y-151671428D02*
X112102438Y-151719047D01*
X112102438Y-151719047D02*
X112150057Y-151671428D01*
X112150057Y-151671428D02*
X112102438Y-151623809D01*
X112102438Y-151623809D02*
X112054819Y-151671428D01*
X112054819Y-151671428D02*
X112150057Y-151671428D01*
X112388152Y-150766667D02*
X113197676Y-150766667D01*
X113197676Y-150766667D02*
X113292914Y-150814286D01*
X113292914Y-150814286D02*
X113340533Y-150861905D01*
X113340533Y-150861905D02*
X113388152Y-150957143D01*
X113388152Y-150957143D02*
X113388152Y-151100000D01*
X113388152Y-151100000D02*
X113340533Y-151195238D01*
X113007200Y-150766667D02*
X113054819Y-150861905D01*
X113054819Y-150861905D02*
X113054819Y-151052381D01*
X113054819Y-151052381D02*
X113007200Y-151147619D01*
X113007200Y-151147619D02*
X112959580Y-151195238D01*
X112959580Y-151195238D02*
X112864342Y-151242857D01*
X112864342Y-151242857D02*
X112578628Y-151242857D01*
X112578628Y-151242857D02*
X112483390Y-151195238D01*
X112483390Y-151195238D02*
X112435771Y-151147619D01*
X112435771Y-151147619D02*
X112388152Y-151052381D01*
X112388152Y-151052381D02*
X112388152Y-150861905D01*
X112388152Y-150861905D02*
X112435771Y-150766667D01*
X113054819Y-150290476D02*
X112054819Y-150290476D01*
X113054819Y-149861905D02*
X112531009Y-149861905D01*
X112531009Y-149861905D02*
X112435771Y-149909524D01*
X112435771Y-149909524D02*
X112388152Y-150004762D01*
X112388152Y-150004762D02*
X112388152Y-150147619D01*
X112388152Y-150147619D02*
X112435771Y-150242857D01*
X112435771Y-150242857D02*
X112483390Y-150290476D01*
X112388152Y-149528571D02*
X112388152Y-149147619D01*
X112054819Y-149385714D02*
X112911961Y-149385714D01*
X112911961Y-149385714D02*
X113007200Y-149338095D01*
X113007200Y-149338095D02*
X113054819Y-149242857D01*
X113054819Y-149242857D02*
X113054819Y-149147619D01*
X113007200Y-148099999D02*
X113054819Y-147957142D01*
X113054819Y-147957142D02*
X113054819Y-147719047D01*
X113054819Y-147719047D02*
X113007200Y-147623809D01*
X113007200Y-147623809D02*
X112959580Y-147576190D01*
X112959580Y-147576190D02*
X112864342Y-147528571D01*
X112864342Y-147528571D02*
X112769104Y-147528571D01*
X112769104Y-147528571D02*
X112673866Y-147576190D01*
X112673866Y-147576190D02*
X112626247Y-147623809D01*
X112626247Y-147623809D02*
X112578628Y-147719047D01*
X112578628Y-147719047D02*
X112531009Y-147909523D01*
X112531009Y-147909523D02*
X112483390Y-148004761D01*
X112483390Y-148004761D02*
X112435771Y-148052380D01*
X112435771Y-148052380D02*
X112340533Y-148099999D01*
X112340533Y-148099999D02*
X112245295Y-148099999D01*
X112245295Y-148099999D02*
X112150057Y-148052380D01*
X112150057Y-148052380D02*
X112102438Y-148004761D01*
X112102438Y-148004761D02*
X112054819Y-147909523D01*
X112054819Y-147909523D02*
X112054819Y-147671428D01*
X112054819Y-147671428D02*
X112102438Y-147528571D01*
X113007200Y-146719047D02*
X113054819Y-146814285D01*
X113054819Y-146814285D02*
X113054819Y-147004761D01*
X113054819Y-147004761D02*
X113007200Y-147099999D01*
X113007200Y-147099999D02*
X112911961Y-147147618D01*
X112911961Y-147147618D02*
X112531009Y-147147618D01*
X112531009Y-147147618D02*
X112435771Y-147099999D01*
X112435771Y-147099999D02*
X112388152Y-147004761D01*
X112388152Y-147004761D02*
X112388152Y-146814285D01*
X112388152Y-146814285D02*
X112435771Y-146719047D01*
X112435771Y-146719047D02*
X112531009Y-146671428D01*
X112531009Y-146671428D02*
X112626247Y-146671428D01*
X112626247Y-146671428D02*
X112721485Y-147147618D01*
X112388152Y-146242856D02*
X113054819Y-146242856D01*
X112483390Y-146242856D02*
X112435771Y-146195237D01*
X112435771Y-146195237D02*
X112388152Y-146099999D01*
X112388152Y-146099999D02*
X112388152Y-145957142D01*
X112388152Y-145957142D02*
X112435771Y-145861904D01*
X112435771Y-145861904D02*
X112531009Y-145814285D01*
X112531009Y-145814285D02*
X113054819Y-145814285D01*
X113007200Y-145385713D02*
X113054819Y-145290475D01*
X113054819Y-145290475D02*
X113054819Y-145099999D01*
X113054819Y-145099999D02*
X113007200Y-145004761D01*
X113007200Y-145004761D02*
X112911961Y-144957142D01*
X112911961Y-144957142D02*
X112864342Y-144957142D01*
X112864342Y-144957142D02*
X112769104Y-145004761D01*
X112769104Y-145004761D02*
X112721485Y-145099999D01*
X112721485Y-145099999D02*
X112721485Y-145242856D01*
X112721485Y-145242856D02*
X112673866Y-145338094D01*
X112673866Y-145338094D02*
X112578628Y-145385713D01*
X112578628Y-145385713D02*
X112531009Y-145385713D01*
X112531009Y-145385713D02*
X112435771Y-145338094D01*
X112435771Y-145338094D02*
X112388152Y-145242856D01*
X112388152Y-145242856D02*
X112388152Y-145099999D01*
X112388152Y-145099999D02*
X112435771Y-145004761D01*
X113054819Y-144385713D02*
X113007200Y-144480951D01*
X113007200Y-144480951D02*
X112959580Y-144528570D01*
X112959580Y-144528570D02*
X112864342Y-144576189D01*
X112864342Y-144576189D02*
X112578628Y-144576189D01*
X112578628Y-144576189D02*
X112483390Y-144528570D01*
X112483390Y-144528570D02*
X112435771Y-144480951D01*
X112435771Y-144480951D02*
X112388152Y-144385713D01*
X112388152Y-144385713D02*
X112388152Y-144242856D01*
X112388152Y-144242856D02*
X112435771Y-144147618D01*
X112435771Y-144147618D02*
X112483390Y-144099999D01*
X112483390Y-144099999D02*
X112578628Y-144052380D01*
X112578628Y-144052380D02*
X112864342Y-144052380D01*
X112864342Y-144052380D02*
X112959580Y-144099999D01*
X112959580Y-144099999D02*
X113007200Y-144147618D01*
X113007200Y-144147618D02*
X113054819Y-144242856D01*
X113054819Y-144242856D02*
X113054819Y-144385713D01*
X113054819Y-143623808D02*
X112388152Y-143623808D01*
X112578628Y-143623808D02*
X112483390Y-143576189D01*
X112483390Y-143576189D02*
X112435771Y-143528570D01*
X112435771Y-143528570D02*
X112388152Y-143433332D01*
X112388152Y-143433332D02*
X112388152Y-143338094D01*
X73954819Y-120911904D02*
X74764342Y-120911904D01*
X74764342Y-120911904D02*
X74859580Y-120864285D01*
X74859580Y-120864285D02*
X74907200Y-120816666D01*
X74907200Y-120816666D02*
X74954819Y-120721428D01*
X74954819Y-120721428D02*
X74954819Y-120530952D01*
X74954819Y-120530952D02*
X74907200Y-120435714D01*
X74907200Y-120435714D02*
X74859580Y-120388095D01*
X74859580Y-120388095D02*
X74764342Y-120340476D01*
X74764342Y-120340476D02*
X73954819Y-120340476D01*
X74954819Y-119340476D02*
X74954819Y-119911904D01*
X74954819Y-119626190D02*
X73954819Y-119626190D01*
X73954819Y-119626190D02*
X74097676Y-119721428D01*
X74097676Y-119721428D02*
X74192914Y-119816666D01*
X74192914Y-119816666D02*
X74240533Y-119911904D01*
X106238095Y-121354819D02*
X106238095Y-122164342D01*
X106238095Y-122164342D02*
X106285714Y-122259580D01*
X106285714Y-122259580D02*
X106333333Y-122307200D01*
X106333333Y-122307200D02*
X106428571Y-122354819D01*
X106428571Y-122354819D02*
X106619047Y-122354819D01*
X106619047Y-122354819D02*
X106714285Y-122307200D01*
X106714285Y-122307200D02*
X106761904Y-122259580D01*
X106761904Y-122259580D02*
X106809523Y-122164342D01*
X106809523Y-122164342D02*
X106809523Y-121354819D01*
X107238095Y-121450057D02*
X107285714Y-121402438D01*
X107285714Y-121402438D02*
X107380952Y-121354819D01*
X107380952Y-121354819D02*
X107619047Y-121354819D01*
X107619047Y-121354819D02*
X107714285Y-121402438D01*
X107714285Y-121402438D02*
X107761904Y-121450057D01*
X107761904Y-121450057D02*
X107809523Y-121545295D01*
X107809523Y-121545295D02*
X107809523Y-121640533D01*
X107809523Y-121640533D02*
X107761904Y-121783390D01*
X107761904Y-121783390D02*
X107190476Y-122354819D01*
X107190476Y-122354819D02*
X107809523Y-122354819D01*
X100761904Y-121051009D02*
X100428571Y-121051009D01*
X100428571Y-121574819D02*
X100428571Y-120574819D01*
X100428571Y-120574819D02*
X100904761Y-120574819D01*
X101761904Y-121574819D02*
X101285714Y-121574819D01*
X101285714Y-121574819D02*
X101285714Y-120574819D01*
X102047619Y-120670057D02*
X102095238Y-120622438D01*
X102095238Y-120622438D02*
X102190476Y-120574819D01*
X102190476Y-120574819D02*
X102428571Y-120574819D01*
X102428571Y-120574819D02*
X102523809Y-120622438D01*
X102523809Y-120622438D02*
X102571428Y-120670057D01*
X102571428Y-120670057D02*
X102619047Y-120765295D01*
X102619047Y-120765295D02*
X102619047Y-120860533D01*
X102619047Y-120860533D02*
X102571428Y-121003390D01*
X102571428Y-121003390D02*
X102000000Y-121574819D01*
X102000000Y-121574819D02*
X102619047Y-121574819D01*
X56114819Y-143208333D02*
X56829104Y-143208333D01*
X56829104Y-143208333D02*
X56971961Y-143255952D01*
X56971961Y-143255952D02*
X57067200Y-143351190D01*
X57067200Y-143351190D02*
X57114819Y-143494047D01*
X57114819Y-143494047D02*
X57114819Y-143589285D01*
X56114819Y-142827380D02*
X56114819Y-142160714D01*
X56114819Y-142160714D02*
X57114819Y-142589285D01*
X113800833Y-122229580D02*
X113753214Y-122277200D01*
X113753214Y-122277200D02*
X113610357Y-122324819D01*
X113610357Y-122324819D02*
X113515119Y-122324819D01*
X113515119Y-122324819D02*
X113372262Y-122277200D01*
X113372262Y-122277200D02*
X113277024Y-122181961D01*
X113277024Y-122181961D02*
X113229405Y-122086723D01*
X113229405Y-122086723D02*
X113181786Y-121896247D01*
X113181786Y-121896247D02*
X113181786Y-121753390D01*
X113181786Y-121753390D02*
X113229405Y-121562914D01*
X113229405Y-121562914D02*
X113277024Y-121467676D01*
X113277024Y-121467676D02*
X113372262Y-121372438D01*
X113372262Y-121372438D02*
X113515119Y-121324819D01*
X113515119Y-121324819D02*
X113610357Y-121324819D01*
X113610357Y-121324819D02*
X113753214Y-121372438D01*
X113753214Y-121372438D02*
X113800833Y-121420057D01*
X114753214Y-122324819D02*
X114181786Y-122324819D01*
X114467500Y-122324819D02*
X114467500Y-121324819D01*
X114467500Y-121324819D02*
X114372262Y-121467676D01*
X114372262Y-121467676D02*
X114277024Y-121562914D01*
X114277024Y-121562914D02*
X114181786Y-121610533D01*
X103866666Y-151924819D02*
X103866666Y-152639104D01*
X103866666Y-152639104D02*
X103819047Y-152781961D01*
X103819047Y-152781961D02*
X103723809Y-152877200D01*
X103723809Y-152877200D02*
X103580952Y-152924819D01*
X103580952Y-152924819D02*
X103485714Y-152924819D01*
X104485714Y-152353390D02*
X104390476Y-152305771D01*
X104390476Y-152305771D02*
X104342857Y-152258152D01*
X104342857Y-152258152D02*
X104295238Y-152162914D01*
X104295238Y-152162914D02*
X104295238Y-152115295D01*
X104295238Y-152115295D02*
X104342857Y-152020057D01*
X104342857Y-152020057D02*
X104390476Y-151972438D01*
X104390476Y-151972438D02*
X104485714Y-151924819D01*
X104485714Y-151924819D02*
X104676190Y-151924819D01*
X104676190Y-151924819D02*
X104771428Y-151972438D01*
X104771428Y-151972438D02*
X104819047Y-152020057D01*
X104819047Y-152020057D02*
X104866666Y-152115295D01*
X104866666Y-152115295D02*
X104866666Y-152162914D01*
X104866666Y-152162914D02*
X104819047Y-152258152D01*
X104819047Y-152258152D02*
X104771428Y-152305771D01*
X104771428Y-152305771D02*
X104676190Y-152353390D01*
X104676190Y-152353390D02*
X104485714Y-152353390D01*
X104485714Y-152353390D02*
X104390476Y-152401009D01*
X104390476Y-152401009D02*
X104342857Y-152448628D01*
X104342857Y-152448628D02*
X104295238Y-152543866D01*
X104295238Y-152543866D02*
X104295238Y-152734342D01*
X104295238Y-152734342D02*
X104342857Y-152829580D01*
X104342857Y-152829580D02*
X104390476Y-152877200D01*
X104390476Y-152877200D02*
X104485714Y-152924819D01*
X104485714Y-152924819D02*
X104676190Y-152924819D01*
X104676190Y-152924819D02*
X104771428Y-152877200D01*
X104771428Y-152877200D02*
X104819047Y-152829580D01*
X104819047Y-152829580D02*
X104866666Y-152734342D01*
X104866666Y-152734342D02*
X104866666Y-152543866D01*
X104866666Y-152543866D02*
X104819047Y-152448628D01*
X104819047Y-152448628D02*
X104771428Y-152401009D01*
X104771428Y-152401009D02*
X104676190Y-152353390D01*
X115866666Y-139794819D02*
X115866666Y-140509104D01*
X115866666Y-140509104D02*
X115819047Y-140651961D01*
X115819047Y-140651961D02*
X115723809Y-140747200D01*
X115723809Y-140747200D02*
X115580952Y-140794819D01*
X115580952Y-140794819D02*
X115485714Y-140794819D01*
X116295238Y-139890057D02*
X116342857Y-139842438D01*
X116342857Y-139842438D02*
X116438095Y-139794819D01*
X116438095Y-139794819D02*
X116676190Y-139794819D01*
X116676190Y-139794819D02*
X116771428Y-139842438D01*
X116771428Y-139842438D02*
X116819047Y-139890057D01*
X116819047Y-139890057D02*
X116866666Y-139985295D01*
X116866666Y-139985295D02*
X116866666Y-140080533D01*
X116866666Y-140080533D02*
X116819047Y-140223390D01*
X116819047Y-140223390D02*
X116247619Y-140794819D01*
X116247619Y-140794819D02*
X116866666Y-140794819D01*
X119131009Y-152167618D02*
X119131009Y-151834285D01*
X119654819Y-151691428D02*
X119654819Y-152167618D01*
X119654819Y-152167618D02*
X118654819Y-152167618D01*
X118654819Y-152167618D02*
X118654819Y-151691428D01*
X119654819Y-151262856D02*
X118654819Y-151262856D01*
X118654819Y-151262856D02*
X119654819Y-150691428D01*
X119654819Y-150691428D02*
X118654819Y-150691428D01*
X119607200Y-150262856D02*
X119654819Y-150119999D01*
X119654819Y-150119999D02*
X119654819Y-149881904D01*
X119654819Y-149881904D02*
X119607200Y-149786666D01*
X119607200Y-149786666D02*
X119559580Y-149739047D01*
X119559580Y-149739047D02*
X119464342Y-149691428D01*
X119464342Y-149691428D02*
X119369104Y-149691428D01*
X119369104Y-149691428D02*
X119273866Y-149739047D01*
X119273866Y-149739047D02*
X119226247Y-149786666D01*
X119226247Y-149786666D02*
X119178628Y-149881904D01*
X119178628Y-149881904D02*
X119131009Y-150072380D01*
X119131009Y-150072380D02*
X119083390Y-150167618D01*
X119083390Y-150167618D02*
X119035771Y-150215237D01*
X119035771Y-150215237D02*
X118940533Y-150262856D01*
X118940533Y-150262856D02*
X118845295Y-150262856D01*
X118845295Y-150262856D02*
X118750057Y-150215237D01*
X118750057Y-150215237D02*
X118702438Y-150167618D01*
X118702438Y-150167618D02*
X118654819Y-150072380D01*
X118654819Y-150072380D02*
X118654819Y-149834285D01*
X118654819Y-149834285D02*
X118702438Y-149691428D01*
X119654819Y-148739047D02*
X119654819Y-149310475D01*
X119654819Y-149024761D02*
X118654819Y-149024761D01*
X118654819Y-149024761D02*
X118797676Y-149119999D01*
X118797676Y-149119999D02*
X118892914Y-149215237D01*
X118892914Y-149215237D02*
X118940533Y-149310475D01*
X118654819Y-147881904D02*
X118654819Y-148072380D01*
X118654819Y-148072380D02*
X118702438Y-148167618D01*
X118702438Y-148167618D02*
X118750057Y-148215237D01*
X118750057Y-148215237D02*
X118892914Y-148310475D01*
X118892914Y-148310475D02*
X119083390Y-148358094D01*
X119083390Y-148358094D02*
X119464342Y-148358094D01*
X119464342Y-148358094D02*
X119559580Y-148310475D01*
X119559580Y-148310475D02*
X119607200Y-148262856D01*
X119607200Y-148262856D02*
X119654819Y-148167618D01*
X119654819Y-148167618D02*
X119654819Y-147977142D01*
X119654819Y-147977142D02*
X119607200Y-147881904D01*
X119607200Y-147881904D02*
X119559580Y-147834285D01*
X119559580Y-147834285D02*
X119464342Y-147786666D01*
X119464342Y-147786666D02*
X119226247Y-147786666D01*
X119226247Y-147786666D02*
X119131009Y-147834285D01*
X119131009Y-147834285D02*
X119083390Y-147881904D01*
X119083390Y-147881904D02*
X119035771Y-147977142D01*
X119035771Y-147977142D02*
X119035771Y-148167618D01*
X119035771Y-148167618D02*
X119083390Y-148262856D01*
X119083390Y-148262856D02*
X119131009Y-148310475D01*
X119131009Y-148310475D02*
X119226247Y-148358094D01*
X118654819Y-147167618D02*
X118654819Y-147072380D01*
X118654819Y-147072380D02*
X118702438Y-146977142D01*
X118702438Y-146977142D02*
X118750057Y-146929523D01*
X118750057Y-146929523D02*
X118845295Y-146881904D01*
X118845295Y-146881904D02*
X119035771Y-146834285D01*
X119035771Y-146834285D02*
X119273866Y-146834285D01*
X119273866Y-146834285D02*
X119464342Y-146881904D01*
X119464342Y-146881904D02*
X119559580Y-146929523D01*
X119559580Y-146929523D02*
X119607200Y-146977142D01*
X119607200Y-146977142D02*
X119654819Y-147072380D01*
X119654819Y-147072380D02*
X119654819Y-147167618D01*
X119654819Y-147167618D02*
X119607200Y-147262856D01*
X119607200Y-147262856D02*
X119559580Y-147310475D01*
X119559580Y-147310475D02*
X119464342Y-147358094D01*
X119464342Y-147358094D02*
X119273866Y-147405713D01*
X119273866Y-147405713D02*
X119035771Y-147405713D01*
X119035771Y-147405713D02*
X118845295Y-147358094D01*
X118845295Y-147358094D02*
X118750057Y-147310475D01*
X118750057Y-147310475D02*
X118702438Y-147262856D01*
X118702438Y-147262856D02*
X118654819Y-147167618D01*
X119273866Y-146405713D02*
X119273866Y-145643809D01*
X119654819Y-146024761D02*
X118892914Y-146024761D01*
X119369104Y-145215237D02*
X119369104Y-144739047D01*
X119654819Y-145310475D02*
X118654819Y-144977142D01*
X118654819Y-144977142D02*
X119654819Y-144643809D01*
X119654819Y-144310475D02*
X118654819Y-144310475D01*
X119131009Y-144310475D02*
X119131009Y-143739047D01*
X119654819Y-143739047D02*
X118654819Y-143739047D01*
X118654819Y-143405713D02*
X118654819Y-142834285D01*
X119654819Y-143119999D02*
X118654819Y-143119999D01*
X118750057Y-142548570D02*
X118702438Y-142500951D01*
X118702438Y-142500951D02*
X118654819Y-142405713D01*
X118654819Y-142405713D02*
X118654819Y-142167618D01*
X118654819Y-142167618D02*
X118702438Y-142072380D01*
X118702438Y-142072380D02*
X118750057Y-142024761D01*
X118750057Y-142024761D02*
X118845295Y-141977142D01*
X118845295Y-141977142D02*
X118940533Y-141977142D01*
X118940533Y-141977142D02*
X119083390Y-142024761D01*
X119083390Y-142024761D02*
X119654819Y-142596189D01*
X119654819Y-142596189D02*
X119654819Y-141977142D01*
X119654819Y-141024761D02*
X119654819Y-141596189D01*
X119654819Y-141310475D02*
X118654819Y-141310475D01*
X118654819Y-141310475D02*
X118797676Y-141405713D01*
X118797676Y-141405713D02*
X118892914Y-141500951D01*
X118892914Y-141500951D02*
X118940533Y-141596189D01*
X96415833Y-127984819D02*
X96082500Y-127508628D01*
X95844405Y-127984819D02*
X95844405Y-126984819D01*
X95844405Y-126984819D02*
X96225357Y-126984819D01*
X96225357Y-126984819D02*
X96320595Y-127032438D01*
X96320595Y-127032438D02*
X96368214Y-127080057D01*
X96368214Y-127080057D02*
X96415833Y-127175295D01*
X96415833Y-127175295D02*
X96415833Y-127318152D01*
X96415833Y-127318152D02*
X96368214Y-127413390D01*
X96368214Y-127413390D02*
X96320595Y-127461009D01*
X96320595Y-127461009D02*
X96225357Y-127508628D01*
X96225357Y-127508628D02*
X95844405Y-127508628D01*
X96796786Y-127080057D02*
X96844405Y-127032438D01*
X96844405Y-127032438D02*
X96939643Y-126984819D01*
X96939643Y-126984819D02*
X97177738Y-126984819D01*
X97177738Y-126984819D02*
X97272976Y-127032438D01*
X97272976Y-127032438D02*
X97320595Y-127080057D01*
X97320595Y-127080057D02*
X97368214Y-127175295D01*
X97368214Y-127175295D02*
X97368214Y-127270533D01*
X97368214Y-127270533D02*
X97320595Y-127413390D01*
X97320595Y-127413390D02*
X96749167Y-127984819D01*
X96749167Y-127984819D02*
X97368214Y-127984819D01*
X108033333Y-132484819D02*
X107557143Y-132484819D01*
X107557143Y-132484819D02*
X107557143Y-131484819D01*
X108319048Y-131580057D02*
X108366667Y-131532438D01*
X108366667Y-131532438D02*
X108461905Y-131484819D01*
X108461905Y-131484819D02*
X108700000Y-131484819D01*
X108700000Y-131484819D02*
X108795238Y-131532438D01*
X108795238Y-131532438D02*
X108842857Y-131580057D01*
X108842857Y-131580057D02*
X108890476Y-131675295D01*
X108890476Y-131675295D02*
X108890476Y-131770533D01*
X108890476Y-131770533D02*
X108842857Y-131913390D01*
X108842857Y-131913390D02*
X108271429Y-132484819D01*
X108271429Y-132484819D02*
X108890476Y-132484819D01*
X104182142Y-145019580D02*
X104134523Y-145067200D01*
X104134523Y-145067200D02*
X103991666Y-145114819D01*
X103991666Y-145114819D02*
X103896428Y-145114819D01*
X103896428Y-145114819D02*
X103753571Y-145067200D01*
X103753571Y-145067200D02*
X103658333Y-144971961D01*
X103658333Y-144971961D02*
X103610714Y-144876723D01*
X103610714Y-144876723D02*
X103563095Y-144686247D01*
X103563095Y-144686247D02*
X103563095Y-144543390D01*
X103563095Y-144543390D02*
X103610714Y-144352914D01*
X103610714Y-144352914D02*
X103658333Y-144257676D01*
X103658333Y-144257676D02*
X103753571Y-144162438D01*
X103753571Y-144162438D02*
X103896428Y-144114819D01*
X103896428Y-144114819D02*
X103991666Y-144114819D01*
X103991666Y-144114819D02*
X104134523Y-144162438D01*
X104134523Y-144162438D02*
X104182142Y-144210057D01*
X105134523Y-145114819D02*
X104563095Y-145114819D01*
X104848809Y-145114819D02*
X104848809Y-144114819D01*
X104848809Y-144114819D02*
X104753571Y-144257676D01*
X104753571Y-144257676D02*
X104658333Y-144352914D01*
X104658333Y-144352914D02*
X104563095Y-144400533D01*
X105467857Y-144114819D02*
X106086904Y-144114819D01*
X106086904Y-144114819D02*
X105753571Y-144495771D01*
X105753571Y-144495771D02*
X105896428Y-144495771D01*
X105896428Y-144495771D02*
X105991666Y-144543390D01*
X105991666Y-144543390D02*
X106039285Y-144591009D01*
X106039285Y-144591009D02*
X106086904Y-144686247D01*
X106086904Y-144686247D02*
X106086904Y-144924342D01*
X106086904Y-144924342D02*
X106039285Y-145019580D01*
X106039285Y-145019580D02*
X105991666Y-145067200D01*
X105991666Y-145067200D02*
X105896428Y-145114819D01*
X105896428Y-145114819D02*
X105610714Y-145114819D01*
X105610714Y-145114819D02*
X105515476Y-145067200D01*
X105515476Y-145067200D02*
X105467857Y-145019580D01*
X113800833Y-128139580D02*
X113753214Y-128187200D01*
X113753214Y-128187200D02*
X113610357Y-128234819D01*
X113610357Y-128234819D02*
X113515119Y-128234819D01*
X113515119Y-128234819D02*
X113372262Y-128187200D01*
X113372262Y-128187200D02*
X113277024Y-128091961D01*
X113277024Y-128091961D02*
X113229405Y-127996723D01*
X113229405Y-127996723D02*
X113181786Y-127806247D01*
X113181786Y-127806247D02*
X113181786Y-127663390D01*
X113181786Y-127663390D02*
X113229405Y-127472914D01*
X113229405Y-127472914D02*
X113277024Y-127377676D01*
X113277024Y-127377676D02*
X113372262Y-127282438D01*
X113372262Y-127282438D02*
X113515119Y-127234819D01*
X113515119Y-127234819D02*
X113610357Y-127234819D01*
X113610357Y-127234819D02*
X113753214Y-127282438D01*
X113753214Y-127282438D02*
X113800833Y-127330057D01*
X114705595Y-127234819D02*
X114229405Y-127234819D01*
X114229405Y-127234819D02*
X114181786Y-127711009D01*
X114181786Y-127711009D02*
X114229405Y-127663390D01*
X114229405Y-127663390D02*
X114324643Y-127615771D01*
X114324643Y-127615771D02*
X114562738Y-127615771D01*
X114562738Y-127615771D02*
X114657976Y-127663390D01*
X114657976Y-127663390D02*
X114705595Y-127711009D01*
X114705595Y-127711009D02*
X114753214Y-127806247D01*
X114753214Y-127806247D02*
X114753214Y-128044342D01*
X114753214Y-128044342D02*
X114705595Y-128139580D01*
X114705595Y-128139580D02*
X114657976Y-128187200D01*
X114657976Y-128187200D02*
X114562738Y-128234819D01*
X114562738Y-128234819D02*
X114324643Y-128234819D01*
X114324643Y-128234819D02*
X114229405Y-128187200D01*
X114229405Y-128187200D02*
X114181786Y-128139580D01*
X113800833Y-124199580D02*
X113753214Y-124247200D01*
X113753214Y-124247200D02*
X113610357Y-124294819D01*
X113610357Y-124294819D02*
X113515119Y-124294819D01*
X113515119Y-124294819D02*
X113372262Y-124247200D01*
X113372262Y-124247200D02*
X113277024Y-124151961D01*
X113277024Y-124151961D02*
X113229405Y-124056723D01*
X113229405Y-124056723D02*
X113181786Y-123866247D01*
X113181786Y-123866247D02*
X113181786Y-123723390D01*
X113181786Y-123723390D02*
X113229405Y-123532914D01*
X113229405Y-123532914D02*
X113277024Y-123437676D01*
X113277024Y-123437676D02*
X113372262Y-123342438D01*
X113372262Y-123342438D02*
X113515119Y-123294819D01*
X113515119Y-123294819D02*
X113610357Y-123294819D01*
X113610357Y-123294819D02*
X113753214Y-123342438D01*
X113753214Y-123342438D02*
X113800833Y-123390057D01*
X114134167Y-123294819D02*
X114753214Y-123294819D01*
X114753214Y-123294819D02*
X114419881Y-123675771D01*
X114419881Y-123675771D02*
X114562738Y-123675771D01*
X114562738Y-123675771D02*
X114657976Y-123723390D01*
X114657976Y-123723390D02*
X114705595Y-123771009D01*
X114705595Y-123771009D02*
X114753214Y-123866247D01*
X114753214Y-123866247D02*
X114753214Y-124104342D01*
X114753214Y-124104342D02*
X114705595Y-124199580D01*
X114705595Y-124199580D02*
X114657976Y-124247200D01*
X114657976Y-124247200D02*
X114562738Y-124294819D01*
X114562738Y-124294819D02*
X114277024Y-124294819D01*
X114277024Y-124294819D02*
X114181786Y-124247200D01*
X114181786Y-124247200D02*
X114134167Y-124199580D01*
X111638628Y-133551190D02*
X112114819Y-133551190D01*
X111114819Y-133884523D02*
X111638628Y-133551190D01*
X111638628Y-133551190D02*
X111114819Y-133217857D01*
X112114819Y-132360714D02*
X112114819Y-132932142D01*
X112114819Y-132646428D02*
X111114819Y-132646428D01*
X111114819Y-132646428D02*
X111257676Y-132741666D01*
X111257676Y-132741666D02*
X111352914Y-132836904D01*
X111352914Y-132836904D02*
X111400533Y-132932142D01*
X114741666Y-167294819D02*
X114741666Y-168009104D01*
X114741666Y-168009104D02*
X114694047Y-168151961D01*
X114694047Y-168151961D02*
X114598809Y-168247200D01*
X114598809Y-168247200D02*
X114455952Y-168294819D01*
X114455952Y-168294819D02*
X114360714Y-168294819D01*
X115741666Y-168294819D02*
X115170238Y-168294819D01*
X115455952Y-168294819D02*
X115455952Y-167294819D01*
X115455952Y-167294819D02*
X115360714Y-167437676D01*
X115360714Y-167437676D02*
X115265476Y-167532914D01*
X115265476Y-167532914D02*
X115170238Y-167580533D01*
X104182142Y-147529580D02*
X104134523Y-147577200D01*
X104134523Y-147577200D02*
X103991666Y-147624819D01*
X103991666Y-147624819D02*
X103896428Y-147624819D01*
X103896428Y-147624819D02*
X103753571Y-147577200D01*
X103753571Y-147577200D02*
X103658333Y-147481961D01*
X103658333Y-147481961D02*
X103610714Y-147386723D01*
X103610714Y-147386723D02*
X103563095Y-147196247D01*
X103563095Y-147196247D02*
X103563095Y-147053390D01*
X103563095Y-147053390D02*
X103610714Y-146862914D01*
X103610714Y-146862914D02*
X103658333Y-146767676D01*
X103658333Y-146767676D02*
X103753571Y-146672438D01*
X103753571Y-146672438D02*
X103896428Y-146624819D01*
X103896428Y-146624819D02*
X103991666Y-146624819D01*
X103991666Y-146624819D02*
X104134523Y-146672438D01*
X104134523Y-146672438D02*
X104182142Y-146720057D01*
X105134523Y-147624819D02*
X104563095Y-147624819D01*
X104848809Y-147624819D02*
X104848809Y-146624819D01*
X104848809Y-146624819D02*
X104753571Y-146767676D01*
X104753571Y-146767676D02*
X104658333Y-146862914D01*
X104658333Y-146862914D02*
X104563095Y-146910533D01*
X105991666Y-146958152D02*
X105991666Y-147624819D01*
X105753571Y-146577200D02*
X105515476Y-147291485D01*
X105515476Y-147291485D02*
X106134523Y-147291485D01*
X104238095Y-134454819D02*
X104238095Y-135264342D01*
X104238095Y-135264342D02*
X104285714Y-135359580D01*
X104285714Y-135359580D02*
X104333333Y-135407200D01*
X104333333Y-135407200D02*
X104428571Y-135454819D01*
X104428571Y-135454819D02*
X104619047Y-135454819D01*
X104619047Y-135454819D02*
X104714285Y-135407200D01*
X104714285Y-135407200D02*
X104761904Y-135359580D01*
X104761904Y-135359580D02*
X104809523Y-135264342D01*
X104809523Y-135264342D02*
X104809523Y-134454819D01*
X105714285Y-134788152D02*
X105714285Y-135454819D01*
X105476190Y-134407200D02*
X105238095Y-135121485D01*
X105238095Y-135121485D02*
X105857142Y-135121485D01*
X107982142Y-137529580D02*
X107934523Y-137577200D01*
X107934523Y-137577200D02*
X107791666Y-137624819D01*
X107791666Y-137624819D02*
X107696428Y-137624819D01*
X107696428Y-137624819D02*
X107553571Y-137577200D01*
X107553571Y-137577200D02*
X107458333Y-137481961D01*
X107458333Y-137481961D02*
X107410714Y-137386723D01*
X107410714Y-137386723D02*
X107363095Y-137196247D01*
X107363095Y-137196247D02*
X107363095Y-137053390D01*
X107363095Y-137053390D02*
X107410714Y-136862914D01*
X107410714Y-136862914D02*
X107458333Y-136767676D01*
X107458333Y-136767676D02*
X107553571Y-136672438D01*
X107553571Y-136672438D02*
X107696428Y-136624819D01*
X107696428Y-136624819D02*
X107791666Y-136624819D01*
X107791666Y-136624819D02*
X107934523Y-136672438D01*
X107934523Y-136672438D02*
X107982142Y-136720057D01*
X108934523Y-137624819D02*
X108363095Y-137624819D01*
X108648809Y-137624819D02*
X108648809Y-136624819D01*
X108648809Y-136624819D02*
X108553571Y-136767676D01*
X108553571Y-136767676D02*
X108458333Y-136862914D01*
X108458333Y-136862914D02*
X108363095Y-136910533D01*
X109553571Y-136624819D02*
X109648809Y-136624819D01*
X109648809Y-136624819D02*
X109744047Y-136672438D01*
X109744047Y-136672438D02*
X109791666Y-136720057D01*
X109791666Y-136720057D02*
X109839285Y-136815295D01*
X109839285Y-136815295D02*
X109886904Y-137005771D01*
X109886904Y-137005771D02*
X109886904Y-137243866D01*
X109886904Y-137243866D02*
X109839285Y-137434342D01*
X109839285Y-137434342D02*
X109791666Y-137529580D01*
X109791666Y-137529580D02*
X109744047Y-137577200D01*
X109744047Y-137577200D02*
X109648809Y-137624819D01*
X109648809Y-137624819D02*
X109553571Y-137624819D01*
X109553571Y-137624819D02*
X109458333Y-137577200D01*
X109458333Y-137577200D02*
X109410714Y-137529580D01*
X109410714Y-137529580D02*
X109363095Y-137434342D01*
X109363095Y-137434342D02*
X109315476Y-137243866D01*
X109315476Y-137243866D02*
X109315476Y-137005771D01*
X109315476Y-137005771D02*
X109363095Y-136815295D01*
X109363095Y-136815295D02*
X109410714Y-136720057D01*
X109410714Y-136720057D02*
X109458333Y-136672438D01*
X109458333Y-136672438D02*
X109553571Y-136624819D01*
X65774819Y-168933333D02*
X66489104Y-168933333D01*
X66489104Y-168933333D02*
X66631961Y-168980952D01*
X66631961Y-168980952D02*
X66727200Y-169076190D01*
X66727200Y-169076190D02*
X66774819Y-169219047D01*
X66774819Y-169219047D02*
X66774819Y-169314285D01*
X65774819Y-168552380D02*
X65774819Y-167933333D01*
X65774819Y-167933333D02*
X66155771Y-168266666D01*
X66155771Y-168266666D02*
X66155771Y-168123809D01*
X66155771Y-168123809D02*
X66203390Y-168028571D01*
X66203390Y-168028571D02*
X66251009Y-167980952D01*
X66251009Y-167980952D02*
X66346247Y-167933333D01*
X66346247Y-167933333D02*
X66584342Y-167933333D01*
X66584342Y-167933333D02*
X66679580Y-167980952D01*
X66679580Y-167980952D02*
X66727200Y-168028571D01*
X66727200Y-168028571D02*
X66774819Y-168123809D01*
X66774819Y-168123809D02*
X66774819Y-168409523D01*
X66774819Y-168409523D02*
X66727200Y-168504761D01*
X66727200Y-168504761D02*
X66679580Y-168552380D01*
X57173332Y-171794819D02*
X57173332Y-172604342D01*
X57173332Y-172604342D02*
X57220951Y-172699580D01*
X57220951Y-172699580D02*
X57268570Y-172747200D01*
X57268570Y-172747200D02*
X57363808Y-172794819D01*
X57363808Y-172794819D02*
X57554284Y-172794819D01*
X57554284Y-172794819D02*
X57649522Y-172747200D01*
X57649522Y-172747200D02*
X57697141Y-172699580D01*
X57697141Y-172699580D02*
X57744760Y-172604342D01*
X57744760Y-172604342D02*
X57744760Y-171794819D01*
X58078094Y-171794819D02*
X58411427Y-172794819D01*
X58411427Y-172794819D02*
X58744760Y-171794819D01*
X59792380Y-172747200D02*
X59935237Y-172794819D01*
X59935237Y-172794819D02*
X60173332Y-172794819D01*
X60173332Y-172794819D02*
X60268570Y-172747200D01*
X60268570Y-172747200D02*
X60316189Y-172699580D01*
X60316189Y-172699580D02*
X60363808Y-172604342D01*
X60363808Y-172604342D02*
X60363808Y-172509104D01*
X60363808Y-172509104D02*
X60316189Y-172413866D01*
X60316189Y-172413866D02*
X60268570Y-172366247D01*
X60268570Y-172366247D02*
X60173332Y-172318628D01*
X60173332Y-172318628D02*
X59982856Y-172271009D01*
X59982856Y-172271009D02*
X59887618Y-172223390D01*
X59887618Y-172223390D02*
X59839999Y-172175771D01*
X59839999Y-172175771D02*
X59792380Y-172080533D01*
X59792380Y-172080533D02*
X59792380Y-171985295D01*
X59792380Y-171985295D02*
X59839999Y-171890057D01*
X59839999Y-171890057D02*
X59887618Y-171842438D01*
X59887618Y-171842438D02*
X59982856Y-171794819D01*
X59982856Y-171794819D02*
X60220951Y-171794819D01*
X60220951Y-171794819D02*
X60363808Y-171842438D01*
X61173332Y-172747200D02*
X61078094Y-172794819D01*
X61078094Y-172794819D02*
X60887618Y-172794819D01*
X60887618Y-172794819D02*
X60792380Y-172747200D01*
X60792380Y-172747200D02*
X60744761Y-172651961D01*
X60744761Y-172651961D02*
X60744761Y-172271009D01*
X60744761Y-172271009D02*
X60792380Y-172175771D01*
X60792380Y-172175771D02*
X60887618Y-172128152D01*
X60887618Y-172128152D02*
X61078094Y-172128152D01*
X61078094Y-172128152D02*
X61173332Y-172175771D01*
X61173332Y-172175771D02*
X61220951Y-172271009D01*
X61220951Y-172271009D02*
X61220951Y-172366247D01*
X61220951Y-172366247D02*
X60744761Y-172461485D01*
X61649523Y-172128152D02*
X61649523Y-172794819D01*
X61649523Y-172223390D02*
X61697142Y-172175771D01*
X61697142Y-172175771D02*
X61792380Y-172128152D01*
X61792380Y-172128152D02*
X61935237Y-172128152D01*
X61935237Y-172128152D02*
X62030475Y-172175771D01*
X62030475Y-172175771D02*
X62078094Y-172271009D01*
X62078094Y-172271009D02*
X62078094Y-172794819D01*
X62506666Y-172747200D02*
X62601904Y-172794819D01*
X62601904Y-172794819D02*
X62792380Y-172794819D01*
X62792380Y-172794819D02*
X62887618Y-172747200D01*
X62887618Y-172747200D02*
X62935237Y-172651961D01*
X62935237Y-172651961D02*
X62935237Y-172604342D01*
X62935237Y-172604342D02*
X62887618Y-172509104D01*
X62887618Y-172509104D02*
X62792380Y-172461485D01*
X62792380Y-172461485D02*
X62649523Y-172461485D01*
X62649523Y-172461485D02*
X62554285Y-172413866D01*
X62554285Y-172413866D02*
X62506666Y-172318628D01*
X62506666Y-172318628D02*
X62506666Y-172271009D01*
X62506666Y-172271009D02*
X62554285Y-172175771D01*
X62554285Y-172175771D02*
X62649523Y-172128152D01*
X62649523Y-172128152D02*
X62792380Y-172128152D01*
X62792380Y-172128152D02*
X62887618Y-172175771D01*
X63506666Y-172794819D02*
X63411428Y-172747200D01*
X63411428Y-172747200D02*
X63363809Y-172699580D01*
X63363809Y-172699580D02*
X63316190Y-172604342D01*
X63316190Y-172604342D02*
X63316190Y-172318628D01*
X63316190Y-172318628D02*
X63363809Y-172223390D01*
X63363809Y-172223390D02*
X63411428Y-172175771D01*
X63411428Y-172175771D02*
X63506666Y-172128152D01*
X63506666Y-172128152D02*
X63649523Y-172128152D01*
X63649523Y-172128152D02*
X63744761Y-172175771D01*
X63744761Y-172175771D02*
X63792380Y-172223390D01*
X63792380Y-172223390D02*
X63839999Y-172318628D01*
X63839999Y-172318628D02*
X63839999Y-172604342D01*
X63839999Y-172604342D02*
X63792380Y-172699580D01*
X63792380Y-172699580D02*
X63744761Y-172747200D01*
X63744761Y-172747200D02*
X63649523Y-172794819D01*
X63649523Y-172794819D02*
X63506666Y-172794819D01*
X64268571Y-172794819D02*
X64268571Y-172128152D01*
X64268571Y-172318628D02*
X64316190Y-172223390D01*
X64316190Y-172223390D02*
X64363809Y-172175771D01*
X64363809Y-172175771D02*
X64459047Y-172128152D01*
X64459047Y-172128152D02*
X64554285Y-172128152D01*
X65601905Y-171890057D02*
X65649524Y-171842438D01*
X65649524Y-171842438D02*
X65744762Y-171794819D01*
X65744762Y-171794819D02*
X65982857Y-171794819D01*
X65982857Y-171794819D02*
X66078095Y-171842438D01*
X66078095Y-171842438D02*
X66125714Y-171890057D01*
X66125714Y-171890057D02*
X66173333Y-171985295D01*
X66173333Y-171985295D02*
X66173333Y-172080533D01*
X66173333Y-172080533D02*
X66125714Y-172223390D01*
X66125714Y-172223390D02*
X65554286Y-172794819D01*
X65554286Y-172794819D02*
X66173333Y-172794819D01*
X67030476Y-172128152D02*
X67030476Y-172794819D01*
X66792381Y-171747200D02*
X66554286Y-172461485D01*
X66554286Y-172461485D02*
X67173333Y-172461485D01*
X67744762Y-171794819D02*
X67840000Y-171794819D01*
X67840000Y-171794819D02*
X67935238Y-171842438D01*
X67935238Y-171842438D02*
X67982857Y-171890057D01*
X67982857Y-171890057D02*
X68030476Y-171985295D01*
X68030476Y-171985295D02*
X68078095Y-172175771D01*
X68078095Y-172175771D02*
X68078095Y-172413866D01*
X68078095Y-172413866D02*
X68030476Y-172604342D01*
X68030476Y-172604342D02*
X67982857Y-172699580D01*
X67982857Y-172699580D02*
X67935238Y-172747200D01*
X67935238Y-172747200D02*
X67840000Y-172794819D01*
X67840000Y-172794819D02*
X67744762Y-172794819D01*
X67744762Y-172794819D02*
X67649524Y-172747200D01*
X67649524Y-172747200D02*
X67601905Y-172699580D01*
X67601905Y-172699580D02*
X67554286Y-172604342D01*
X67554286Y-172604342D02*
X67506667Y-172413866D01*
X67506667Y-172413866D02*
X67506667Y-172175771D01*
X67506667Y-172175771D02*
X67554286Y-171985295D01*
X67554286Y-171985295D02*
X67601905Y-171890057D01*
X67601905Y-171890057D02*
X67649524Y-171842438D01*
X67649524Y-171842438D02*
X67744762Y-171794819D01*
X68506667Y-172413866D02*
X69268572Y-172413866D01*
X69649524Y-171794819D02*
X70268571Y-171794819D01*
X70268571Y-171794819D02*
X69935238Y-172175771D01*
X69935238Y-172175771D02*
X70078095Y-172175771D01*
X70078095Y-172175771D02*
X70173333Y-172223390D01*
X70173333Y-172223390D02*
X70220952Y-172271009D01*
X70220952Y-172271009D02*
X70268571Y-172366247D01*
X70268571Y-172366247D02*
X70268571Y-172604342D01*
X70268571Y-172604342D02*
X70220952Y-172699580D01*
X70220952Y-172699580D02*
X70173333Y-172747200D01*
X70173333Y-172747200D02*
X70078095Y-172794819D01*
X70078095Y-172794819D02*
X69792381Y-172794819D01*
X69792381Y-172794819D02*
X69697143Y-172747200D01*
X69697143Y-172747200D02*
X69649524Y-172699580D01*
X70601905Y-171794819D02*
X71268571Y-171794819D01*
X71268571Y-171794819D02*
X70840000Y-172794819D01*
X71840000Y-171794819D02*
X71935238Y-171794819D01*
X71935238Y-171794819D02*
X72030476Y-171842438D01*
X72030476Y-171842438D02*
X72078095Y-171890057D01*
X72078095Y-171890057D02*
X72125714Y-171985295D01*
X72125714Y-171985295D02*
X72173333Y-172175771D01*
X72173333Y-172175771D02*
X72173333Y-172413866D01*
X72173333Y-172413866D02*
X72125714Y-172604342D01*
X72125714Y-172604342D02*
X72078095Y-172699580D01*
X72078095Y-172699580D02*
X72030476Y-172747200D01*
X72030476Y-172747200D02*
X71935238Y-172794819D01*
X71935238Y-172794819D02*
X71840000Y-172794819D01*
X71840000Y-172794819D02*
X71744762Y-172747200D01*
X71744762Y-172747200D02*
X71697143Y-172699580D01*
X71697143Y-172699580D02*
X71649524Y-172604342D01*
X71649524Y-172604342D02*
X71601905Y-172413866D01*
X71601905Y-172413866D02*
X71601905Y-172175771D01*
X71601905Y-172175771D02*
X71649524Y-171985295D01*
X71649524Y-171985295D02*
X71697143Y-171890057D01*
X71697143Y-171890057D02*
X71744762Y-171842438D01*
X71744762Y-171842438D02*
X71840000Y-171794819D01*
X72601905Y-172128152D02*
X72601905Y-172794819D01*
X72601905Y-172223390D02*
X72649524Y-172175771D01*
X72649524Y-172175771D02*
X72744762Y-172128152D01*
X72744762Y-172128152D02*
X72887619Y-172128152D01*
X72887619Y-172128152D02*
X72982857Y-172175771D01*
X72982857Y-172175771D02*
X73030476Y-172271009D01*
X73030476Y-172271009D02*
X73030476Y-172794819D01*
X73506667Y-172794819D02*
X73506667Y-172128152D01*
X73506667Y-172223390D02*
X73554286Y-172175771D01*
X73554286Y-172175771D02*
X73649524Y-172128152D01*
X73649524Y-172128152D02*
X73792381Y-172128152D01*
X73792381Y-172128152D02*
X73887619Y-172175771D01*
X73887619Y-172175771D02*
X73935238Y-172271009D01*
X73935238Y-172271009D02*
X73935238Y-172794819D01*
X73935238Y-172271009D02*
X73982857Y-172175771D01*
X73982857Y-172175771D02*
X74078095Y-172128152D01*
X74078095Y-172128152D02*
X74220952Y-172128152D01*
X74220952Y-172128152D02*
X74316191Y-172175771D01*
X74316191Y-172175771D02*
X74363810Y-172271009D01*
X74363810Y-172271009D02*
X74363810Y-172794819D01*
X76125714Y-171842438D02*
X76030476Y-171794819D01*
X76030476Y-171794819D02*
X75887619Y-171794819D01*
X75887619Y-171794819D02*
X75744762Y-171842438D01*
X75744762Y-171842438D02*
X75649524Y-171937676D01*
X75649524Y-171937676D02*
X75601905Y-172032914D01*
X75601905Y-172032914D02*
X75554286Y-172223390D01*
X75554286Y-172223390D02*
X75554286Y-172366247D01*
X75554286Y-172366247D02*
X75601905Y-172556723D01*
X75601905Y-172556723D02*
X75649524Y-172651961D01*
X75649524Y-172651961D02*
X75744762Y-172747200D01*
X75744762Y-172747200D02*
X75887619Y-172794819D01*
X75887619Y-172794819D02*
X75982857Y-172794819D01*
X75982857Y-172794819D02*
X76125714Y-172747200D01*
X76125714Y-172747200D02*
X76173333Y-172699580D01*
X76173333Y-172699580D02*
X76173333Y-172366247D01*
X76173333Y-172366247D02*
X75982857Y-172366247D01*
X76601905Y-171794819D02*
X76601905Y-172604342D01*
X76601905Y-172604342D02*
X76649524Y-172699580D01*
X76649524Y-172699580D02*
X76697143Y-172747200D01*
X76697143Y-172747200D02*
X76792381Y-172794819D01*
X76792381Y-172794819D02*
X76982857Y-172794819D01*
X76982857Y-172794819D02*
X77078095Y-172747200D01*
X77078095Y-172747200D02*
X77125714Y-172699580D01*
X77125714Y-172699580D02*
X77173333Y-172604342D01*
X77173333Y-172604342D02*
X77173333Y-171794819D01*
X77506667Y-171794819D02*
X77840000Y-172794819D01*
X77840000Y-172794819D02*
X78173333Y-171794819D01*
X78459048Y-172509104D02*
X78935238Y-172509104D01*
X78363810Y-172794819D02*
X78697143Y-171794819D01*
X78697143Y-171794819D02*
X79030476Y-172794819D01*
X79363810Y-172413866D02*
X80125715Y-172413866D01*
X80554286Y-172747200D02*
X80697143Y-172794819D01*
X80697143Y-172794819D02*
X80935238Y-172794819D01*
X80935238Y-172794819D02*
X81030476Y-172747200D01*
X81030476Y-172747200D02*
X81078095Y-172699580D01*
X81078095Y-172699580D02*
X81125714Y-172604342D01*
X81125714Y-172604342D02*
X81125714Y-172509104D01*
X81125714Y-172509104D02*
X81078095Y-172413866D01*
X81078095Y-172413866D02*
X81030476Y-172366247D01*
X81030476Y-172366247D02*
X80935238Y-172318628D01*
X80935238Y-172318628D02*
X80744762Y-172271009D01*
X80744762Y-172271009D02*
X80649524Y-172223390D01*
X80649524Y-172223390D02*
X80601905Y-172175771D01*
X80601905Y-172175771D02*
X80554286Y-172080533D01*
X80554286Y-172080533D02*
X80554286Y-171985295D01*
X80554286Y-171985295D02*
X80601905Y-171890057D01*
X80601905Y-171890057D02*
X80649524Y-171842438D01*
X80649524Y-171842438D02*
X80744762Y-171794819D01*
X80744762Y-171794819D02*
X80982857Y-171794819D01*
X80982857Y-171794819D02*
X81125714Y-171842438D01*
X82078095Y-172794819D02*
X81506667Y-172794819D01*
X81792381Y-172794819D02*
X81792381Y-171794819D01*
X81792381Y-171794819D02*
X81697143Y-171937676D01*
X81697143Y-171937676D02*
X81601905Y-172032914D01*
X81601905Y-172032914D02*
X81506667Y-172080533D01*
X82459048Y-171890057D02*
X82506667Y-171842438D01*
X82506667Y-171842438D02*
X82601905Y-171794819D01*
X82601905Y-171794819D02*
X82840000Y-171794819D01*
X82840000Y-171794819D02*
X82935238Y-171842438D01*
X82935238Y-171842438D02*
X82982857Y-171890057D01*
X82982857Y-171890057D02*
X83030476Y-171985295D01*
X83030476Y-171985295D02*
X83030476Y-172080533D01*
X83030476Y-172080533D02*
X82982857Y-172223390D01*
X82982857Y-172223390D02*
X82411429Y-172794819D01*
X82411429Y-172794819D02*
X83030476Y-172794819D01*
X83411429Y-172747200D02*
X83554286Y-172794819D01*
X83554286Y-172794819D02*
X83792381Y-172794819D01*
X83792381Y-172794819D02*
X83887619Y-172747200D01*
X83887619Y-172747200D02*
X83935238Y-172699580D01*
X83935238Y-172699580D02*
X83982857Y-172604342D01*
X83982857Y-172604342D02*
X83982857Y-172509104D01*
X83982857Y-172509104D02*
X83935238Y-172413866D01*
X83935238Y-172413866D02*
X83887619Y-172366247D01*
X83887619Y-172366247D02*
X83792381Y-172318628D01*
X83792381Y-172318628D02*
X83601905Y-172271009D01*
X83601905Y-172271009D02*
X83506667Y-172223390D01*
X83506667Y-172223390D02*
X83459048Y-172175771D01*
X83459048Y-172175771D02*
X83411429Y-172080533D01*
X83411429Y-172080533D02*
X83411429Y-171985295D01*
X83411429Y-171985295D02*
X83459048Y-171890057D01*
X83459048Y-171890057D02*
X83506667Y-171842438D01*
X83506667Y-171842438D02*
X83601905Y-171794819D01*
X83601905Y-171794819D02*
X83840000Y-171794819D01*
X83840000Y-171794819D02*
X83982857Y-171842438D01*
X84411429Y-172794819D02*
X84411429Y-171794819D01*
X84411429Y-171794819D02*
X84649524Y-171794819D01*
X84649524Y-171794819D02*
X84792381Y-171842438D01*
X84792381Y-171842438D02*
X84887619Y-171937676D01*
X84887619Y-171937676D02*
X84935238Y-172032914D01*
X84935238Y-172032914D02*
X84982857Y-172223390D01*
X84982857Y-172223390D02*
X84982857Y-172366247D01*
X84982857Y-172366247D02*
X84935238Y-172556723D01*
X84935238Y-172556723D02*
X84887619Y-172651961D01*
X84887619Y-172651961D02*
X84792381Y-172747200D01*
X84792381Y-172747200D02*
X84649524Y-172794819D01*
X84649524Y-172794819D02*
X84411429Y-172794819D01*
X86078096Y-171794819D02*
X86697143Y-171794819D01*
X86697143Y-171794819D02*
X86363810Y-172175771D01*
X86363810Y-172175771D02*
X86506667Y-172175771D01*
X86506667Y-172175771D02*
X86601905Y-172223390D01*
X86601905Y-172223390D02*
X86649524Y-172271009D01*
X86649524Y-172271009D02*
X86697143Y-172366247D01*
X86697143Y-172366247D02*
X86697143Y-172604342D01*
X86697143Y-172604342D02*
X86649524Y-172699580D01*
X86649524Y-172699580D02*
X86601905Y-172747200D01*
X86601905Y-172747200D02*
X86506667Y-172794819D01*
X86506667Y-172794819D02*
X86220953Y-172794819D01*
X86220953Y-172794819D02*
X86125715Y-172747200D01*
X86125715Y-172747200D02*
X86078096Y-172699580D01*
X87601905Y-171794819D02*
X87125715Y-171794819D01*
X87125715Y-171794819D02*
X87078096Y-172271009D01*
X87078096Y-172271009D02*
X87125715Y-172223390D01*
X87125715Y-172223390D02*
X87220953Y-172175771D01*
X87220953Y-172175771D02*
X87459048Y-172175771D01*
X87459048Y-172175771D02*
X87554286Y-172223390D01*
X87554286Y-172223390D02*
X87601905Y-172271009D01*
X87601905Y-172271009D02*
X87649524Y-172366247D01*
X87649524Y-172366247D02*
X87649524Y-172604342D01*
X87649524Y-172604342D02*
X87601905Y-172699580D01*
X87601905Y-172699580D02*
X87554286Y-172747200D01*
X87554286Y-172747200D02*
X87459048Y-172794819D01*
X87459048Y-172794819D02*
X87220953Y-172794819D01*
X87220953Y-172794819D02*
X87125715Y-172747200D01*
X87125715Y-172747200D02*
X87078096Y-172699580D01*
X88030477Y-171890057D02*
X88078096Y-171842438D01*
X88078096Y-171842438D02*
X88173334Y-171794819D01*
X88173334Y-171794819D02*
X88411429Y-171794819D01*
X88411429Y-171794819D02*
X88506667Y-171842438D01*
X88506667Y-171842438D02*
X88554286Y-171890057D01*
X88554286Y-171890057D02*
X88601905Y-171985295D01*
X88601905Y-171985295D02*
X88601905Y-172080533D01*
X88601905Y-172080533D02*
X88554286Y-172223390D01*
X88554286Y-172223390D02*
X87982858Y-172794819D01*
X87982858Y-172794819D02*
X88601905Y-172794819D01*
X89173334Y-172223390D02*
X89078096Y-172175771D01*
X89078096Y-172175771D02*
X89030477Y-172128152D01*
X89030477Y-172128152D02*
X88982858Y-172032914D01*
X88982858Y-172032914D02*
X88982858Y-171985295D01*
X88982858Y-171985295D02*
X89030477Y-171890057D01*
X89030477Y-171890057D02*
X89078096Y-171842438D01*
X89078096Y-171842438D02*
X89173334Y-171794819D01*
X89173334Y-171794819D02*
X89363810Y-171794819D01*
X89363810Y-171794819D02*
X89459048Y-171842438D01*
X89459048Y-171842438D02*
X89506667Y-171890057D01*
X89506667Y-171890057D02*
X89554286Y-171985295D01*
X89554286Y-171985295D02*
X89554286Y-172032914D01*
X89554286Y-172032914D02*
X89506667Y-172128152D01*
X89506667Y-172128152D02*
X89459048Y-172175771D01*
X89459048Y-172175771D02*
X89363810Y-172223390D01*
X89363810Y-172223390D02*
X89173334Y-172223390D01*
X89173334Y-172223390D02*
X89078096Y-172271009D01*
X89078096Y-172271009D02*
X89030477Y-172318628D01*
X89030477Y-172318628D02*
X88982858Y-172413866D01*
X88982858Y-172413866D02*
X88982858Y-172604342D01*
X88982858Y-172604342D02*
X89030477Y-172699580D01*
X89030477Y-172699580D02*
X89078096Y-172747200D01*
X89078096Y-172747200D02*
X89173334Y-172794819D01*
X89173334Y-172794819D02*
X89363810Y-172794819D01*
X89363810Y-172794819D02*
X89459048Y-172747200D01*
X89459048Y-172747200D02*
X89506667Y-172699580D01*
X89506667Y-172699580D02*
X89554286Y-172604342D01*
X89554286Y-172604342D02*
X89554286Y-172413866D01*
X89554286Y-172413866D02*
X89506667Y-172318628D01*
X89506667Y-172318628D02*
X89459048Y-172271009D01*
X89459048Y-172271009D02*
X89363810Y-172223390D01*
X97568095Y-144294819D02*
X97568095Y-145104342D01*
X97568095Y-145104342D02*
X97615714Y-145199580D01*
X97615714Y-145199580D02*
X97663333Y-145247200D01*
X97663333Y-145247200D02*
X97758571Y-145294819D01*
X97758571Y-145294819D02*
X97949047Y-145294819D01*
X97949047Y-145294819D02*
X98044285Y-145247200D01*
X98044285Y-145247200D02*
X98091904Y-145199580D01*
X98091904Y-145199580D02*
X98139523Y-145104342D01*
X98139523Y-145104342D02*
X98139523Y-144294819D01*
X99091904Y-144294819D02*
X98615714Y-144294819D01*
X98615714Y-144294819D02*
X98568095Y-144771009D01*
X98568095Y-144771009D02*
X98615714Y-144723390D01*
X98615714Y-144723390D02*
X98710952Y-144675771D01*
X98710952Y-144675771D02*
X98949047Y-144675771D01*
X98949047Y-144675771D02*
X99044285Y-144723390D01*
X99044285Y-144723390D02*
X99091904Y-144771009D01*
X99091904Y-144771009D02*
X99139523Y-144866247D01*
X99139523Y-144866247D02*
X99139523Y-145104342D01*
X99139523Y-145104342D02*
X99091904Y-145199580D01*
X99091904Y-145199580D02*
X99044285Y-145247200D01*
X99044285Y-145247200D02*
X98949047Y-145294819D01*
X98949047Y-145294819D02*
X98710952Y-145294819D01*
X98710952Y-145294819D02*
X98615714Y-145247200D01*
X98615714Y-145247200D02*
X98568095Y-145199580D01*
X92458333Y-142129580D02*
X92410714Y-142177200D01*
X92410714Y-142177200D02*
X92267857Y-142224819D01*
X92267857Y-142224819D02*
X92172619Y-142224819D01*
X92172619Y-142224819D02*
X92029762Y-142177200D01*
X92029762Y-142177200D02*
X91934524Y-142081961D01*
X91934524Y-142081961D02*
X91886905Y-141986723D01*
X91886905Y-141986723D02*
X91839286Y-141796247D01*
X91839286Y-141796247D02*
X91839286Y-141653390D01*
X91839286Y-141653390D02*
X91886905Y-141462914D01*
X91886905Y-141462914D02*
X91934524Y-141367676D01*
X91934524Y-141367676D02*
X92029762Y-141272438D01*
X92029762Y-141272438D02*
X92172619Y-141224819D01*
X92172619Y-141224819D02*
X92267857Y-141224819D01*
X92267857Y-141224819D02*
X92410714Y-141272438D01*
X92410714Y-141272438D02*
X92458333Y-141320057D01*
X93029762Y-141653390D02*
X92934524Y-141605771D01*
X92934524Y-141605771D02*
X92886905Y-141558152D01*
X92886905Y-141558152D02*
X92839286Y-141462914D01*
X92839286Y-141462914D02*
X92839286Y-141415295D01*
X92839286Y-141415295D02*
X92886905Y-141320057D01*
X92886905Y-141320057D02*
X92934524Y-141272438D01*
X92934524Y-141272438D02*
X93029762Y-141224819D01*
X93029762Y-141224819D02*
X93220238Y-141224819D01*
X93220238Y-141224819D02*
X93315476Y-141272438D01*
X93315476Y-141272438D02*
X93363095Y-141320057D01*
X93363095Y-141320057D02*
X93410714Y-141415295D01*
X93410714Y-141415295D02*
X93410714Y-141462914D01*
X93410714Y-141462914D02*
X93363095Y-141558152D01*
X93363095Y-141558152D02*
X93315476Y-141605771D01*
X93315476Y-141605771D02*
X93220238Y-141653390D01*
X93220238Y-141653390D02*
X93029762Y-141653390D01*
X93029762Y-141653390D02*
X92934524Y-141701009D01*
X92934524Y-141701009D02*
X92886905Y-141748628D01*
X92886905Y-141748628D02*
X92839286Y-141843866D01*
X92839286Y-141843866D02*
X92839286Y-142034342D01*
X92839286Y-142034342D02*
X92886905Y-142129580D01*
X92886905Y-142129580D02*
X92934524Y-142177200D01*
X92934524Y-142177200D02*
X93029762Y-142224819D01*
X93029762Y-142224819D02*
X93220238Y-142224819D01*
X93220238Y-142224819D02*
X93315476Y-142177200D01*
X93315476Y-142177200D02*
X93363095Y-142129580D01*
X93363095Y-142129580D02*
X93410714Y-142034342D01*
X93410714Y-142034342D02*
X93410714Y-141843866D01*
X93410714Y-141843866D02*
X93363095Y-141748628D01*
X93363095Y-141748628D02*
X93315476Y-141701009D01*
X93315476Y-141701009D02*
X93220238Y-141653390D01*
X107982142Y-140039580D02*
X107934523Y-140087200D01*
X107934523Y-140087200D02*
X107791666Y-140134819D01*
X107791666Y-140134819D02*
X107696428Y-140134819D01*
X107696428Y-140134819D02*
X107553571Y-140087200D01*
X107553571Y-140087200D02*
X107458333Y-139991961D01*
X107458333Y-139991961D02*
X107410714Y-139896723D01*
X107410714Y-139896723D02*
X107363095Y-139706247D01*
X107363095Y-139706247D02*
X107363095Y-139563390D01*
X107363095Y-139563390D02*
X107410714Y-139372914D01*
X107410714Y-139372914D02*
X107458333Y-139277676D01*
X107458333Y-139277676D02*
X107553571Y-139182438D01*
X107553571Y-139182438D02*
X107696428Y-139134819D01*
X107696428Y-139134819D02*
X107791666Y-139134819D01*
X107791666Y-139134819D02*
X107934523Y-139182438D01*
X107934523Y-139182438D02*
X107982142Y-139230057D01*
X108934523Y-140134819D02*
X108363095Y-140134819D01*
X108648809Y-140134819D02*
X108648809Y-139134819D01*
X108648809Y-139134819D02*
X108553571Y-139277676D01*
X108553571Y-139277676D02*
X108458333Y-139372914D01*
X108458333Y-139372914D02*
X108363095Y-139420533D01*
X109886904Y-140134819D02*
X109315476Y-140134819D01*
X109601190Y-140134819D02*
X109601190Y-139134819D01*
X109601190Y-139134819D02*
X109505952Y-139277676D01*
X109505952Y-139277676D02*
X109410714Y-139372914D01*
X109410714Y-139372914D02*
X109315476Y-139420533D01*
X64166666Y-122667009D02*
X63833333Y-122667009D01*
X63833333Y-123190819D02*
X63833333Y-122190819D01*
X63833333Y-122190819D02*
X64309523Y-122190819D01*
X65023809Y-122667009D02*
X65166666Y-122714628D01*
X65166666Y-122714628D02*
X65214285Y-122762247D01*
X65214285Y-122762247D02*
X65261904Y-122857485D01*
X65261904Y-122857485D02*
X65261904Y-123000342D01*
X65261904Y-123000342D02*
X65214285Y-123095580D01*
X65214285Y-123095580D02*
X65166666Y-123143200D01*
X65166666Y-123143200D02*
X65071428Y-123190819D01*
X65071428Y-123190819D02*
X64690476Y-123190819D01*
X64690476Y-123190819D02*
X64690476Y-122190819D01*
X64690476Y-122190819D02*
X65023809Y-122190819D01*
X65023809Y-122190819D02*
X65119047Y-122238438D01*
X65119047Y-122238438D02*
X65166666Y-122286057D01*
X65166666Y-122286057D02*
X65214285Y-122381295D01*
X65214285Y-122381295D02*
X65214285Y-122476533D01*
X65214285Y-122476533D02*
X65166666Y-122571771D01*
X65166666Y-122571771D02*
X65119047Y-122619390D01*
X65119047Y-122619390D02*
X65023809Y-122667009D01*
X65023809Y-122667009D02*
X64690476Y-122667009D01*
X66214285Y-123190819D02*
X65642857Y-123190819D01*
X65928571Y-123190819D02*
X65928571Y-122190819D01*
X65928571Y-122190819D02*
X65833333Y-122333676D01*
X65833333Y-122333676D02*
X65738095Y-122428914D01*
X65738095Y-122428914D02*
X65642857Y-122476533D01*
X108458333Y-135019580D02*
X108410714Y-135067200D01*
X108410714Y-135067200D02*
X108267857Y-135114819D01*
X108267857Y-135114819D02*
X108172619Y-135114819D01*
X108172619Y-135114819D02*
X108029762Y-135067200D01*
X108029762Y-135067200D02*
X107934524Y-134971961D01*
X107934524Y-134971961D02*
X107886905Y-134876723D01*
X107886905Y-134876723D02*
X107839286Y-134686247D01*
X107839286Y-134686247D02*
X107839286Y-134543390D01*
X107839286Y-134543390D02*
X107886905Y-134352914D01*
X107886905Y-134352914D02*
X107934524Y-134257676D01*
X107934524Y-134257676D02*
X108029762Y-134162438D01*
X108029762Y-134162438D02*
X108172619Y-134114819D01*
X108172619Y-134114819D02*
X108267857Y-134114819D01*
X108267857Y-134114819D02*
X108410714Y-134162438D01*
X108410714Y-134162438D02*
X108458333Y-134210057D01*
X108934524Y-135114819D02*
X109125000Y-135114819D01*
X109125000Y-135114819D02*
X109220238Y-135067200D01*
X109220238Y-135067200D02*
X109267857Y-135019580D01*
X109267857Y-135019580D02*
X109363095Y-134876723D01*
X109363095Y-134876723D02*
X109410714Y-134686247D01*
X109410714Y-134686247D02*
X109410714Y-134305295D01*
X109410714Y-134305295D02*
X109363095Y-134210057D01*
X109363095Y-134210057D02*
X109315476Y-134162438D01*
X109315476Y-134162438D02*
X109220238Y-134114819D01*
X109220238Y-134114819D02*
X109029762Y-134114819D01*
X109029762Y-134114819D02*
X108934524Y-134162438D01*
X108934524Y-134162438D02*
X108886905Y-134210057D01*
X108886905Y-134210057D02*
X108839286Y-134305295D01*
X108839286Y-134305295D02*
X108839286Y-134543390D01*
X108839286Y-134543390D02*
X108886905Y-134638628D01*
X108886905Y-134638628D02*
X108934524Y-134686247D01*
X108934524Y-134686247D02*
X109029762Y-134733866D01*
X109029762Y-134733866D02*
X109220238Y-134733866D01*
X109220238Y-134733866D02*
X109315476Y-134686247D01*
X109315476Y-134686247D02*
X109363095Y-134638628D01*
X109363095Y-134638628D02*
X109410714Y-134543390D01*
X113800833Y-126169580D02*
X113753214Y-126217200D01*
X113753214Y-126217200D02*
X113610357Y-126264819D01*
X113610357Y-126264819D02*
X113515119Y-126264819D01*
X113515119Y-126264819D02*
X113372262Y-126217200D01*
X113372262Y-126217200D02*
X113277024Y-126121961D01*
X113277024Y-126121961D02*
X113229405Y-126026723D01*
X113229405Y-126026723D02*
X113181786Y-125836247D01*
X113181786Y-125836247D02*
X113181786Y-125693390D01*
X113181786Y-125693390D02*
X113229405Y-125502914D01*
X113229405Y-125502914D02*
X113277024Y-125407676D01*
X113277024Y-125407676D02*
X113372262Y-125312438D01*
X113372262Y-125312438D02*
X113515119Y-125264819D01*
X113515119Y-125264819D02*
X113610357Y-125264819D01*
X113610357Y-125264819D02*
X113753214Y-125312438D01*
X113753214Y-125312438D02*
X113800833Y-125360057D01*
X114657976Y-125598152D02*
X114657976Y-126264819D01*
X114419881Y-125217200D02*
X114181786Y-125931485D01*
X114181786Y-125931485D02*
X114800833Y-125931485D01*
X63666667Y-105307200D02*
X63809524Y-105354819D01*
X63809524Y-105354819D02*
X64047619Y-105354819D01*
X64047619Y-105354819D02*
X64142857Y-105307200D01*
X64142857Y-105307200D02*
X64190476Y-105259580D01*
X64190476Y-105259580D02*
X64238095Y-105164342D01*
X64238095Y-105164342D02*
X64238095Y-105069104D01*
X64238095Y-105069104D02*
X64190476Y-104973866D01*
X64190476Y-104973866D02*
X64142857Y-104926247D01*
X64142857Y-104926247D02*
X64047619Y-104878628D01*
X64047619Y-104878628D02*
X63857143Y-104831009D01*
X63857143Y-104831009D02*
X63761905Y-104783390D01*
X63761905Y-104783390D02*
X63714286Y-104735771D01*
X63714286Y-104735771D02*
X63666667Y-104640533D01*
X63666667Y-104640533D02*
X63666667Y-104545295D01*
X63666667Y-104545295D02*
X63714286Y-104450057D01*
X63714286Y-104450057D02*
X63761905Y-104402438D01*
X63761905Y-104402438D02*
X63857143Y-104354819D01*
X63857143Y-104354819D02*
X64095238Y-104354819D01*
X64095238Y-104354819D02*
X64238095Y-104402438D01*
X64571429Y-104354819D02*
X64809524Y-105354819D01*
X64809524Y-105354819D02*
X65000000Y-104640533D01*
X65000000Y-104640533D02*
X65190476Y-105354819D01*
X65190476Y-105354819D02*
X65428572Y-104354819D01*
X65761905Y-104450057D02*
X65809524Y-104402438D01*
X65809524Y-104402438D02*
X65904762Y-104354819D01*
X65904762Y-104354819D02*
X66142857Y-104354819D01*
X66142857Y-104354819D02*
X66238095Y-104402438D01*
X66238095Y-104402438D02*
X66285714Y-104450057D01*
X66285714Y-104450057D02*
X66333333Y-104545295D01*
X66333333Y-104545295D02*
X66333333Y-104640533D01*
X66333333Y-104640533D02*
X66285714Y-104783390D01*
X66285714Y-104783390D02*
X65714286Y-105354819D01*
X65714286Y-105354819D02*
X66333333Y-105354819D01*
X103916667Y-105607200D02*
X104059524Y-105654819D01*
X104059524Y-105654819D02*
X104297619Y-105654819D01*
X104297619Y-105654819D02*
X104392857Y-105607200D01*
X104392857Y-105607200D02*
X104440476Y-105559580D01*
X104440476Y-105559580D02*
X104488095Y-105464342D01*
X104488095Y-105464342D02*
X104488095Y-105369104D01*
X104488095Y-105369104D02*
X104440476Y-105273866D01*
X104440476Y-105273866D02*
X104392857Y-105226247D01*
X104392857Y-105226247D02*
X104297619Y-105178628D01*
X104297619Y-105178628D02*
X104107143Y-105131009D01*
X104107143Y-105131009D02*
X104011905Y-105083390D01*
X104011905Y-105083390D02*
X103964286Y-105035771D01*
X103964286Y-105035771D02*
X103916667Y-104940533D01*
X103916667Y-104940533D02*
X103916667Y-104845295D01*
X103916667Y-104845295D02*
X103964286Y-104750057D01*
X103964286Y-104750057D02*
X104011905Y-104702438D01*
X104011905Y-104702438D02*
X104107143Y-104654819D01*
X104107143Y-104654819D02*
X104345238Y-104654819D01*
X104345238Y-104654819D02*
X104488095Y-104702438D01*
X104821429Y-104654819D02*
X105059524Y-105654819D01*
X105059524Y-105654819D02*
X105250000Y-104940533D01*
X105250000Y-104940533D02*
X105440476Y-105654819D01*
X105440476Y-105654819D02*
X105678572Y-104654819D01*
X106583333Y-105654819D02*
X106011905Y-105654819D01*
X106297619Y-105654819D02*
X106297619Y-104654819D01*
X106297619Y-104654819D02*
X106202381Y-104797676D01*
X106202381Y-104797676D02*
X106107143Y-104892914D01*
X106107143Y-104892914D02*
X106011905Y-104940533D01*
X99665833Y-131769580D02*
X99618214Y-131817200D01*
X99618214Y-131817200D02*
X99475357Y-131864819D01*
X99475357Y-131864819D02*
X99380119Y-131864819D01*
X99380119Y-131864819D02*
X99237262Y-131817200D01*
X99237262Y-131817200D02*
X99142024Y-131721961D01*
X99142024Y-131721961D02*
X99094405Y-131626723D01*
X99094405Y-131626723D02*
X99046786Y-131436247D01*
X99046786Y-131436247D02*
X99046786Y-131293390D01*
X99046786Y-131293390D02*
X99094405Y-131102914D01*
X99094405Y-131102914D02*
X99142024Y-131007676D01*
X99142024Y-131007676D02*
X99237262Y-130912438D01*
X99237262Y-130912438D02*
X99380119Y-130864819D01*
X99380119Y-130864819D02*
X99475357Y-130864819D01*
X99475357Y-130864819D02*
X99618214Y-130912438D01*
X99618214Y-130912438D02*
X99665833Y-130960057D01*
X99999167Y-130864819D02*
X100665833Y-130864819D01*
X100665833Y-130864819D02*
X100237262Y-131864819D01*
X99728665Y-127709580D02*
X99681046Y-127757200D01*
X99681046Y-127757200D02*
X99538189Y-127804819D01*
X99538189Y-127804819D02*
X99442951Y-127804819D01*
X99442951Y-127804819D02*
X99300094Y-127757200D01*
X99300094Y-127757200D02*
X99204856Y-127661961D01*
X99204856Y-127661961D02*
X99157237Y-127566723D01*
X99157237Y-127566723D02*
X99109618Y-127376247D01*
X99109618Y-127376247D02*
X99109618Y-127233390D01*
X99109618Y-127233390D02*
X99157237Y-127042914D01*
X99157237Y-127042914D02*
X99204856Y-126947676D01*
X99204856Y-126947676D02*
X99300094Y-126852438D01*
X99300094Y-126852438D02*
X99442951Y-126804819D01*
X99442951Y-126804819D02*
X99538189Y-126804819D01*
X99538189Y-126804819D02*
X99681046Y-126852438D01*
X99681046Y-126852438D02*
X99728665Y-126900057D01*
X100109618Y-126900057D02*
X100157237Y-126852438D01*
X100157237Y-126852438D02*
X100252475Y-126804819D01*
X100252475Y-126804819D02*
X100490570Y-126804819D01*
X100490570Y-126804819D02*
X100585808Y-126852438D01*
X100585808Y-126852438D02*
X100633427Y-126900057D01*
X100633427Y-126900057D02*
X100681046Y-126995295D01*
X100681046Y-126995295D02*
X100681046Y-127090533D01*
X100681046Y-127090533D02*
X100633427Y-127233390D01*
X100633427Y-127233390D02*
X100061999Y-127804819D01*
X100061999Y-127804819D02*
X100681046Y-127804819D01*
X96415833Y-125994819D02*
X96082500Y-125518628D01*
X95844405Y-125994819D02*
X95844405Y-124994819D01*
X95844405Y-124994819D02*
X96225357Y-124994819D01*
X96225357Y-124994819D02*
X96320595Y-125042438D01*
X96320595Y-125042438D02*
X96368214Y-125090057D01*
X96368214Y-125090057D02*
X96415833Y-125185295D01*
X96415833Y-125185295D02*
X96415833Y-125328152D01*
X96415833Y-125328152D02*
X96368214Y-125423390D01*
X96368214Y-125423390D02*
X96320595Y-125471009D01*
X96320595Y-125471009D02*
X96225357Y-125518628D01*
X96225357Y-125518628D02*
X95844405Y-125518628D01*
X97368214Y-125994819D02*
X96796786Y-125994819D01*
X97082500Y-125994819D02*
X97082500Y-124994819D01*
X97082500Y-124994819D02*
X96987262Y-125137676D01*
X96987262Y-125137676D02*
X96892024Y-125232914D01*
X96892024Y-125232914D02*
X96796786Y-125280533D01*
X108230833Y-129684819D02*
X107754643Y-129684819D01*
X107754643Y-129684819D02*
X107754643Y-128684819D01*
X109087976Y-129684819D02*
X108516548Y-129684819D01*
X108802262Y-129684819D02*
X108802262Y-128684819D01*
X108802262Y-128684819D02*
X108707024Y-128827676D01*
X108707024Y-128827676D02*
X108611786Y-128922914D01*
X108611786Y-128922914D02*
X108516548Y-128970533D01*
X104808333Y-132224819D02*
X104475000Y-131748628D01*
X104236905Y-132224819D02*
X104236905Y-131224819D01*
X104236905Y-131224819D02*
X104617857Y-131224819D01*
X104617857Y-131224819D02*
X104713095Y-131272438D01*
X104713095Y-131272438D02*
X104760714Y-131320057D01*
X104760714Y-131320057D02*
X104808333Y-131415295D01*
X104808333Y-131415295D02*
X104808333Y-131558152D01*
X104808333Y-131558152D02*
X104760714Y-131653390D01*
X104760714Y-131653390D02*
X104713095Y-131701009D01*
X104713095Y-131701009D02*
X104617857Y-131748628D01*
X104617857Y-131748628D02*
X104236905Y-131748628D01*
X105713095Y-131224819D02*
X105236905Y-131224819D01*
X105236905Y-131224819D02*
X105189286Y-131701009D01*
X105189286Y-131701009D02*
X105236905Y-131653390D01*
X105236905Y-131653390D02*
X105332143Y-131605771D01*
X105332143Y-131605771D02*
X105570238Y-131605771D01*
X105570238Y-131605771D02*
X105665476Y-131653390D01*
X105665476Y-131653390D02*
X105713095Y-131701009D01*
X105713095Y-131701009D02*
X105760714Y-131796247D01*
X105760714Y-131796247D02*
X105760714Y-132034342D01*
X105760714Y-132034342D02*
X105713095Y-132129580D01*
X105713095Y-132129580D02*
X105665476Y-132177200D01*
X105665476Y-132177200D02*
X105570238Y-132224819D01*
X105570238Y-132224819D02*
X105332143Y-132224819D01*
X105332143Y-132224819D02*
X105236905Y-132177200D01*
X105236905Y-132177200D02*
X105189286Y-132129580D01*
X99665833Y-129799580D02*
X99618214Y-129847200D01*
X99618214Y-129847200D02*
X99475357Y-129894819D01*
X99475357Y-129894819D02*
X99380119Y-129894819D01*
X99380119Y-129894819D02*
X99237262Y-129847200D01*
X99237262Y-129847200D02*
X99142024Y-129751961D01*
X99142024Y-129751961D02*
X99094405Y-129656723D01*
X99094405Y-129656723D02*
X99046786Y-129466247D01*
X99046786Y-129466247D02*
X99046786Y-129323390D01*
X99046786Y-129323390D02*
X99094405Y-129132914D01*
X99094405Y-129132914D02*
X99142024Y-129037676D01*
X99142024Y-129037676D02*
X99237262Y-128942438D01*
X99237262Y-128942438D02*
X99380119Y-128894819D01*
X99380119Y-128894819D02*
X99475357Y-128894819D01*
X99475357Y-128894819D02*
X99618214Y-128942438D01*
X99618214Y-128942438D02*
X99665833Y-128990057D01*
X100522976Y-128894819D02*
X100332500Y-128894819D01*
X100332500Y-128894819D02*
X100237262Y-128942438D01*
X100237262Y-128942438D02*
X100189643Y-128990057D01*
X100189643Y-128990057D02*
X100094405Y-129132914D01*
X100094405Y-129132914D02*
X100046786Y-129323390D01*
X100046786Y-129323390D02*
X100046786Y-129704342D01*
X100046786Y-129704342D02*
X100094405Y-129799580D01*
X100094405Y-129799580D02*
X100142024Y-129847200D01*
X100142024Y-129847200D02*
X100237262Y-129894819D01*
X100237262Y-129894819D02*
X100427738Y-129894819D01*
X100427738Y-129894819D02*
X100522976Y-129847200D01*
X100522976Y-129847200D02*
X100570595Y-129799580D01*
X100570595Y-129799580D02*
X100618214Y-129704342D01*
X100618214Y-129704342D02*
X100618214Y-129466247D01*
X100618214Y-129466247D02*
X100570595Y-129371009D01*
X100570595Y-129371009D02*
X100522976Y-129323390D01*
X100522976Y-129323390D02*
X100427738Y-129275771D01*
X100427738Y-129275771D02*
X100237262Y-129275771D01*
X100237262Y-129275771D02*
X100142024Y-129323390D01*
X100142024Y-129323390D02*
X100094405Y-129371009D01*
X100094405Y-129371009D02*
X100046786Y-129466247D01*
X97807142Y-135559580D02*
X97759523Y-135607200D01*
X97759523Y-135607200D02*
X97616666Y-135654819D01*
X97616666Y-135654819D02*
X97521428Y-135654819D01*
X97521428Y-135654819D02*
X97378571Y-135607200D01*
X97378571Y-135607200D02*
X97283333Y-135511961D01*
X97283333Y-135511961D02*
X97235714Y-135416723D01*
X97235714Y-135416723D02*
X97188095Y-135226247D01*
X97188095Y-135226247D02*
X97188095Y-135083390D01*
X97188095Y-135083390D02*
X97235714Y-134892914D01*
X97235714Y-134892914D02*
X97283333Y-134797676D01*
X97283333Y-134797676D02*
X97378571Y-134702438D01*
X97378571Y-134702438D02*
X97521428Y-134654819D01*
X97521428Y-134654819D02*
X97616666Y-134654819D01*
X97616666Y-134654819D02*
X97759523Y-134702438D01*
X97759523Y-134702438D02*
X97807142Y-134750057D01*
X98759523Y-135654819D02*
X98188095Y-135654819D01*
X98473809Y-135654819D02*
X98473809Y-134654819D01*
X98473809Y-134654819D02*
X98378571Y-134797676D01*
X98378571Y-134797676D02*
X98283333Y-134892914D01*
X98283333Y-134892914D02*
X98188095Y-134940533D01*
X99140476Y-134750057D02*
X99188095Y-134702438D01*
X99188095Y-134702438D02*
X99283333Y-134654819D01*
X99283333Y-134654819D02*
X99521428Y-134654819D01*
X99521428Y-134654819D02*
X99616666Y-134702438D01*
X99616666Y-134702438D02*
X99664285Y-134750057D01*
X99664285Y-134750057D02*
X99711904Y-134845295D01*
X99711904Y-134845295D02*
X99711904Y-134940533D01*
X99711904Y-134940533D02*
X99664285Y-135083390D01*
X99664285Y-135083390D02*
X99092857Y-135654819D01*
X99092857Y-135654819D02*
X99711904Y-135654819D01*
X81438095Y-125954819D02*
X81438095Y-126764342D01*
X81438095Y-126764342D02*
X81485714Y-126859580D01*
X81485714Y-126859580D02*
X81533333Y-126907200D01*
X81533333Y-126907200D02*
X81628571Y-126954819D01*
X81628571Y-126954819D02*
X81819047Y-126954819D01*
X81819047Y-126954819D02*
X81914285Y-126907200D01*
X81914285Y-126907200D02*
X81961904Y-126859580D01*
X81961904Y-126859580D02*
X82009523Y-126764342D01*
X82009523Y-126764342D02*
X82009523Y-125954819D01*
X82390476Y-125954819D02*
X83009523Y-125954819D01*
X83009523Y-125954819D02*
X82676190Y-126335771D01*
X82676190Y-126335771D02*
X82819047Y-126335771D01*
X82819047Y-126335771D02*
X82914285Y-126383390D01*
X82914285Y-126383390D02*
X82961904Y-126431009D01*
X82961904Y-126431009D02*
X83009523Y-126526247D01*
X83009523Y-126526247D02*
X83009523Y-126764342D01*
X83009523Y-126764342D02*
X82961904Y-126859580D01*
X82961904Y-126859580D02*
X82914285Y-126907200D01*
X82914285Y-126907200D02*
X82819047Y-126954819D01*
X82819047Y-126954819D02*
X82533333Y-126954819D01*
X82533333Y-126954819D02*
X82438095Y-126907200D01*
X82438095Y-126907200D02*
X82390476Y-126859580D01*
X107454819Y-169733333D02*
X108169104Y-169733333D01*
X108169104Y-169733333D02*
X108311961Y-169780952D01*
X108311961Y-169780952D02*
X108407200Y-169876190D01*
X108407200Y-169876190D02*
X108454819Y-170019047D01*
X108454819Y-170019047D02*
X108454819Y-170114285D01*
X107788152Y-168828571D02*
X108454819Y-168828571D01*
X107407200Y-169066666D02*
X108121485Y-169304761D01*
X108121485Y-169304761D02*
X108121485Y-168685714D01*
X82714284Y-166769104D02*
X83190474Y-166769104D01*
X82619046Y-167054819D02*
X82952379Y-166054819D01*
X82952379Y-166054819D02*
X83285712Y-167054819D01*
X83619046Y-167054819D02*
X83619046Y-166054819D01*
X83619046Y-166531009D02*
X84190474Y-166531009D01*
X84190474Y-167054819D02*
X84190474Y-166054819D01*
X84523808Y-166054819D02*
X85095236Y-166054819D01*
X84809522Y-167054819D02*
X84809522Y-166054819D01*
X85380951Y-166150057D02*
X85428570Y-166102438D01*
X85428570Y-166102438D02*
X85523808Y-166054819D01*
X85523808Y-166054819D02*
X85761903Y-166054819D01*
X85761903Y-166054819D02*
X85857141Y-166102438D01*
X85857141Y-166102438D02*
X85904760Y-166150057D01*
X85904760Y-166150057D02*
X85952379Y-166245295D01*
X85952379Y-166245295D02*
X85952379Y-166340533D01*
X85952379Y-166340533D02*
X85904760Y-166483390D01*
X85904760Y-166483390D02*
X85333332Y-167054819D01*
X85333332Y-167054819D02*
X85952379Y-167054819D01*
X86571427Y-166054819D02*
X86666665Y-166054819D01*
X86666665Y-166054819D02*
X86761903Y-166102438D01*
X86761903Y-166102438D02*
X86809522Y-166150057D01*
X86809522Y-166150057D02*
X86857141Y-166245295D01*
X86857141Y-166245295D02*
X86904760Y-166435771D01*
X86904760Y-166435771D02*
X86904760Y-166673866D01*
X86904760Y-166673866D02*
X86857141Y-166864342D01*
X86857141Y-166864342D02*
X86809522Y-166959580D01*
X86809522Y-166959580D02*
X86761903Y-167007200D01*
X86761903Y-167007200D02*
X86666665Y-167054819D01*
X86666665Y-167054819D02*
X86571427Y-167054819D01*
X86571427Y-167054819D02*
X86476189Y-167007200D01*
X86476189Y-167007200D02*
X86428570Y-166959580D01*
X86428570Y-166959580D02*
X86380951Y-166864342D01*
X86380951Y-166864342D02*
X86333332Y-166673866D01*
X86333332Y-166673866D02*
X86333332Y-166435771D01*
X86333332Y-166435771D02*
X86380951Y-166245295D01*
X86380951Y-166245295D02*
X86428570Y-166150057D01*
X86428570Y-166150057D02*
X86476189Y-166102438D01*
X86476189Y-166102438D02*
X86571427Y-166054819D01*
X87333332Y-166673866D02*
X88095237Y-166673866D01*
X87714284Y-167054819D02*
X87714284Y-166292914D01*
X88904760Y-166531009D02*
X89047617Y-166578628D01*
X89047617Y-166578628D02*
X89095236Y-166626247D01*
X89095236Y-166626247D02*
X89142855Y-166721485D01*
X89142855Y-166721485D02*
X89142855Y-166864342D01*
X89142855Y-166864342D02*
X89095236Y-166959580D01*
X89095236Y-166959580D02*
X89047617Y-167007200D01*
X89047617Y-167007200D02*
X88952379Y-167054819D01*
X88952379Y-167054819D02*
X88571427Y-167054819D01*
X88571427Y-167054819D02*
X88571427Y-166054819D01*
X88571427Y-166054819D02*
X88904760Y-166054819D01*
X88904760Y-166054819D02*
X88999998Y-166102438D01*
X88999998Y-166102438D02*
X89047617Y-166150057D01*
X89047617Y-166150057D02*
X89095236Y-166245295D01*
X89095236Y-166245295D02*
X89095236Y-166340533D01*
X89095236Y-166340533D02*
X89047617Y-166435771D01*
X89047617Y-166435771D02*
X88999998Y-166483390D01*
X88999998Y-166483390D02*
X88904760Y-166531009D01*
X88904760Y-166531009D02*
X88571427Y-166531009D01*
X89571427Y-167054819D02*
X89571427Y-166054819D01*
X89571427Y-166054819D02*
X89904760Y-166769104D01*
X89904760Y-166769104D02*
X90238093Y-166054819D01*
X90238093Y-166054819D02*
X90238093Y-167054819D01*
X90714284Y-167054819D02*
X90714284Y-166054819D01*
X90714284Y-166054819D02*
X91095236Y-166054819D01*
X91095236Y-166054819D02*
X91190474Y-166102438D01*
X91190474Y-166102438D02*
X91238093Y-166150057D01*
X91238093Y-166150057D02*
X91285712Y-166245295D01*
X91285712Y-166245295D02*
X91285712Y-166388152D01*
X91285712Y-166388152D02*
X91238093Y-166483390D01*
X91238093Y-166483390D02*
X91190474Y-166531009D01*
X91190474Y-166531009D02*
X91095236Y-166578628D01*
X91095236Y-166578628D02*
X90714284Y-166578628D01*
X91666665Y-166150057D02*
X91714284Y-166102438D01*
X91714284Y-166102438D02*
X91809522Y-166054819D01*
X91809522Y-166054819D02*
X92047617Y-166054819D01*
X92047617Y-166054819D02*
X92142855Y-166102438D01*
X92142855Y-166102438D02*
X92190474Y-166150057D01*
X92190474Y-166150057D02*
X92238093Y-166245295D01*
X92238093Y-166245295D02*
X92238093Y-166340533D01*
X92238093Y-166340533D02*
X92190474Y-166483390D01*
X92190474Y-166483390D02*
X91619046Y-167054819D01*
X91619046Y-167054819D02*
X92238093Y-167054819D01*
X92809522Y-166483390D02*
X92714284Y-166435771D01*
X92714284Y-166435771D02*
X92666665Y-166388152D01*
X92666665Y-166388152D02*
X92619046Y-166292914D01*
X92619046Y-166292914D02*
X92619046Y-166245295D01*
X92619046Y-166245295D02*
X92666665Y-166150057D01*
X92666665Y-166150057D02*
X92714284Y-166102438D01*
X92714284Y-166102438D02*
X92809522Y-166054819D01*
X92809522Y-166054819D02*
X92999998Y-166054819D01*
X92999998Y-166054819D02*
X93095236Y-166102438D01*
X93095236Y-166102438D02*
X93142855Y-166150057D01*
X93142855Y-166150057D02*
X93190474Y-166245295D01*
X93190474Y-166245295D02*
X93190474Y-166292914D01*
X93190474Y-166292914D02*
X93142855Y-166388152D01*
X93142855Y-166388152D02*
X93095236Y-166435771D01*
X93095236Y-166435771D02*
X92999998Y-166483390D01*
X92999998Y-166483390D02*
X92809522Y-166483390D01*
X92809522Y-166483390D02*
X92714284Y-166531009D01*
X92714284Y-166531009D02*
X92666665Y-166578628D01*
X92666665Y-166578628D02*
X92619046Y-166673866D01*
X92619046Y-166673866D02*
X92619046Y-166864342D01*
X92619046Y-166864342D02*
X92666665Y-166959580D01*
X92666665Y-166959580D02*
X92714284Y-167007200D01*
X92714284Y-167007200D02*
X92809522Y-167054819D01*
X92809522Y-167054819D02*
X92999998Y-167054819D01*
X92999998Y-167054819D02*
X93095236Y-167007200D01*
X93095236Y-167007200D02*
X93142855Y-166959580D01*
X93142855Y-166959580D02*
X93190474Y-166864342D01*
X93190474Y-166864342D02*
X93190474Y-166673866D01*
X93190474Y-166673866D02*
X93142855Y-166578628D01*
X93142855Y-166578628D02*
X93095236Y-166531009D01*
X93095236Y-166531009D02*
X92999998Y-166483390D01*
X93809522Y-166054819D02*
X93904760Y-166054819D01*
X93904760Y-166054819D02*
X93999998Y-166102438D01*
X93999998Y-166102438D02*
X94047617Y-166150057D01*
X94047617Y-166150057D02*
X94095236Y-166245295D01*
X94095236Y-166245295D02*
X94142855Y-166435771D01*
X94142855Y-166435771D02*
X94142855Y-166673866D01*
X94142855Y-166673866D02*
X94095236Y-166864342D01*
X94095236Y-166864342D02*
X94047617Y-166959580D01*
X94047617Y-166959580D02*
X93999998Y-167007200D01*
X93999998Y-167007200D02*
X93904760Y-167054819D01*
X93904760Y-167054819D02*
X93809522Y-167054819D01*
X93809522Y-167054819D02*
X93714284Y-167007200D01*
X93714284Y-167007200D02*
X93666665Y-166959580D01*
X93666665Y-166959580D02*
X93619046Y-166864342D01*
X93619046Y-166864342D02*
X93571427Y-166673866D01*
X93571427Y-166673866D02*
X93571427Y-166435771D01*
X93571427Y-166435771D02*
X93619046Y-166245295D01*
X93619046Y-166245295D02*
X93666665Y-166150057D01*
X93666665Y-166150057D02*
X93714284Y-166102438D01*
X93714284Y-166102438D02*
X93809522Y-166054819D01*
X95190475Y-166054819D02*
X95761903Y-166054819D01*
X95476189Y-167054819D02*
X95476189Y-166054819D01*
X96476189Y-167007200D02*
X96380951Y-167054819D01*
X96380951Y-167054819D02*
X96190475Y-167054819D01*
X96190475Y-167054819D02*
X96095237Y-167007200D01*
X96095237Y-167007200D02*
X96047618Y-166911961D01*
X96047618Y-166911961D02*
X96047618Y-166531009D01*
X96047618Y-166531009D02*
X96095237Y-166435771D01*
X96095237Y-166435771D02*
X96190475Y-166388152D01*
X96190475Y-166388152D02*
X96380951Y-166388152D01*
X96380951Y-166388152D02*
X96476189Y-166435771D01*
X96476189Y-166435771D02*
X96523808Y-166531009D01*
X96523808Y-166531009D02*
X96523808Y-166626247D01*
X96523808Y-166626247D02*
X96047618Y-166721485D01*
X96952380Y-167054819D02*
X96952380Y-166388152D01*
X96952380Y-166483390D02*
X96999999Y-166435771D01*
X96999999Y-166435771D02*
X97095237Y-166388152D01*
X97095237Y-166388152D02*
X97238094Y-166388152D01*
X97238094Y-166388152D02*
X97333332Y-166435771D01*
X97333332Y-166435771D02*
X97380951Y-166531009D01*
X97380951Y-166531009D02*
X97380951Y-167054819D01*
X97380951Y-166531009D02*
X97428570Y-166435771D01*
X97428570Y-166435771D02*
X97523808Y-166388152D01*
X97523808Y-166388152D02*
X97666665Y-166388152D01*
X97666665Y-166388152D02*
X97761904Y-166435771D01*
X97761904Y-166435771D02*
X97809523Y-166531009D01*
X97809523Y-166531009D02*
X97809523Y-167054819D01*
X98285713Y-166388152D02*
X98285713Y-167388152D01*
X98285713Y-166435771D02*
X98380951Y-166388152D01*
X98380951Y-166388152D02*
X98571427Y-166388152D01*
X98571427Y-166388152D02*
X98666665Y-166435771D01*
X98666665Y-166435771D02*
X98714284Y-166483390D01*
X98714284Y-166483390D02*
X98761903Y-166578628D01*
X98761903Y-166578628D02*
X98761903Y-166864342D01*
X98761903Y-166864342D02*
X98714284Y-166959580D01*
X98714284Y-166959580D02*
X98666665Y-167007200D01*
X98666665Y-167007200D02*
X98571427Y-167054819D01*
X98571427Y-167054819D02*
X98380951Y-167054819D01*
X98380951Y-167054819D02*
X98285713Y-167007200D01*
X99571427Y-167007200D02*
X99476189Y-167054819D01*
X99476189Y-167054819D02*
X99285713Y-167054819D01*
X99285713Y-167054819D02*
X99190475Y-167007200D01*
X99190475Y-167007200D02*
X99142856Y-166911961D01*
X99142856Y-166911961D02*
X99142856Y-166531009D01*
X99142856Y-166531009D02*
X99190475Y-166435771D01*
X99190475Y-166435771D02*
X99285713Y-166388152D01*
X99285713Y-166388152D02*
X99476189Y-166388152D01*
X99476189Y-166388152D02*
X99571427Y-166435771D01*
X99571427Y-166435771D02*
X99619046Y-166531009D01*
X99619046Y-166531009D02*
X99619046Y-166626247D01*
X99619046Y-166626247D02*
X99142856Y-166721485D01*
X100047618Y-167054819D02*
X100047618Y-166388152D01*
X100047618Y-166578628D02*
X100095237Y-166483390D01*
X100095237Y-166483390D02*
X100142856Y-166435771D01*
X100142856Y-166435771D02*
X100238094Y-166388152D01*
X100238094Y-166388152D02*
X100333332Y-166388152D01*
X101095237Y-167054819D02*
X101095237Y-166531009D01*
X101095237Y-166531009D02*
X101047618Y-166435771D01*
X101047618Y-166435771D02*
X100952380Y-166388152D01*
X100952380Y-166388152D02*
X100761904Y-166388152D01*
X100761904Y-166388152D02*
X100666666Y-166435771D01*
X101095237Y-167007200D02*
X100999999Y-167054819D01*
X100999999Y-167054819D02*
X100761904Y-167054819D01*
X100761904Y-167054819D02*
X100666666Y-167007200D01*
X100666666Y-167007200D02*
X100619047Y-166911961D01*
X100619047Y-166911961D02*
X100619047Y-166816723D01*
X100619047Y-166816723D02*
X100666666Y-166721485D01*
X100666666Y-166721485D02*
X100761904Y-166673866D01*
X100761904Y-166673866D02*
X100999999Y-166673866D01*
X100999999Y-166673866D02*
X101095237Y-166626247D01*
X101428571Y-166388152D02*
X101809523Y-166388152D01*
X101571428Y-166054819D02*
X101571428Y-166911961D01*
X101571428Y-166911961D02*
X101619047Y-167007200D01*
X101619047Y-167007200D02*
X101714285Y-167054819D01*
X101714285Y-167054819D02*
X101809523Y-167054819D01*
X102571428Y-166388152D02*
X102571428Y-167054819D01*
X102142857Y-166388152D02*
X102142857Y-166911961D01*
X102142857Y-166911961D02*
X102190476Y-167007200D01*
X102190476Y-167007200D02*
X102285714Y-167054819D01*
X102285714Y-167054819D02*
X102428571Y-167054819D01*
X102428571Y-167054819D02*
X102523809Y-167007200D01*
X102523809Y-167007200D02*
X102571428Y-166959580D01*
X103047619Y-167054819D02*
X103047619Y-166388152D01*
X103047619Y-166578628D02*
X103095238Y-166483390D01*
X103095238Y-166483390D02*
X103142857Y-166435771D01*
X103142857Y-166435771D02*
X103238095Y-166388152D01*
X103238095Y-166388152D02*
X103333333Y-166388152D01*
X104047619Y-167007200D02*
X103952381Y-167054819D01*
X103952381Y-167054819D02*
X103761905Y-167054819D01*
X103761905Y-167054819D02*
X103666667Y-167007200D01*
X103666667Y-167007200D02*
X103619048Y-166911961D01*
X103619048Y-166911961D02*
X103619048Y-166531009D01*
X103619048Y-166531009D02*
X103666667Y-166435771D01*
X103666667Y-166435771D02*
X103761905Y-166388152D01*
X103761905Y-166388152D02*
X103952381Y-166388152D01*
X103952381Y-166388152D02*
X104047619Y-166435771D01*
X104047619Y-166435771D02*
X104095238Y-166531009D01*
X104095238Y-166531009D02*
X104095238Y-166626247D01*
X104095238Y-166626247D02*
X103619048Y-166721485D01*
X105285715Y-167054819D02*
X105285715Y-166054819D01*
X105285715Y-166531009D02*
X105857143Y-166531009D01*
X105857143Y-167054819D02*
X105857143Y-166054819D01*
X106761905Y-166388152D02*
X106761905Y-167054819D01*
X106333334Y-166388152D02*
X106333334Y-166911961D01*
X106333334Y-166911961D02*
X106380953Y-167007200D01*
X106380953Y-167007200D02*
X106476191Y-167054819D01*
X106476191Y-167054819D02*
X106619048Y-167054819D01*
X106619048Y-167054819D02*
X106714286Y-167007200D01*
X106714286Y-167007200D02*
X106761905Y-166959580D01*
X107238096Y-167054819D02*
X107238096Y-166388152D01*
X107238096Y-166483390D02*
X107285715Y-166435771D01*
X107285715Y-166435771D02*
X107380953Y-166388152D01*
X107380953Y-166388152D02*
X107523810Y-166388152D01*
X107523810Y-166388152D02*
X107619048Y-166435771D01*
X107619048Y-166435771D02*
X107666667Y-166531009D01*
X107666667Y-166531009D02*
X107666667Y-167054819D01*
X107666667Y-166531009D02*
X107714286Y-166435771D01*
X107714286Y-166435771D02*
X107809524Y-166388152D01*
X107809524Y-166388152D02*
X107952381Y-166388152D01*
X107952381Y-166388152D02*
X108047620Y-166435771D01*
X108047620Y-166435771D02*
X108095239Y-166531009D01*
X108095239Y-166531009D02*
X108095239Y-167054819D01*
X108571429Y-167054819D02*
X108571429Y-166388152D01*
X108571429Y-166054819D02*
X108523810Y-166102438D01*
X108523810Y-166102438D02*
X108571429Y-166150057D01*
X108571429Y-166150057D02*
X108619048Y-166102438D01*
X108619048Y-166102438D02*
X108571429Y-166054819D01*
X108571429Y-166054819D02*
X108571429Y-166150057D01*
X109476190Y-167054819D02*
X109476190Y-166054819D01*
X109476190Y-167007200D02*
X109380952Y-167054819D01*
X109380952Y-167054819D02*
X109190476Y-167054819D01*
X109190476Y-167054819D02*
X109095238Y-167007200D01*
X109095238Y-167007200D02*
X109047619Y-166959580D01*
X109047619Y-166959580D02*
X109000000Y-166864342D01*
X109000000Y-166864342D02*
X109000000Y-166578628D01*
X109000000Y-166578628D02*
X109047619Y-166483390D01*
X109047619Y-166483390D02*
X109095238Y-166435771D01*
X109095238Y-166435771D02*
X109190476Y-166388152D01*
X109190476Y-166388152D02*
X109380952Y-166388152D01*
X109380952Y-166388152D02*
X109476190Y-166435771D01*
X109952381Y-167054819D02*
X109952381Y-166388152D01*
X109952381Y-166054819D02*
X109904762Y-166102438D01*
X109904762Y-166102438D02*
X109952381Y-166150057D01*
X109952381Y-166150057D02*
X110000000Y-166102438D01*
X110000000Y-166102438D02*
X109952381Y-166054819D01*
X109952381Y-166054819D02*
X109952381Y-166150057D01*
X110285714Y-166388152D02*
X110666666Y-166388152D01*
X110428571Y-166054819D02*
X110428571Y-166911961D01*
X110428571Y-166911961D02*
X110476190Y-167007200D01*
X110476190Y-167007200D02*
X110571428Y-167054819D01*
X110571428Y-167054819D02*
X110666666Y-167054819D01*
X110904762Y-166388152D02*
X111142857Y-167054819D01*
X111380952Y-166388152D02*
X111142857Y-167054819D01*
X111142857Y-167054819D02*
X111047619Y-167292914D01*
X111047619Y-167292914D02*
X111000000Y-167340533D01*
X111000000Y-167340533D02*
X110904762Y-167388152D01*
X112476191Y-166769104D02*
X112952381Y-166769104D01*
X112380953Y-167054819D02*
X112714286Y-166054819D01*
X112714286Y-166054819D02*
X113047619Y-167054819D01*
X113380953Y-167054819D02*
X113380953Y-166388152D01*
X113380953Y-166054819D02*
X113333334Y-166102438D01*
X113333334Y-166102438D02*
X113380953Y-166150057D01*
X113380953Y-166150057D02*
X113428572Y-166102438D01*
X113428572Y-166102438D02*
X113380953Y-166054819D01*
X113380953Y-166054819D02*
X113380953Y-166150057D01*
X113857143Y-167054819D02*
X113857143Y-166388152D01*
X113857143Y-166578628D02*
X113904762Y-166483390D01*
X113904762Y-166483390D02*
X113952381Y-166435771D01*
X113952381Y-166435771D02*
X114047619Y-166388152D01*
X114047619Y-166388152D02*
X114142857Y-166388152D01*
X115238096Y-167054819D02*
X115238096Y-166054819D01*
X115238096Y-166054819D02*
X115619048Y-166054819D01*
X115619048Y-166054819D02*
X115714286Y-166102438D01*
X115714286Y-166102438D02*
X115761905Y-166150057D01*
X115761905Y-166150057D02*
X115809524Y-166245295D01*
X115809524Y-166245295D02*
X115809524Y-166388152D01*
X115809524Y-166388152D02*
X115761905Y-166483390D01*
X115761905Y-166483390D02*
X115714286Y-166531009D01*
X115714286Y-166531009D02*
X115619048Y-166578628D01*
X115619048Y-166578628D02*
X115238096Y-166578628D01*
X116238096Y-167054819D02*
X116238096Y-166388152D01*
X116238096Y-166578628D02*
X116285715Y-166483390D01*
X116285715Y-166483390D02*
X116333334Y-166435771D01*
X116333334Y-166435771D02*
X116428572Y-166388152D01*
X116428572Y-166388152D02*
X116523810Y-166388152D01*
X117238096Y-167007200D02*
X117142858Y-167054819D01*
X117142858Y-167054819D02*
X116952382Y-167054819D01*
X116952382Y-167054819D02*
X116857144Y-167007200D01*
X116857144Y-167007200D02*
X116809525Y-166911961D01*
X116809525Y-166911961D02*
X116809525Y-166531009D01*
X116809525Y-166531009D02*
X116857144Y-166435771D01*
X116857144Y-166435771D02*
X116952382Y-166388152D01*
X116952382Y-166388152D02*
X117142858Y-166388152D01*
X117142858Y-166388152D02*
X117238096Y-166435771D01*
X117238096Y-166435771D02*
X117285715Y-166531009D01*
X117285715Y-166531009D02*
X117285715Y-166626247D01*
X117285715Y-166626247D02*
X116809525Y-166721485D01*
X117666668Y-167007200D02*
X117761906Y-167054819D01*
X117761906Y-167054819D02*
X117952382Y-167054819D01*
X117952382Y-167054819D02*
X118047620Y-167007200D01*
X118047620Y-167007200D02*
X118095239Y-166911961D01*
X118095239Y-166911961D02*
X118095239Y-166864342D01*
X118095239Y-166864342D02*
X118047620Y-166769104D01*
X118047620Y-166769104D02*
X117952382Y-166721485D01*
X117952382Y-166721485D02*
X117809525Y-166721485D01*
X117809525Y-166721485D02*
X117714287Y-166673866D01*
X117714287Y-166673866D02*
X117666668Y-166578628D01*
X117666668Y-166578628D02*
X117666668Y-166531009D01*
X117666668Y-166531009D02*
X117714287Y-166435771D01*
X117714287Y-166435771D02*
X117809525Y-166388152D01*
X117809525Y-166388152D02*
X117952382Y-166388152D01*
X117952382Y-166388152D02*
X118047620Y-166435771D01*
X118476192Y-167007200D02*
X118571430Y-167054819D01*
X118571430Y-167054819D02*
X118761906Y-167054819D01*
X118761906Y-167054819D02*
X118857144Y-167007200D01*
X118857144Y-167007200D02*
X118904763Y-166911961D01*
X118904763Y-166911961D02*
X118904763Y-166864342D01*
X118904763Y-166864342D02*
X118857144Y-166769104D01*
X118857144Y-166769104D02*
X118761906Y-166721485D01*
X118761906Y-166721485D02*
X118619049Y-166721485D01*
X118619049Y-166721485D02*
X118523811Y-166673866D01*
X118523811Y-166673866D02*
X118476192Y-166578628D01*
X118476192Y-166578628D02*
X118476192Y-166531009D01*
X118476192Y-166531009D02*
X118523811Y-166435771D01*
X118523811Y-166435771D02*
X118619049Y-166388152D01*
X118619049Y-166388152D02*
X118761906Y-166388152D01*
X118761906Y-166388152D02*
X118857144Y-166435771D01*
X119761906Y-166388152D02*
X119761906Y-167054819D01*
X119333335Y-166388152D02*
X119333335Y-166911961D01*
X119333335Y-166911961D02*
X119380954Y-167007200D01*
X119380954Y-167007200D02*
X119476192Y-167054819D01*
X119476192Y-167054819D02*
X119619049Y-167054819D01*
X119619049Y-167054819D02*
X119714287Y-167007200D01*
X119714287Y-167007200D02*
X119761906Y-166959580D01*
X120238097Y-167054819D02*
X120238097Y-166388152D01*
X120238097Y-166578628D02*
X120285716Y-166483390D01*
X120285716Y-166483390D02*
X120333335Y-166435771D01*
X120333335Y-166435771D02*
X120428573Y-166388152D01*
X120428573Y-166388152D02*
X120523811Y-166388152D01*
X121238097Y-167007200D02*
X121142859Y-167054819D01*
X121142859Y-167054819D02*
X120952383Y-167054819D01*
X120952383Y-167054819D02*
X120857145Y-167007200D01*
X120857145Y-167007200D02*
X120809526Y-166911961D01*
X120809526Y-166911961D02*
X120809526Y-166531009D01*
X120809526Y-166531009D02*
X120857145Y-166435771D01*
X120857145Y-166435771D02*
X120952383Y-166388152D01*
X120952383Y-166388152D02*
X121142859Y-166388152D01*
X121142859Y-166388152D02*
X121238097Y-166435771D01*
X121238097Y-166435771D02*
X121285716Y-166531009D01*
X121285716Y-166531009D02*
X121285716Y-166626247D01*
X121285716Y-166626247D02*
X120809526Y-166721485D01*
X96415833Y-131964819D02*
X96082500Y-131488628D01*
X95844405Y-131964819D02*
X95844405Y-130964819D01*
X95844405Y-130964819D02*
X96225357Y-130964819D01*
X96225357Y-130964819D02*
X96320595Y-131012438D01*
X96320595Y-131012438D02*
X96368214Y-131060057D01*
X96368214Y-131060057D02*
X96415833Y-131155295D01*
X96415833Y-131155295D02*
X96415833Y-131298152D01*
X96415833Y-131298152D02*
X96368214Y-131393390D01*
X96368214Y-131393390D02*
X96320595Y-131441009D01*
X96320595Y-131441009D02*
X96225357Y-131488628D01*
X96225357Y-131488628D02*
X95844405Y-131488628D01*
X97272976Y-131298152D02*
X97272976Y-131964819D01*
X97034881Y-130917200D02*
X96796786Y-131631485D01*
X96796786Y-131631485D02*
X97415833Y-131631485D01*
X85114819Y-167933333D02*
X85829104Y-167933333D01*
X85829104Y-167933333D02*
X85971961Y-167980952D01*
X85971961Y-167980952D02*
X86067200Y-168076190D01*
X86067200Y-168076190D02*
X86114819Y-168219047D01*
X86114819Y-168219047D02*
X86114819Y-168314285D01*
X85114819Y-167028571D02*
X85114819Y-167219047D01*
X85114819Y-167219047D02*
X85162438Y-167314285D01*
X85162438Y-167314285D02*
X85210057Y-167361904D01*
X85210057Y-167361904D02*
X85352914Y-167457142D01*
X85352914Y-167457142D02*
X85543390Y-167504761D01*
X85543390Y-167504761D02*
X85924342Y-167504761D01*
X85924342Y-167504761D02*
X86019580Y-167457142D01*
X86019580Y-167457142D02*
X86067200Y-167409523D01*
X86067200Y-167409523D02*
X86114819Y-167314285D01*
X86114819Y-167314285D02*
X86114819Y-167123809D01*
X86114819Y-167123809D02*
X86067200Y-167028571D01*
X86067200Y-167028571D02*
X86019580Y-166980952D01*
X86019580Y-166980952D02*
X85924342Y-166933333D01*
X85924342Y-166933333D02*
X85686247Y-166933333D01*
X85686247Y-166933333D02*
X85591009Y-166980952D01*
X85591009Y-166980952D02*
X85543390Y-167028571D01*
X85543390Y-167028571D02*
X85495771Y-167123809D01*
X85495771Y-167123809D02*
X85495771Y-167314285D01*
X85495771Y-167314285D02*
X85543390Y-167409523D01*
X85543390Y-167409523D02*
X85591009Y-167457142D01*
X85591009Y-167457142D02*
X85686247Y-167504761D01*
X68579999Y-169912438D02*
X68484761Y-169864819D01*
X68484761Y-169864819D02*
X68341904Y-169864819D01*
X68341904Y-169864819D02*
X68199047Y-169912438D01*
X68199047Y-169912438D02*
X68103809Y-170007676D01*
X68103809Y-170007676D02*
X68056190Y-170102914D01*
X68056190Y-170102914D02*
X68008571Y-170293390D01*
X68008571Y-170293390D02*
X68008571Y-170436247D01*
X68008571Y-170436247D02*
X68056190Y-170626723D01*
X68056190Y-170626723D02*
X68103809Y-170721961D01*
X68103809Y-170721961D02*
X68199047Y-170817200D01*
X68199047Y-170817200D02*
X68341904Y-170864819D01*
X68341904Y-170864819D02*
X68437142Y-170864819D01*
X68437142Y-170864819D02*
X68579999Y-170817200D01*
X68579999Y-170817200D02*
X68627618Y-170769580D01*
X68627618Y-170769580D02*
X68627618Y-170436247D01*
X68627618Y-170436247D02*
X68437142Y-170436247D01*
X69246666Y-170388628D02*
X69246666Y-170864819D01*
X68913333Y-169864819D02*
X69246666Y-170388628D01*
X69246666Y-170388628D02*
X69579999Y-169864819D01*
X69913333Y-170483866D02*
X70675238Y-170483866D01*
X71151428Y-170864819D02*
X71151428Y-169864819D01*
X71151428Y-169864819D02*
X71722856Y-170864819D01*
X71722856Y-170864819D02*
X71722856Y-169864819D01*
X72199047Y-170341009D02*
X72532380Y-170341009D01*
X72675237Y-170864819D02*
X72199047Y-170864819D01*
X72199047Y-170864819D02*
X72199047Y-169864819D01*
X72199047Y-169864819D02*
X72675237Y-169864819D01*
X73294285Y-169864819D02*
X73484761Y-169864819D01*
X73484761Y-169864819D02*
X73579999Y-169912438D01*
X73579999Y-169912438D02*
X73675237Y-170007676D01*
X73675237Y-170007676D02*
X73722856Y-170198152D01*
X73722856Y-170198152D02*
X73722856Y-170531485D01*
X73722856Y-170531485D02*
X73675237Y-170721961D01*
X73675237Y-170721961D02*
X73579999Y-170817200D01*
X73579999Y-170817200D02*
X73484761Y-170864819D01*
X73484761Y-170864819D02*
X73294285Y-170864819D01*
X73294285Y-170864819D02*
X73199047Y-170817200D01*
X73199047Y-170817200D02*
X73103809Y-170721961D01*
X73103809Y-170721961D02*
X73056190Y-170531485D01*
X73056190Y-170531485D02*
X73056190Y-170198152D01*
X73056190Y-170198152D02*
X73103809Y-170007676D01*
X73103809Y-170007676D02*
X73199047Y-169912438D01*
X73199047Y-169912438D02*
X73294285Y-169864819D01*
X74579999Y-169864819D02*
X74389523Y-169864819D01*
X74389523Y-169864819D02*
X74294285Y-169912438D01*
X74294285Y-169912438D02*
X74246666Y-169960057D01*
X74246666Y-169960057D02*
X74151428Y-170102914D01*
X74151428Y-170102914D02*
X74103809Y-170293390D01*
X74103809Y-170293390D02*
X74103809Y-170674342D01*
X74103809Y-170674342D02*
X74151428Y-170769580D01*
X74151428Y-170769580D02*
X74199047Y-170817200D01*
X74199047Y-170817200D02*
X74294285Y-170864819D01*
X74294285Y-170864819D02*
X74484761Y-170864819D01*
X74484761Y-170864819D02*
X74579999Y-170817200D01*
X74579999Y-170817200D02*
X74627618Y-170769580D01*
X74627618Y-170769580D02*
X74675237Y-170674342D01*
X74675237Y-170674342D02*
X74675237Y-170436247D01*
X74675237Y-170436247D02*
X74627618Y-170341009D01*
X74627618Y-170341009D02*
X74579999Y-170293390D01*
X74579999Y-170293390D02*
X74484761Y-170245771D01*
X74484761Y-170245771D02*
X74294285Y-170245771D01*
X74294285Y-170245771D02*
X74199047Y-170293390D01*
X74199047Y-170293390D02*
X74151428Y-170341009D01*
X74151428Y-170341009D02*
X74103809Y-170436247D01*
X75103809Y-170864819D02*
X75103809Y-169864819D01*
X75103809Y-169864819D02*
X75437142Y-170579104D01*
X75437142Y-170579104D02*
X75770475Y-169864819D01*
X75770475Y-169864819D02*
X75770475Y-170864819D01*
X76103809Y-169864819D02*
X76437142Y-170864819D01*
X76437142Y-170864819D02*
X76770475Y-169864819D01*
X77056190Y-169960057D02*
X77103809Y-169912438D01*
X77103809Y-169912438D02*
X77199047Y-169864819D01*
X77199047Y-169864819D02*
X77437142Y-169864819D01*
X77437142Y-169864819D02*
X77532380Y-169912438D01*
X77532380Y-169912438D02*
X77579999Y-169960057D01*
X77579999Y-169960057D02*
X77627618Y-170055295D01*
X77627618Y-170055295D02*
X77627618Y-170150533D01*
X77627618Y-170150533D02*
X77579999Y-170293390D01*
X77579999Y-170293390D02*
X77008571Y-170864819D01*
X77008571Y-170864819D02*
X77627618Y-170864819D01*
X78818095Y-170864819D02*
X78818095Y-169864819D01*
X78818095Y-169864819D02*
X79389523Y-170864819D01*
X79389523Y-170864819D02*
X79389523Y-169864819D01*
X80246666Y-170817200D02*
X80151428Y-170864819D01*
X80151428Y-170864819D02*
X79960952Y-170864819D01*
X79960952Y-170864819D02*
X79865714Y-170817200D01*
X79865714Y-170817200D02*
X79818095Y-170721961D01*
X79818095Y-170721961D02*
X79818095Y-170341009D01*
X79818095Y-170341009D02*
X79865714Y-170245771D01*
X79865714Y-170245771D02*
X79960952Y-170198152D01*
X79960952Y-170198152D02*
X80151428Y-170198152D01*
X80151428Y-170198152D02*
X80246666Y-170245771D01*
X80246666Y-170245771D02*
X80294285Y-170341009D01*
X80294285Y-170341009D02*
X80294285Y-170436247D01*
X80294285Y-170436247D02*
X79818095Y-170531485D01*
X80627619Y-170198152D02*
X80818095Y-170864819D01*
X80818095Y-170864819D02*
X81008571Y-170388628D01*
X81008571Y-170388628D02*
X81199047Y-170864819D01*
X81199047Y-170864819D02*
X81389523Y-170198152D01*
X82532381Y-170864819D02*
X82532381Y-169864819D01*
X82532381Y-169864819D02*
X83103809Y-170864819D01*
X83103809Y-170864819D02*
X83103809Y-169864819D01*
X83580000Y-170341009D02*
X83913333Y-170341009D01*
X84056190Y-170864819D02*
X83580000Y-170864819D01*
X83580000Y-170864819D02*
X83580000Y-169864819D01*
X83580000Y-169864819D02*
X84056190Y-169864819D01*
X84675238Y-169864819D02*
X84865714Y-169864819D01*
X84865714Y-169864819D02*
X84960952Y-169912438D01*
X84960952Y-169912438D02*
X85056190Y-170007676D01*
X85056190Y-170007676D02*
X85103809Y-170198152D01*
X85103809Y-170198152D02*
X85103809Y-170531485D01*
X85103809Y-170531485D02*
X85056190Y-170721961D01*
X85056190Y-170721961D02*
X84960952Y-170817200D01*
X84960952Y-170817200D02*
X84865714Y-170864819D01*
X84865714Y-170864819D02*
X84675238Y-170864819D01*
X84675238Y-170864819D02*
X84580000Y-170817200D01*
X84580000Y-170817200D02*
X84484762Y-170721961D01*
X84484762Y-170721961D02*
X84437143Y-170531485D01*
X84437143Y-170531485D02*
X84437143Y-170198152D01*
X84437143Y-170198152D02*
X84484762Y-170007676D01*
X84484762Y-170007676D02*
X84580000Y-169912438D01*
X84580000Y-169912438D02*
X84675238Y-169864819D01*
X85532381Y-170483866D02*
X86294286Y-170483866D01*
X87199047Y-169864819D02*
X87008571Y-169864819D01*
X87008571Y-169864819D02*
X86913333Y-169912438D01*
X86913333Y-169912438D02*
X86865714Y-169960057D01*
X86865714Y-169960057D02*
X86770476Y-170102914D01*
X86770476Y-170102914D02*
X86722857Y-170293390D01*
X86722857Y-170293390D02*
X86722857Y-170674342D01*
X86722857Y-170674342D02*
X86770476Y-170769580D01*
X86770476Y-170769580D02*
X86818095Y-170817200D01*
X86818095Y-170817200D02*
X86913333Y-170864819D01*
X86913333Y-170864819D02*
X87103809Y-170864819D01*
X87103809Y-170864819D02*
X87199047Y-170817200D01*
X87199047Y-170817200D02*
X87246666Y-170769580D01*
X87246666Y-170769580D02*
X87294285Y-170674342D01*
X87294285Y-170674342D02*
X87294285Y-170436247D01*
X87294285Y-170436247D02*
X87246666Y-170341009D01*
X87246666Y-170341009D02*
X87199047Y-170293390D01*
X87199047Y-170293390D02*
X87103809Y-170245771D01*
X87103809Y-170245771D02*
X86913333Y-170245771D01*
X86913333Y-170245771D02*
X86818095Y-170293390D01*
X86818095Y-170293390D02*
X86770476Y-170341009D01*
X86770476Y-170341009D02*
X86722857Y-170436247D01*
X87722857Y-170864819D02*
X87722857Y-169864819D01*
X87722857Y-169864819D02*
X88056190Y-170579104D01*
X88056190Y-170579104D02*
X88389523Y-169864819D01*
X88389523Y-169864819D02*
X88389523Y-170864819D01*
X90151428Y-169912438D02*
X90056190Y-169864819D01*
X90056190Y-169864819D02*
X89913333Y-169864819D01*
X89913333Y-169864819D02*
X89770476Y-169912438D01*
X89770476Y-169912438D02*
X89675238Y-170007676D01*
X89675238Y-170007676D02*
X89627619Y-170102914D01*
X89627619Y-170102914D02*
X89580000Y-170293390D01*
X89580000Y-170293390D02*
X89580000Y-170436247D01*
X89580000Y-170436247D02*
X89627619Y-170626723D01*
X89627619Y-170626723D02*
X89675238Y-170721961D01*
X89675238Y-170721961D02*
X89770476Y-170817200D01*
X89770476Y-170817200D02*
X89913333Y-170864819D01*
X89913333Y-170864819D02*
X90008571Y-170864819D01*
X90008571Y-170864819D02*
X90151428Y-170817200D01*
X90151428Y-170817200D02*
X90199047Y-170769580D01*
X90199047Y-170769580D02*
X90199047Y-170436247D01*
X90199047Y-170436247D02*
X90008571Y-170436247D01*
X90627619Y-170864819D02*
X90627619Y-169864819D01*
X90627619Y-169864819D02*
X91008571Y-169864819D01*
X91008571Y-169864819D02*
X91103809Y-169912438D01*
X91103809Y-169912438D02*
X91151428Y-169960057D01*
X91151428Y-169960057D02*
X91199047Y-170055295D01*
X91199047Y-170055295D02*
X91199047Y-170198152D01*
X91199047Y-170198152D02*
X91151428Y-170293390D01*
X91151428Y-170293390D02*
X91103809Y-170341009D01*
X91103809Y-170341009D02*
X91008571Y-170388628D01*
X91008571Y-170388628D02*
X90627619Y-170388628D01*
X91580000Y-170817200D02*
X91722857Y-170864819D01*
X91722857Y-170864819D02*
X91960952Y-170864819D01*
X91960952Y-170864819D02*
X92056190Y-170817200D01*
X92056190Y-170817200D02*
X92103809Y-170769580D01*
X92103809Y-170769580D02*
X92151428Y-170674342D01*
X92151428Y-170674342D02*
X92151428Y-170579104D01*
X92151428Y-170579104D02*
X92103809Y-170483866D01*
X92103809Y-170483866D02*
X92056190Y-170436247D01*
X92056190Y-170436247D02*
X91960952Y-170388628D01*
X91960952Y-170388628D02*
X91770476Y-170341009D01*
X91770476Y-170341009D02*
X91675238Y-170293390D01*
X91675238Y-170293390D02*
X91627619Y-170245771D01*
X91627619Y-170245771D02*
X91580000Y-170150533D01*
X91580000Y-170150533D02*
X91580000Y-170055295D01*
X91580000Y-170055295D02*
X91627619Y-169960057D01*
X91627619Y-169960057D02*
X91675238Y-169912438D01*
X91675238Y-169912438D02*
X91770476Y-169864819D01*
X91770476Y-169864819D02*
X92008571Y-169864819D01*
X92008571Y-169864819D02*
X92151428Y-169912438D01*
X96415833Y-129974819D02*
X96082500Y-129498628D01*
X95844405Y-129974819D02*
X95844405Y-128974819D01*
X95844405Y-128974819D02*
X96225357Y-128974819D01*
X96225357Y-128974819D02*
X96320595Y-129022438D01*
X96320595Y-129022438D02*
X96368214Y-129070057D01*
X96368214Y-129070057D02*
X96415833Y-129165295D01*
X96415833Y-129165295D02*
X96415833Y-129308152D01*
X96415833Y-129308152D02*
X96368214Y-129403390D01*
X96368214Y-129403390D02*
X96320595Y-129451009D01*
X96320595Y-129451009D02*
X96225357Y-129498628D01*
X96225357Y-129498628D02*
X95844405Y-129498628D01*
X96749167Y-128974819D02*
X97368214Y-128974819D01*
X97368214Y-128974819D02*
X97034881Y-129355771D01*
X97034881Y-129355771D02*
X97177738Y-129355771D01*
X97177738Y-129355771D02*
X97272976Y-129403390D01*
X97272976Y-129403390D02*
X97320595Y-129451009D01*
X97320595Y-129451009D02*
X97368214Y-129546247D01*
X97368214Y-129546247D02*
X97368214Y-129784342D01*
X97368214Y-129784342D02*
X97320595Y-129879580D01*
X97320595Y-129879580D02*
X97272976Y-129927200D01*
X97272976Y-129927200D02*
X97177738Y-129974819D01*
X97177738Y-129974819D02*
X96892024Y-129974819D01*
X96892024Y-129974819D02*
X96796786Y-129927200D01*
X96796786Y-129927200D02*
X96749167Y-129879580D01*
%TO.C,J5*%
D12*
X108220000Y-146080000D02*
X109600000Y-146080000D01*
X108220000Y-147460000D02*
X108220000Y-146080000D01*
X108220000Y-148730000D02*
X108220000Y-159000000D01*
X108220000Y-148730000D02*
X110980000Y-148730000D01*
X108220000Y-159000000D02*
X110980000Y-159000000D01*
X110980000Y-148730000D02*
X110980000Y-159000000D01*
%TO.C,U1*%
X75800000Y-95850000D02*
X75800000Y-102050000D01*
X75800000Y-95850000D02*
X94200000Y-95850000D01*
X75800000Y-120700000D02*
X75800000Y-121700000D01*
X75800000Y-121700000D02*
X77300000Y-121700000D01*
X94200000Y-95850000D02*
X94200000Y-102050000D01*
X94200000Y-121700000D02*
X92700000Y-121700000D01*
X94200000Y-121700000D02*
X94200000Y-120700000D01*
X75800000Y-102725000D02*
X75300000Y-102725000D01*
X75800000Y-102225000D01*
X75800000Y-102725000D01*
G36*
X75800000Y-102725000D02*
G01*
X75300000Y-102725000D01*
X75800000Y-102225000D01*
X75800000Y-102725000D01*
G37*
%TO.C,U2*%
X104890000Y-123090000D02*
X105365000Y-123090000D01*
X104890000Y-123565000D02*
X104890000Y-123090000D01*
X104890000Y-127310000D02*
X104890000Y-126835000D01*
X105365000Y-127310000D02*
X104890000Y-127310000D01*
X108635000Y-123090000D02*
X109110000Y-123090000D01*
X109110000Y-123090000D02*
X109110000Y-123565000D01*
X109110000Y-126835000D02*
X109110000Y-127310000D01*
X109110000Y-127310000D02*
X108635000Y-127310000D01*
X104390000Y-123950000D02*
X104060000Y-124190000D01*
X104060000Y-123710000D01*
X104390000Y-123950000D01*
G36*
X104390000Y-123950000D02*
G01*
X104060000Y-124190000D01*
X104060000Y-123710000D01*
X104390000Y-123950000D01*
G37*
%TO.C,FL2*%
X101089487Y-122290000D02*
X101090000Y-122290000D01*
X101090000Y-124610000D02*
X100765000Y-124610000D01*
X101910000Y-122290000D02*
X102235000Y-122290000D01*
X102235000Y-124610000D02*
X101910000Y-124610000D01*
X100800000Y-122280000D02*
X100560000Y-121950000D01*
X101040000Y-121950000D01*
X100800000Y-122280000D01*
G36*
X100800000Y-122280000D02*
G01*
X100560000Y-121950000D01*
X101040000Y-121950000D01*
X100800000Y-122280000D01*
G37*
%TO.C,J7*%
X57340000Y-147875000D02*
X57340000Y-137875000D01*
X57940000Y-148375000D02*
X58140000Y-147575000D01*
X58040000Y-137875000D02*
X57940000Y-137375000D01*
X58140000Y-147575000D02*
X58440000Y-145875000D01*
X58340000Y-139175000D02*
X58040000Y-137875000D01*
X58440000Y-145875000D02*
X58540000Y-145075000D01*
X58540000Y-140675000D02*
X58340000Y-139175000D01*
X58540000Y-145075000D02*
X58640000Y-143775000D01*
X58640000Y-141975000D02*
X58540000Y-140675000D01*
X58640000Y-143775000D02*
X58640000Y-141975000D01*
X58840000Y-135965000D02*
X59240000Y-135965000D01*
X58840000Y-137375000D02*
X57840000Y-137375000D01*
X58840000Y-148375000D02*
X57840000Y-148375000D01*
X58840000Y-149785000D02*
X58840000Y-135965000D01*
X58840000Y-149785000D02*
X59240000Y-149785000D01*
X61760000Y-135965000D02*
X67540000Y-135965000D01*
X61760000Y-149785000D02*
X67540000Y-149785000D01*
X70060000Y-135965000D02*
X72760000Y-135965000D01*
X70060000Y-149785000D02*
X72760000Y-149785000D01*
X72760000Y-135965000D02*
X72760000Y-149785000D01*
X57340000Y-137875000D02*
G75*
G02*
X57840000Y-137375000I500000J0D01*
G01*
X57840000Y-148375000D02*
G75*
G02*
X57340000Y-147875000I1J500001D01*
G01*
%TO.C,C1*%
X113851665Y-122670000D02*
X114083335Y-122670000D01*
X113851665Y-123390000D02*
X114083335Y-123390000D01*
%TO.C,J8*%
X102820000Y-153470000D02*
X104200000Y-153470000D01*
X102820000Y-154850000D02*
X102820000Y-153470000D01*
X102820000Y-156120000D02*
X102820000Y-163850000D01*
X102820000Y-156120000D02*
X105580000Y-156120000D01*
X102820000Y-163850000D02*
X105580000Y-163850000D01*
X105580000Y-156120000D02*
X105580000Y-163850000D01*
%TO.C,J2*%
X114820000Y-141340000D02*
X116200000Y-141340000D01*
X114820000Y-142720000D02*
X114820000Y-141340000D01*
X114820000Y-143990000D02*
X114820000Y-161880000D01*
X114820000Y-143990000D02*
X117580000Y-143990000D01*
X114820000Y-161880000D02*
X117580000Y-161880000D01*
X117580000Y-143990000D02*
X117580000Y-161880000D01*
%TO.C,R2*%
X96414879Y-128320000D02*
X96750121Y-128320000D01*
X96414879Y-129080000D02*
X96750121Y-129080000D01*
%TO.C,L2*%
X108032379Y-132820000D02*
X108367621Y-132820000D01*
X108032379Y-133580000D02*
X108367621Y-133580000D01*
%TO.C,C13*%
X104587742Y-145567500D02*
X105062258Y-145567500D01*
X104587742Y-146612500D02*
X105062258Y-146612500D01*
%TO.C,C5*%
X113851665Y-128580000D02*
X114083335Y-128580000D01*
X113851665Y-129300000D02*
X114083335Y-129300000D01*
%TO.C,C3*%
X113851665Y-124640000D02*
X114083335Y-124640000D01*
X113851665Y-125360000D02*
X114083335Y-125360000D01*
%TO.C,Y1*%
X112840000Y-133240000D02*
X114860000Y-133240000D01*
X112840000Y-134340000D02*
X112840000Y-133240000D01*
X113100000Y-132620000D02*
X113100000Y-132560000D01*
X113700000Y-133240000D02*
X113100000Y-132620000D01*
X114000000Y-133240000D02*
X114600000Y-132620000D01*
X114600000Y-132620000D02*
X114600000Y-132560000D01*
X114860000Y-133240000D02*
X114860000Y-134340000D01*
%TO.C,J1*%
X110480000Y-172040000D02*
X110480000Y-172940000D01*
X110480000Y-175640000D02*
X110480000Y-178370000D01*
X110480000Y-178370000D02*
X119670000Y-178370000D01*
X110600000Y-168960000D02*
X119550000Y-168960000D01*
X119670000Y-172040000D02*
X119670000Y-172940000D01*
X119670000Y-175640000D02*
X119670000Y-178370000D01*
%TO.C,C14*%
X104587742Y-148077500D02*
X105062258Y-148077500D01*
X104587742Y-149122500D02*
X105062258Y-149122500D01*
%TO.C,U4*%
X104265000Y-135690000D02*
X105735000Y-135690000D01*
X104265000Y-135715000D02*
X104265000Y-135690000D01*
X104265000Y-137910000D02*
X104265000Y-137885000D01*
X105735000Y-135690000D02*
X105735000Y-135715000D01*
X105735000Y-137885000D02*
X105735000Y-137910000D01*
X105735000Y-137910000D02*
X104265000Y-137910000D01*
X103820000Y-135710000D02*
X103680000Y-135520000D01*
X103960000Y-135520000D01*
X103820000Y-135710000D01*
G36*
X103820000Y-135710000D02*
G01*
X103680000Y-135520000D01*
X103960000Y-135520000D01*
X103820000Y-135710000D01*
G37*
%TO.C,C10*%
X108387742Y-138077500D02*
X108862258Y-138077500D01*
X108387742Y-139122500D02*
X108862258Y-139122500D01*
%TO.C,J3*%
X57480000Y-167220000D02*
X57480000Y-169980000D01*
X62670000Y-167220000D02*
X57480000Y-167220000D01*
X62670000Y-167220000D02*
X62670000Y-169980000D01*
X62670000Y-169980000D02*
X57480000Y-169980000D01*
X63940000Y-167220000D02*
X65320000Y-167220000D01*
X65320000Y-167220000D02*
X65320000Y-168600000D01*
%TO.C,U5*%
X96530000Y-150250000D02*
X100130000Y-150250000D01*
X96491522Y-150238478D02*
G75*
G02*
X98330000Y-145799999I1838478J1838478D01*
G01*
X98330000Y-145800000D02*
G75*
G02*
X100168478Y-150238478I0J-2600000D01*
G01*
%TO.C,C8*%
X92387742Y-142677500D02*
X92862258Y-142677500D01*
X92387742Y-143722500D02*
X92862258Y-143722500D01*
%TO.C,C11*%
X108387742Y-140587500D02*
X108862258Y-140587500D01*
X108387742Y-141632500D02*
X108862258Y-141632500D01*
%TO.C,FB1*%
X61952000Y-128070000D02*
G75*
G02*
X61952000Y-125530000I508000J1270000D01*
G01*
X62699932Y-124499932D02*
G75*
G02*
X67540000Y-124768000I2300068J-2300068D01*
G01*
X67524465Y-128819572D02*
G75*
G02*
X62714000Y-129086000I-2524465J2019572D01*
G01*
X68048000Y-125530000D02*
G75*
G02*
X68048000Y-128070000I-508000J-1270000D01*
G01*
%TO.C,C9*%
X108387742Y-135567500D02*
X108862258Y-135567500D01*
X108387742Y-136612500D02*
X108862258Y-136612500D01*
%TO.C,C4*%
X113851665Y-126610000D02*
X114083335Y-126610000D01*
X113851665Y-127330000D02*
X114083335Y-127330000D01*
%TO.C,SW2*%
X58800000Y-107600000D02*
X60400000Y-106000000D01*
X58800000Y-108750000D02*
X58800000Y-107600000D01*
X58800000Y-110650000D02*
X58800000Y-113750000D01*
X58800000Y-115650000D02*
X58800000Y-116800000D01*
X58800000Y-116800000D02*
X60400000Y-118400000D01*
X60400000Y-106000000D02*
X69600000Y-106000000D01*
X60400000Y-118400000D02*
X69600000Y-118400000D01*
X69600000Y-106000000D02*
X71200000Y-107600000D01*
X69600000Y-118400000D02*
X71200000Y-116800000D01*
X71200000Y-108750000D02*
X71200000Y-107600000D01*
X71200000Y-110650000D02*
X71200000Y-113750000D01*
X71200000Y-115650000D02*
X71200000Y-116800000D01*
%TO.C,SW1*%
X99050000Y-107900000D02*
X100650000Y-106300000D01*
X99050000Y-109050000D02*
X99050000Y-107900000D01*
X99050000Y-110950000D02*
X99050000Y-114050000D01*
X99050000Y-115950000D02*
X99050000Y-117100000D01*
X99050000Y-117100000D02*
X100650000Y-118700000D01*
X100650000Y-106300000D02*
X109850000Y-106300000D01*
X100650000Y-118700000D02*
X109850000Y-118700000D01*
X109850000Y-106300000D02*
X111450000Y-107900000D01*
X109850000Y-118700000D02*
X111450000Y-117100000D01*
X111450000Y-109050000D02*
X111450000Y-107900000D01*
X111450000Y-110950000D02*
X111450000Y-114050000D01*
X111450000Y-115950000D02*
X111450000Y-117100000D01*
%TO.C,C7*%
X99716665Y-132210000D02*
X99948335Y-132210000D01*
X99716665Y-132930000D02*
X99948335Y-132930000D01*
%TO.C,C2*%
X99658074Y-128257500D02*
X100132590Y-128257500D01*
X99658074Y-129302500D02*
X100132590Y-129302500D01*
%TO.C,R1*%
X96414879Y-126330000D02*
X96750121Y-126330000D01*
X96414879Y-127090000D02*
X96750121Y-127090000D01*
%TO.C,L1*%
X108229879Y-130020000D02*
X108565121Y-130020000D01*
X108229879Y-130780000D02*
X108565121Y-130780000D01*
%TO.C,R5*%
X104737742Y-132677500D02*
X105212258Y-132677500D01*
X104737742Y-133722500D02*
X105212258Y-133722500D01*
%TO.C,C6*%
X99716665Y-130240000D02*
X99948335Y-130240000D01*
X99716665Y-130960000D02*
X99948335Y-130960000D01*
%TO.C,C12*%
X101720000Y-139600000D02*
G75*
G02*
X95180000Y-139600000I-3270000J0D01*
G01*
X95180000Y-139600000D02*
G75*
G02*
X101720000Y-139600000I3270000J0D01*
G01*
%TO.C,U3*%
X80350000Y-127590000D02*
X84110000Y-127590000D01*
X80350000Y-134410000D02*
X84110000Y-134410000D01*
X84110000Y-127590000D02*
X84110000Y-128850000D01*
X84110000Y-134410000D02*
X84110000Y-133150000D01*
X79070000Y-127690000D02*
X78830000Y-127360000D01*
X79310000Y-127360000D01*
X79070000Y-127690000D01*
G36*
X79070000Y-127690000D02*
G01*
X78830000Y-127360000D01*
X79310000Y-127360000D01*
X79070000Y-127690000D01*
G37*
%TO.C,J4*%
X96620000Y-168020000D02*
X96620000Y-170780000D01*
X104350000Y-168020000D02*
X96620000Y-168020000D01*
X104350000Y-168020000D02*
X104350000Y-170780000D01*
X104350000Y-170780000D02*
X96620000Y-170780000D01*
X105620000Y-168020000D02*
X107000000Y-168020000D01*
X107000000Y-168020000D02*
X107000000Y-169400000D01*
%TO.C,R4*%
X96414879Y-132300000D02*
X96750121Y-132300000D01*
X96414879Y-133060000D02*
X96750121Y-133060000D01*
%TO.C,J6*%
X74280000Y-166220000D02*
X74280000Y-168980000D01*
X82010000Y-166220000D02*
X74280000Y-166220000D01*
X82010000Y-166220000D02*
X82010000Y-168980000D01*
X82010000Y-168980000D02*
X74280000Y-168980000D01*
X83280000Y-166220000D02*
X84660000Y-166220000D01*
X84660000Y-166220000D02*
X84660000Y-167600000D01*
%TO.C,R3*%
X96414879Y-130310000D02*
X96750121Y-130310000D01*
X96414879Y-131070000D02*
X96750121Y-131070000D01*
%TD*%
M02*
