M48
; DRILL file KiCad 10.0.3 date 2026-10-04T21:07:12
; FORMAT={-:-/ absolute / metric / decimal}
; #@! TF.CreationDate,2026-10-04T21:07:12-04:00
; #@! TF.GenerationSoftware,Kicad,Pcbnew,10.0.3
; #@! TF.FileFunction,Plated,1,2,PTH
FMAT,2
METRIC
; #@! TA.AperFunction,Plated,PTH,ComponentDrill
T1C0.200
; #@! TA.AperFunction,Plated,PTH,ViaDrill
T2C0.300
; #@! TA.AperFunction,Plated,PTH,ComponentDrill
T3C0.400
; #@! TA.AperFunction,Plated,PTH,ComponentDrill
T4C0.500
; #@! TA.AperFunction,Plated,PTH,ComponentDrill
T5C0.600
; #@! TA.AperFunction,Plated,PTH,ComponentDrill
T6C0.750
; #@! TA.AperFunction,Plated,PTH,ComponentDrill
T7C0.800
; #@! TA.AperFunction,Plated,PTH,ComponentDrill
T8C1.000
; #@! TA.AperFunction,Plated,PTH,ComponentDrill
T9C1.020
%
G90
G05
T1
X82.1Y-110.51
X82.1Y-111.91
X82.8Y-109.81
X82.8Y-111.21
X82.8Y-112.61
X83.5Y-110.51
X83.5Y-111.91
X84.2Y-109.81
X84.2Y-111.21
X84.2Y-112.61
X84.9Y-110.51
X84.9Y-111.91
T2
X53.6Y-149.0
X57.0Y-111.8
X58.4Y-151.6
X59.0Y-113.0
X60.6Y-146.0
X60.6Y-147.4
X61.0Y-151.6
X61.36Y-140.6
X62.0Y-128.6
X63.1Y-139.475
X63.1Y-140.575
X63.1Y-144.975
X63.1Y-146.075
X63.16Y-134.6
X63.4Y-148.4
X63.4Y-151.6
X63.776Y-121.576
X64.36Y-140.575
X64.4Y-147.4
X64.6Y-135.0
X65.224Y-140.424
X65.4Y-145.4
X65.8Y-124.8
X66.6Y-144.6
X68.0Y-118.2
X68.175Y-121.975
X68.8Y-144.475
X69.4Y-128.4
X69.771Y-120.971
X71.275Y-118.875
X71.741Y-120.699
X72.2Y-122.2
X72.75Y-116.8
X72.75Y-118.4
X73.6Y-130.2
X74.0Y-103.4
X74.0Y-106.0
X75.0Y-122.4
X75.0Y-131.8
X76.25Y-107.3
X76.25Y-111.11
X76.25Y-116.19
X76.25Y-117.46
X76.25Y-118.73
X76.6Y-166.2
X76.8Y-121.4
X77.0Y-131.0
X77.0Y-143.2
X77.0Y-175.0
X79.05Y-131.0
X79.05Y-133.3
X79.476Y-103.476
X79.6Y-109.6
X81.0Y-123.6
X81.2Y-118.2
X81.351Y-136.449
X82.4Y-131.8
X82.8Y-130.0
X83.022Y-123.622
X83.8Y-107.97
X83.8Y-127.0
X83.8Y-133.235
X84.0Y-104.6
X85.551Y-117.449
X86.0Y-148.0
X86.299Y-116.501
X86.8Y-124.0
X88.0Y-122.9
X88.175Y-121.25
X88.6Y-125.2
X88.8Y-118.8
X89.2Y-127.28
X89.6Y-107.37
X89.8Y-103.8
X89.8Y-106.2
X90.476Y-107.276
X90.6Y-123.0
X90.715Y-121.25
X91.2Y-115.2
X91.4Y-104.6
X91.676Y-107.1
X91.8Y-118.4
X91.985Y-121.25
X92.0Y-103.4
X92.0Y-122.8
X92.0Y-126.0
X92.4Y-106.2
X92.4Y-120.0
X92.555Y-104.0
X92.6Y-124.6
X92.6Y-130.4
X93.2Y-132.035
X93.6Y-145.2
X93.676Y-140.476
X93.684Y-122.2
X93.75Y-107.3
X93.75Y-111.11
X93.75Y-112.38
X93.75Y-113.65
X94.2Y-142.0
X94.2Y-143.2
X94.484Y-122.2
X94.6Y-131.2
X94.876Y-139.276
X94.886Y-128.514
X95.0Y-132.6
X95.4Y-104.0
X95.4Y-111.4
X95.4Y-123.4
X95.6Y-115.2
X95.6Y-125.0
X95.985Y-130.69
X96.0Y-102.6
X96.0Y-117.2
X96.023Y-116.374
X96.13Y-114.07
X96.4Y-142.2
X96.4Y-145.4
X96.405Y-126.228
X96.474Y-112.526
X96.596Y-129.994
X97.18Y-128.7
X97.4Y-113.526
X97.8Y-111.8
X97.941Y-117.2
X98.0Y-123.0
X98.037Y-132.8
X98.4Y-126.2
X99.136Y-131.596
X99.67Y-116.6
X99.67Y-119.4
X99.67Y-120.6
X100.4Y-107.8
X100.4Y-125.4
X100.72Y-128.78
X101.4Y-121.524
X102.0Y-125.2
X102.293Y-137.507
X102.325Y-115.875
X102.4Y-117.2
X102.576Y-118.8
X103.049Y-136.0
X103.6Y-117.2
X103.676Y-121.524
X103.75Y-124.4
X104.05Y-127.2
X104.2Y-130.4
X104.4Y-120.0
X104.425Y-134.8
X105.707Y-121.293
X105.8Y-128.0
X105.8Y-135.4
X105.8Y-158.0
X106.0Y-117.2
X106.6Y-128.0
X106.6Y-130.6
X106.681Y-129.4
X107.0Y-139.735
X107.625Y-127.137
X107.8Y-117.2
X107.8Y-141.11
X107.881Y-129.281
X108.797Y-133.2
X108.875Y-123.324
X109.2Y-128.0
X109.4Y-145.4
X109.671Y-123.248
X109.8Y-129.6
X110.578Y-126.173
X110.8Y-142.6
X111.35Y-150.376
X112.2Y-122.6
X112.4Y-123.4
X113.325Y-149.776
X113.6Y-159.9
X113.8Y-146.4
X113.85Y-136.15
X114.6Y-121.2
X115.4Y-119.8
X115.551Y-121.0
X115.6Y-167.8
T3
X112.1Y-169.64
X112.1Y-170.99
X112.95Y-169.64
X112.95Y-170.99
X113.8Y-169.64
X113.8Y-170.99
X114.65Y-169.64
X114.65Y-170.99
X115.5Y-169.64
X115.5Y-170.99
X116.35Y-169.64
X116.35Y-170.99
X117.2Y-169.64
X117.2Y-170.99
X118.05Y-169.64
X118.05Y-170.99
T4
X113.1Y-132.0
X114.6Y-132.0
T6
X97.06Y-148.4
X98.33Y-148.4
X99.6Y-148.4
T7
X62.46Y-126.8
X67.54Y-126.8
X97.2Y-139.6
X99.7Y-139.6
T8
X58.86Y-168.6
X61.4Y-168.6
X63.94Y-168.6
X75.66Y-167.6
X78.2Y-167.6
X80.74Y-167.6
X83.28Y-167.6
X98.0Y-169.4
X100.54Y-169.4
X103.08Y-169.4
X104.2Y-154.85
X104.2Y-157.39
X104.2Y-159.93
X104.2Y-162.47
X105.62Y-169.4
X109.6Y-147.46
X109.6Y-150.0
X109.6Y-152.54
X109.6Y-155.08
X109.6Y-157.62
X116.2Y-142.72
X116.2Y-145.26
X116.2Y-147.8
X116.2Y-150.34
X116.2Y-152.88
X116.2Y-155.42
X116.2Y-157.96
X116.2Y-160.5
T9
X75.21Y-161.8
X90.2Y-161.8
T5
G00X110.75Y-169.87
M15
G01X110.75Y-171.37
M16
G05
G00X110.75Y-173.6
M15
G01X110.75Y-174.4
M16
G05
G00X119.4Y-169.87
M15
G01X119.4Y-171.37
M16
G05
G00X119.4Y-173.6
M15
G01X119.4Y-174.4
M16
G05
M30
